<svg id="datavis-bg" xmlns="http://www.w3.org/2000/svg" xmlns:xlink="http://www.w3.org/1999/xlink" width="502.869" height="457" viewBox="0 0 502.869 457">
  <defs>
    <clipPath id="clip-path">
      <rect id="Rectangle_167" data-name="Rectangle 167" width="502.869" height="457" fill="#d8bda4"/>
    </clipPath>
  </defs>
  <g id="Group_322" data-name="Group 322" clip-path="url(#clip-path)">
    <path id="Path_159" data-name="Path 159" d="M255.155,214.19c-78.063,41.456-149.622,112-166.948,201.693-15.139,78.373,14.92,170.2,87.018,210.8,43.7,24.608,96.978,26.772,144.776,14.335,50.077-13.029,94.467-41.633,134.206-73.971,40.384-32.864,75.538-72.079,89.573-123.376,12.257-44.8,7.385-91.788-12.4-133.622-38.041-80.436-124.19-128.187-212.425-116.986a232.641,232.641,0,0,0-119.913,52.2c-34.612,28.978-58.907,69.119-71.076,112.41a252.359,252.359,0,0,0-.344,135.03c12.4,44.481,38.058,88.528,82.411,106.894,23.346,9.668,49.088,11.782,74.126,11.6a673.437,673.437,0,0,0,79.372-5.276c49.951-6.321,100.086-19.627,141.889-48.723,36.644-25.506,66.9-62.078,77.505-106.163,10.09-41.939,1.9-86.159-17.722-124.091C520.42,240.389,424.24,202.926,330.81,204.006a419.64,419.64,0,0,0-72.035,7.442c-12.776,2.385-7.365,21.88,5.376,19.5,84.484-15.766,183.8-6.411,247.629,57.092,27.982,27.84,48.025,64.52,53.815,103.768s-5.148,78.445-29.524,109.623C477.7,576.1,374.2,590,285.6,590.958c-22.761.246-46.252-1.134-67.587-9.795-20.075-8.148-36.112-23.246-47.8-41.25-23.012-35.436-32.542-79.325-31.29-121.206C141.405,335.9,189,259.7,266.394,227.595c37.248-15.45,79.406-20.574,118.969-11.947,38.215,8.335,72.259,29.337,98.181,58.47,25.847,29.049,43.439,66.714,46.424,105.688,3.6,47.069-13.015,93.164-43.555,128.8-30.121,35.143-69.237,65.085-109.613,87.473-41.41,22.962-88.872,36.863-136.506,30.86-39.59-4.99-75.366-25.04-99.371-56.992-22-29.285-34.169-65.725-36.139-102.164-4.429-81.986,45.044-155.155,108.3-203.018a388.067,388.067,0,0,1,52.28-33.11c11.5-6.107,1.293-23.57-10.208-17.463" transform="translate(-84.388 -191.444)" fill="#d8bda4"/>
  </g>
</svg>
