<svg xmlns="http://www.w3.org/2000/svg" viewBox="0 0 208.14 217.09"><defs><style>.cls-1{fill:#fff;}.cls-2{opacity:0.44;}.cls-3{fill:#4d4d4d;}.cls-4{fill:#c69c6d;}</style></defs><g id="Layer_2" data-name="Layer 2"><g id="gas"><rect class="cls-1" x="2.82" y="9.44" width="203" height="203" rx="12.12"/><path d="M193.7,210.94H15.37a10.69,10.69,0,0,1-11-11V27c0-1.8,0-3.6,0-5.39A10.77,10.77,0,0,1,15,10.94H193.33a10.83,10.83,0,0,1,11,11c0,2.64,0,5.27,0,7.91V199c0,.45,0,.9,0,1.36a10.76,10.76,0,0,1-10.62,10.62,1.5,1.5,0,0,0,0,3,13.79,13.79,0,0,0,13.36-11,19.54,19.54,0,0,0,.26-3.66V29.61c0-2.58,0-5.15,0-7.73A13.84,13.84,0,0,0,193.5,7.94c-2.41,0-4.83,0-7.25,0h-170c-.66,0-1.32,0-2,0A13.76,13.76,0,0,0,1.47,19.63a49.34,49.34,0,0,0-.15,6.77V200A14,14,0,0,0,5.1,209.7a13.88,13.88,0,0,0,10.09,4.24H193.7A1.5,1.5,0,0,0,193.7,210.94Z"/><g class="cls-2"><path class="cls-3" d="M3.5,19.45a374.38,374.38,0,0,0,6.62,58.87c1.35,7,11.39,4.83,11.79-1.59Q23.31,54.08,23,31.39H11c1.38,43,2.73,86,2.14,129.05-.1,7.93,11.1,7.45,12,0A503.51,503.51,0,0,0,27.84,68c-.48-7.73-11.43-7.7-12,0A416.07,416.07,0,0,0,17,142.21c.8,7.57,11.6,7.86,12,0,1.2-23.37,2.09-46.94-3.71-69.83-1.65-6.51-12-5.22-11.78,1.6a485,485,0,0,1-3.86,75.51h12c-1.28-24.92,4.21-50.58-4.36-74.71-2.1-5.91-12.59-5.57-11.78,1.59Q9.4,110.92,12,145.57c.57,7.87,11,7.54,12,0a172.64,172.64,0,0,0,.64-38.29c-.71-7.54-12-7.86-12,0l0,86.11c0,7.76,11.62,7.68,12,0,.66-13.1,1-26.18-2.13-39-1.69-6.91-11.27-4.86-11.78,1.59q-1.61,20-1.23,40c.14,7.94,11.07,7.46,12,0a105.93,105.93,0,0,0,0-26.39c-.77-6.18-10-8.76-11.78-1.59-3,12.52,1.51,25.11-1,37.55-.57,2.88.81,6.87,4.19,7.38,16.53,2.51,30.53-7.39,46.41-9.95,17.34-2.81,35.44-2.67,53-3.71l-1.59-11.78a276.35,276.35,0,0,1-65.33,6.27L49.51,204a22.8,22.8,0,0,1,14.11-4.91L62,187.28c-14.46,2.84-30.18-1.79-41.7,10a6.13,6.13,0,0,0,0,8.48c7.09,8.17,18.55,6.77,28.23,6.08L88.06,209V197L40,202c-7.52.78-7.9,11.93,0,12l85.21.73c6.58.06,8.4-10.53,1.59-11.78a186.76,186.76,0,0,0-33.19-3.18c-7.16,0-7.64,9.45-1.6,11.78,8.39,3.24,17.32.43,25.67-1.51l28.95-6.76-3.19-11.57a131.75,131.75,0,0,1-28.56,3.91c-5.8.16-8.36,8.19-3,11.19,7.15,4,14.87,3.46,22.77,2.93q13.38-.89,26.74-1.92l-1.6-11.79q-14.42,2.52-29,3.7v12a209.29,209.29,0,0,0,39.88-7.31c7.42-2.13,4.31-13.48-3.19-11.57-6.9,1.76-13.82,3.46-20.71,5.27-5.07,1.32-10.46,3.37-11.54,9.15-.54,2.86.77,6.91,4.19,7.38a67,67,0,0,0,33.68-3.44l-4.62-11a20.87,20.87,0,0,1-7.76,2.69c-6.88,1.06-4.92,11.61,1.59,11.78a85.64,85.64,0,0,0,21.64-2.24c7.56-1.75,4.34-13.1-3.19-11.57a74.44,74.44,0,0,0-14.27,4.59c-6.2,2.62-2,10.56,3,11.18a54.29,54.29,0,0,0,19.26-1.18c7.51-1.77,4.33-13.35-3.19-11.57a45,45,0,0,1-16.07.75l3,11.18a60.54,60.54,0,0,1,11.41-3.38l-3.19-11.57a71.94,71.94,0,0,1-18.45,1.81l1.6,11.79a29.65,29.65,0,0,0,10.63-3.9c5.64-3.33,1.92-13.46-4.63-11a54.74,54.74,0,0,1-27.3,3.45l4.19,7.38c.1-.54,9.57-2.4,10.69-2.69l13.18-3.35-3.19-11.57a193.15,193.15,0,0,1-36.69,6.88c-7.63.66-7.72,12.62,0,12Q147,210.45,163,207.64c6.62-1.15,5.15-12.3-1.59-11.78q-11.46.88-22.92,1.66c-6.4.44-14.65,2.26-20.53-1l-3,11.18a147.3,147.3,0,0,0,31.75-4.34c7.5-1.87,4.32-13.32-3.19-11.57l-25.09,5.85c-7.24,1.69-15.86,5.23-23.15,2.42l-1.59,11.79a168.59,168.59,0,0,1,30,2.75l1.6-11.79L40,202v12l48.05-5c7.54-.78,7.79-12.55,0-12l-33.58,2.4c-4.88.35-9.79.85-14.68,1-4.07.12-8.16.11-11-3.14v8.48c4.06-4.15,9.7-5.24,15.31-5.51,7.1-.34,14.08,0,21.1-1.42,6.68-1.32,5.09-11.91-1.6-11.79A36,36,0,0,0,41,195.48c-4.27,3.44-.52,10.14,4.25,10.24a289.62,289.62,0,0,0,68.52-6.7c6.55-1.44,5.19-12.19-1.6-11.79-16.89,1-34,1.29-50.82,3.38a98.17,98.17,0,0,0-22.78,5.65c-7.08,2.67-14.82,6.24-22.57,5.06l4.19,7.38c2.51-12.49-2-25.25,1-37.55L9.4,169.55a105.93,105.93,0,0,1,0,26.39h12q-.37-20,1.23-40l-11.79,1.6c2.87,11.76,2.3,23.83,1.7,35.83h12l0-86.11h-12A172.64,172.64,0,0,1,12,145.57H24q-2.55-34.66-6.44-69.2L5.73,78c8.17,23,2.71,47.72,3.93,71.52.41,7.92,11,7.49,12,0A485,485,0,0,0,25.52,74L13.73,75.57c5.53,21.82,4.43,44.37,3.28,66.64H29A416.07,416.07,0,0,1,27.84,68h-12a503.51,503.51,0,0,1-2.67,92.43h12c.59-43-.76-86-2.14-129-.24-7.7-12.09-7.75-12,0q.29,22.68-1.12,45.34l11.78-1.6A353,353,0,0,1,15.5,19.45c-.24-7.71-12.24-7.74-12,0Z"/></g><g class="cls-2"><path class="cls-3" d="M12,199.67q2.92-91.5,3.11-183c0-7.73-12-7.74-12,0q-.18,91.55-3.11,183c-.24,7.73,11.76,7.72,12,0Z"/></g><g class="cls-2"><path class="cls-3" d="M14.65,172.6a126.16,126.16,0,0,1,10.07,32.49C25.9,212,36.31,210,36.51,203.5a181.35,181.35,0,0,0-1.32-27.76L23.4,177.33a96.09,96.09,0,0,0,9,20.42c2.46,4.2,9.95,3.79,11-1.43,3.68-18.9-3.15-36.51-11.07-53.39-2.86-6.09-13.28-1.78-11,4.63Q31,174.22,42.64,200.08c2.88,6.41,12.45,1.73,11-4.62-5.6-23.93-15.16-46.58-24.71-69.15l-9.42,7.28c5.68,6.11,8,14.5,10.77,22.19l9.7,26.91c2.59,7.17,14,4.22,11.57-3.19a372.64,372.64,0,0,0-23-54.72l-9.42,7.27C34.6,150.5,38.42,175.72,52.74,195c2.79,3.76,9.79,4.11,11-1.43,2.87-13.56-1.46-26.76-6.09-39.41C52.81,141,47,128.31,41.23,115.62l-10.36,6,36,59.49c2.1,3.47,8.51,4.33,10.36,0,3.73-8.73-1.07-16.94-4.47-25.06-3.81-9.08-7.85-18.06-12-27-8.68-18.57-17.7-37-26.59-55.43L24.72,81c5.79,6.72,9.14,15.12,12.47,23.23q5.6,13.62,10.72,27.42Q58,158.76,66.25,186.54c2.22,7.43,13.18,4.34,11.57-3.19C70.22,147.58,55.64,114,41.11,80.57l-9.42,7.27c6.13,7.23,9.73,16.31,13.63,24.85q6.24,13.69,12.35,27.45t12.08,27.57c3.88,9,7.57,18,13.24,26.06a6.06,6.06,0,0,0,11.18-3c1.4-16.21-4.65-33-10.46-47.83a237.47,237.47,0,0,0-22-42.9c-4.28-6.6-13.48-.89-10.36,6.06q18.52,41.4,38.82,82c1.69,3.39,6.91,3.92,9.42,1.21,5.74-6.19,2.34-13.86-.12-20.73q-4.38-12.21-9.68-24.06A331.15,331.15,0,0,0,64.28,97.77c-4.21-6.42-14.48-.55-10.37,6,15.43,24.78,25.46,52.57,42.34,76.49,3.3,4.68,11.13,3.27,11.18-3,.11-14.45-6.88-28.83-12.52-41.84A322.58,322.58,0,0,0,74.44,96c-3.38-5.54-13.68-1.88-11,4.62q22.13,53.1,48.73,104.13c2.27,4.34,10.09,3.69,11-1.43,1.55-9-.88-17.39-3.57-26a242.57,242.57,0,0,0-8.48-22.74A235.29,235.29,0,0,0,86.27,110.6c-4.47-6.26-13.79-.95-10.36,6.06a687.67,687.67,0,0,0,33.7,60.83c2.7,4.34,9.57,3.64,11-1.43,1.76-6.34-.47-12.17-2.67-18.09-2.36-6.36-5-12.62-7.93-18.75a217.08,217.08,0,0,0-20.67-34.51c-3.65-5-13.64-2.26-11,4.62a386.75,386.75,0,0,0,38.07,73.74c1.71,2.58,5.39,4,8.21,2.15,7.41-4.94,3.51-14.54,1.58-21.51a196.49,196.49,0,0,0-9-25.16c-7.22-16.86-16.59-32.66-27-47.75C85.92,84.5,76.2,90,79.91,96.86l48.53,90c3.21,5.95,13,1.91,11-4.62A453,453,0,0,0,95.68,84.81l-10.36,6c20.5,33,36.21,68.52,51.79,104,2.7,6.15,13.58,1.66,11-4.62-8-19.29-16.25-38.57-26.49-56.82-9.33-16.65-20.32-35.3-37.1-45.38a6.06,6.06,0,0,0-8.82,3.59c-3.11,13.06,3,27.33,6.31,39.87l11-4.63c-7.3-15-15.62-29.38-24.25-43.62C61.47,71.34,54.09,59.3,42,51.71c-2.56-1.61-6.86-.72-8.2,2.16C29.39,63.34,35.49,73.55,39,82.43Q45.3,98,52.25,113.3l10.36-6.06Q52.47,87.1,41.31,67.48c-3.26-5.74-13.41-1.89-11,4.63q10.36,27.56,19.18,55.67l11-4.62Q47.59,93.84,36.12,63.93l-11,4.63L40.84,99.47c3.27,6.45,12.08,1.66,11-4.63-4.46-25-19.14-46.75-24.21-71.64L18.77,30C29,37,33.37,50.78,38.91,61.29A419.92,419.92,0,0,0,61,98.41c3.58,5.38,13.19,2.17,11-4.63-8.19-25-21.48-47.64-34.92-70.08L27.66,31C40,45.33,49.9,61.53,60.17,77.36l31.94,49.18c4.23,6.52,13.78.86,10.36-6.05a470,470,0,0,0-46.32-75l-9.42,7.27C75,84,93.9,122.26,121.3,154.2c3.83,4.48,12-.27,10-5.84-11-30.52-30.22-56.57-50.23-81.75-4.27-5.36-13,1.57-9.43,7.28q34,54.54,62.67,112.13L144.69,180,120,132.85c-3.61-6.88-13.73-.83-10.36,6.06A285.59,285.59,0,0,0,152.75,203c4.22,4.75,11.23-.36,10-5.83a99.15,99.15,0,0,0-25.39-47.33c-4.82-5-12.58,1.36-9.42,7.27a470,470,0,0,0,31.77,51.2,6,6,0,0,0,10.37-6.06,434.33,434.33,0,0,0-26.56-48c-4.14-6.48-14.38-.6-10.36,6.05a259.3,259.3,0,0,0,37.07,47.79c4.78,4.86,12.85-1.37,9.42-7.28L160.58,168,150.22,174a123.42,123.42,0,0,0,23.23,28.66c4.05,3.7,12.31.15,10-5.83a106.51,106.51,0,0,0-12-22.94l-9.43,7.27a214.64,214.64,0,0,0,23.12,23.69c5.78,5.08,14.3-3.38,8.49-8.48a213.83,213.83,0,0,1-23.12-23.7c-4.33-5.18-13.31,1.67-9.42,7.27A94.38,94.38,0,0,1,171.9,200l10-5.84A112.83,112.83,0,0,1,160.58,168c-3.92-6.65-14.25-.65-10.36,6.05l19.1,32.91,9.42-7.27a245.86,245.86,0,0,1-35.19-45.35l-10.36,6.05a432.76,432.76,0,0,1,26.55,48l10.37-6.06a467.54,467.54,0,0,1-31.78-51.2l-9.42,7.27a87.34,87.34,0,0,1,22.29,42l10-5.84A274.08,274.08,0,0,1,120,132.85l-10.36,6.06L134.33,186c3.61,6.86,13.79.81,10.36-6.06Q116,122.44,82,67.83L72.6,75.1c18.64,23.45,36.9,48,47.15,76.45l10-5.83c-27.39-31.94-46.3-70.17-74.56-101.44-4.49-5-13.58,1.78-9.43,7.27a471.12,471.12,0,0,1,46.32,75l10.36-6.05-33-50.83C59,53.5,48.7,37.15,36.14,22.48c-4.48-5.23-12.87,1.51-9.42,7.27C39.61,51.29,52.57,73,60.43,97l11-4.63A419.63,419.63,0,0,1,47.57,52C41.41,40,36.27,27.51,24.83,19.62c-4.65-3.21-9.77,2.07-8.81,6.77C21.09,51.28,35.77,73,40.23,98l11-4.62L35.51,62.5c-3-6-13.43-1.78-11,4.62q12.06,31.35,25.59,62.1c2.74,6.23,13,1.79,11-4.63Q52.29,96.5,41.92,68.92L31,73.54q11.16,19.6,21.3,39.76c3.51,7,13.51.86,10.36-6.06q-5.51-12.1-10.54-24.4Q49.68,77,47.42,71.11c-.94-2.43-4.44-8.6-3.23-11.19L36,62.08C47.21,69.14,53.66,81.55,60.31,92.6c7.93,13.16,15.53,26.52,22.27,40.33,3,6.23,12.66,1.81,11-4.62q-2.21-8.41-4.43-16.83c-1.43-5.45-3.22-11-1.88-16.66l-8.81,3.59c15.38,9.22,25.25,27.38,33.68,42.63,9.32,16.88,17,34.61,24.4,52.39l11-4.63c-15.58-35.47-31.29-71-51.79-104-4.07-6.54-14.35-.6-10.36,6a439.15,439.15,0,0,1,42.52,94.58l11-4.62-48.54-90L79.91,96.86a292.37,292.37,0,0,1,23,39A189.92,189.92,0,0,1,111.56,157q1.68,4.92,3.07,10c.47,1.67.9,3.35,1.31,5,.28,1.13.54,2.26.79,3.39q.15,3.71,1.84-.47l8.21,2.15a372.36,372.36,0,0,1-36.87-70.87l-11,4.62a216.56,216.56,0,0,1,18.3,29.7c2.61,5.12,5,10.35,7.16,15.69,1.82,4.52,6,11.81,4.61,16.72l11-1.43A685.38,685.38,0,0,1,86.27,110.6l-10.36,6.06a234,234,0,0,1,22.74,39.26,217.49,217.49,0,0,1,8.3,21.34c2.31,7,5.93,15.46,4.65,22.91l11-1.43Q96.64,149.15,75,97.47l-11,4.63a322.27,322.27,0,0,1,19,36.08c5.3,11.85,12.44,25.88,12.34,39.1l11.18-3c-16.88-23.92-26.91-51.7-42.33-76.48l-10.37,6a330.51,330.51,0,0,1,21.76,38.5q4.74,9.88,8.76,20.09,2,5,3.8,10.15c.22.6,3.19,7.89,2.9,8.21l9.43,1.21q-20.28-40.56-38.82-82l-10.36,6.06a221.76,221.76,0,0,1,20.75,40c5.43,13.9,11.34,29.5,10,44.64l11.18-3c-5.66-8-9.36-17.08-13.24-26.05q-6.35-14.72-12.86-29.35Q60.94,118.12,54.47,104c-4-8.74-8-17.24-14.3-24.62-4.78-5.64-11.9,1.56-9.42,7.27,14.12,32.45,28.11,65.15,35.5,99.91l11.57-3.19Q69,153.77,58.15,124.86,52.81,110.69,47,96.7c-3.65-8.72-7.56-17-13.77-24.22C28.5,67,21,74,23.79,79.75,31.56,95.89,39.4,112,47.08,128.19,50.81,136,54.47,143.91,58,151.86c1.86,4.24,3.68,8.49,5.42,12.78.93,2.29,4.47,8.11,3.47,10.46H77.22l-36-59.48c-4.07-6.74-13.51-.86-10.36,6,5.1,11.19,10.2,22.38,14.51,33.89,4,10.75,9.22,23.14,6.75,34.79l11-1.44c-15-20.12-19.24-46-35.5-65.34-4.56-5.44-12.41,1.49-9.42,7.27a352.61,352.61,0,0,1,21.76,51.85l11.57-3.19Q46,164.25,40.52,149c-3.1-8.61-6.23-17.09-12.57-23.9-5-5.41-11.88,1.47-9.42,7.27C27.67,154,36.67,175.73,42,198.65L53,194q-11-24.44-20.11-49.65l-11,4.62c6.39,13.62,12.85,28.8,9.85,44.14l11-1.43A82.74,82.74,0,0,1,35,174.14c-1.89-6.13-12.66-5.4-11.78,1.6a181.35,181.35,0,0,1,1.32,27.76l11.78-1.6A137.47,137.47,0,0,0,25,166.54c-3.29-7-13.64-.9-10.36,6.06Z"/></g><g class="cls-2"><path class="cls-3" d="M23.87,87.18c2.52,4.8,2.59,10.8,3.28,16.08l2.4,18.45,4.67,35.92c1,7.42,12.48,7.9,12,0L45.57,147c-.47-7.67-12.47-7.73-12,0l.65,10.64h12L41,117.83,38.51,98.41c-.78-6-1.41-11.81-4.28-17.29-3.58-6.84-13.94-.78-10.36,6.06Z"/></g><g class="cls-2"><path class="cls-3" d="M11.18,21a518.42,518.42,0,0,0,4.67,81.65c.44,3.24,4.55,4.94,7.38,4.19,3.48-.92,4.63-4.18,4.19-7.38A499.57,499.57,0,0,1,23.18,21c.18-7.72-11.82-7.72-12,0Z"/></g><g class="cls-2"><path class="cls-4" d="M205,74.48q.91-17.37.39-34.76c-.19-5.79-.4-11.6-.94-17.37-.49-5.27-2.26-9.53-7.41-11.7-10.11-4.26-23-2.76-33.68-2.91l-36.8-.49c-7.84-.11-7.55,11.29,0,12l46.76,4.41c2.36.22,8-.15,9.61.87,1,.59,1.8,4.43,2.19,5.39l2.19,5.39,8.77,21.57c2.87,7.06,14.48,4,11.57-3.19L197.44,28.53c-1.5-3.71-2.64-8.13-4.78-11.53-2.43-3.87-6.39-4.12-10.55-4.51L126.58,7.25v12l29.84.4c10,.13,20.53-.56,30.5.8,1.89.26,4.38.24,5.55,1.9.93,1.32.42,6.07.51,7.71q.41,7.25.55,14.48c.21,10,0,20-.51,29.94-.4,7.72,11.6,7.7,12,0Z"/></g><g class="cls-2"><path class="cls-4" d="M203.5,49A127.21,127.21,0,0,0,153.9.67C149-2,142,3.71,145.69,8.88q22.67,31.7,47.45,61.78l7.27-9.42c-8.24-4-14.42-12.78-20.59-19.3L158.25,19.17l-8.49,8.48a410,410,0,0,1,39.41,39.57l8.49-8.48Q184.1,43.53,170.54,28.31C163.11,20,155.36,11.87,145.38,6.62c-5.17-2.71-11.38,2.86-8.21,8.21l29,48.88,9.42-7.28a305.8,305.8,0,0,0-36.81-37.55l-8.49,8.48A470.14,470.14,0,0,1,194,90.8c3.32,4,10.47.73,10.25-4.24a15.11,15.11,0,0,0-2.7-8.48c-4.44-6.24-14.85-.26-10.36,6.06a3,3,0,0,1,1.06,2.42l10.24-4.24a470.14,470.14,0,0,0-63.68-63.44c-5.89-4.84-14.4,3.41-8.49,8.48a306,306,0,0,1,36.82,37.56c4.39,5.33,12.83-1.52,9.42-7.27l-29-48.88L139.32,17c9.65,5.07,16.79,13.14,23.94,21.17l25.91,29.07c5.16,5.8,13.52-2.68,8.49-8.48a408.89,408.89,0,0,0-39.41-39.57c-5.78-5.06-13.85,2.82-8.49,8.48l22.92,24.2c6.53,6.9,12.93,15.56,21.67,19.75,6.27,3,11.65-4.11,7.28-9.42Q177.83,33.27,156.05,2.82L147.84,11a115.43,115.43,0,0,1,45.3,44.05c3.85,6.69,14.22.66,10.36-6.06Z"/></g><g class="cls-2"><path class="cls-4" d="M194.4,25.84a296.83,296.83,0,0,0-5,78.64c.55,7.62,12.19,7.81,12,0l-.1-4.48c-.19-7.71-12.19-7.74-12,0l.1,4.48h12A284.13,284.13,0,0,1,206,29c1.49-7.54-10.08-10.77-11.57-3.19Z"/></g><g class="cls-2"><path class="cls-4" d="M201,13.48c-26.48-1.14-54.42-.38-80.42,5.31C113,20.44,116.18,32,123.72,30.36c24.95-5.46,51.82-6,77.23-4.88,7.73.34,7.71-11.67,0-12Z"/></g><g class="cls-2"><path class="cls-4" d="M189.71,6c-11,3.2-22.3,3.71-33.63,4.49l-34.7,2.39c-7.66.53-7.72,12.53,0,12L158,22.35c11.73-.81,23.55-1.47,34.89-4.79,7.4-2.16,4.25-13.74-3.19-11.57Z"/></g><circle class="cls-1" cx="54.82" cy="54.44" r="33"/><path d="M86.32,54.44a31.5,31.5,0,0,1-55.76,20.1A31.51,31.51,0,0,1,61,23.53,31.32,31.32,0,0,1,86.32,54.44a1.5,1.5,0,0,0,3,0,34.49,34.49,0,0,0-61.09-22A34.5,34.5,0,0,0,61.75,88.24,34.73,34.73,0,0,0,88.89,59.85a36.31,36.31,0,0,0,.43-5.41A1.5,1.5,0,0,0,86.32,54.44Z"/><circle class="cls-1" cx="153.32" cy="54.94" r="33.5"/><path d="M185.32,54.94a31.86,31.86,0,1,1-.37-5,31.71,31.71,0,0,1,.37,5,1.5,1.5,0,0,0,3,0,35,35,0,1,0-64.94,18.13,35,35,0,0,0,64.49-12.54,37.4,37.4,0,0,0,.45-5.59A1.5,1.5,0,0,0,185.32,54.94Z"/><circle class="cls-1" cx="152.82" cy="138.44" r="42"/><path d="M193.32,138.44a40.34,40.34,0,1,1-.48-6.35,39.67,39.67,0,0,1,.48,6.35,1.5,1.5,0,0,0,3,0,43.55,43.55,0,1,0-.54,6.8,45.51,45.51,0,0,0,.54-6.8A1.5,1.5,0,0,0,193.32,138.44Z"/><circle class="cls-1" cx="54.82" cy="138.44" r="42"/><path d="M95.32,138.44a40.5,40.5,0,0,1-71.78,25.73A40.51,40.51,0,0,1,62.85,98.73a40.92,40.92,0,0,1,32,33.36,39.67,39.67,0,0,1,.48,6.35,1.5,1.5,0,0,0,3,0A44,44,0,0,0,69.63,97.53a43.51,43.51,0,1,0,28.15,47.71,45.51,45.51,0,0,0,.54-6.8A1.5,1.5,0,0,0,95.32,138.44Z"/></g></g></svg>