<svg xmlns="http://www.w3.org/2000/svg" viewBox="0 0 217.79 219.47"><defs><style>.cls-1{fill:#fff;}.cls-2{opacity:0.44;}.cls-3{fill:#4d4d4d;}.cls-4{fill:#c69c6d;}.cls-5{fill:#f2f2f2;}</style></defs><g id="Layer_2" data-name="Layer 2"><g id="gas2"><rect class="cls-1" x="7.3" y="9.25" width="203" height="203" rx="12.12"/><path d="M198.18,210.75H19.85a10.69,10.69,0,0,1-11-11v-173c0-1.8,0-3.6,0-5.39A10.76,10.76,0,0,1,19.42,10.75H197.81a10.83,10.83,0,0,1,11,11c0,2.64,0,5.27,0,7.91V198.77c0,.45,0,.9,0,1.35a10.77,10.77,0,0,1-10.62,10.63,1.5,1.5,0,0,0,0,3,13.8,13.8,0,0,0,13.36-11,19.65,19.65,0,0,0,.26-3.67V29.42c0-2.58,0-5.16,0-7.73A13.84,13.84,0,0,0,198,7.75H20.71c-.66,0-1.33,0-2,0A13.76,13.76,0,0,0,6,19.44a49.34,49.34,0,0,0-.15,6.77V199.84a13.67,13.67,0,0,0,13.86,13.91H198.18A1.5,1.5,0,0,0,198.18,210.75Z"/><g class="cls-2"><path class="cls-3" d="M.08,42.34c8,54.37,8.16,109.18,9.38,164,.17,7.71,12.18,7.73,12,0-1.24-55.95-1.6-111.72-9.81-167.2C10.52,31.54-1,34.77.08,42.34Z"/></g><g class="cls-2"><path class="cls-3" d="M8,16.13q6.66,96.95,11.15,194a6.08,6.08,0,0,0,6,6,449,449,0,0,0,47.47-4c7.93-1.09,16-3.11,24-2.81,7.74.29,15,3.51,22.36,5.74a101.28,101.28,0,0,0,45.54,3.1c15-2.39,30.32-9.54,45.74-6.15,7.53,1.65,10.74-9.91,3.19-11.57-15.7-3.45-30.51,1.61-45.75,4.93A90.65,90.65,0,0,1,120.44,203c-7.23-2.31-14.3-4.86-21.92-5.51-7.83-.67-15.69,1.14-23.39,2.3a418.4,418.4,0,0,1-50,4.38l6,6q-4.5-97.06-11.15-194c-.53-7.66-12.53-7.72-12,0Z"/></g><g class="cls-2"><path class="cls-3" d="M44,204.21q-1.38-48.42-6.51-96.63C35.77,92,34,76.39,31.44,60.94c-2.51-15-8.11-29.81-8.22-45.14,0-7.72-12-7.74-12,0,.11,15.26,5.29,29.74,8,44.62,2.84,15.59,4.54,31.42,6.23,47.16q5.18,48.17,6.51,96.63c.22,7.71,12.22,7.74,12,0Z"/></g><g class="cls-2"><path class="cls-3" d="M204.18,191.3c-28.07,5.93-57,1.15-85.3-.37-14-.75-28-1.26-42-1a109.73,109.73,0,0,0-20,2.06c-6.87,1.44-14,4.42-21.07,3.15-7.55-1.36-10.79,10.21-3.19,11.57,7.05,1.26,13.63.24,20.52-1.46a101.53,101.53,0,0,1,20.93-3.23c14.88-.58,29.9.07,44.77.86,29.5,1.58,59.2,6.12,88.49-.06,7.55-1.59,4.36-13.16-3.19-11.57Z"/></g><g class="cls-2"><path class="cls-3" d="M39.16,196.22l3.43,4.12c3.95,4.76,11.55-.37,10-5.83a106.89,106.89,0,0,0-20.95-39.69c-4.36-5.25-13.07,1.57-9.43,7.27A188,188,0,0,0,66.28,210c3.75,2.89,9-1.07,9-5.18,0-8.91-4.78-16.75-9-24.26q-6-10.56-13-20.49a260.4,260.4,0,0,0-32.65-37.91c-4.74-4.53-13.42,1.45-9.43,7.27a293,293,0,0,0,65.48,68.32c2.54,1.92,6.79.44,8.21-2.15,3.5-6.38.63-12.32-2.24-18.32q-5.13-10.69-11-21a354.45,354.45,0,0,0-26.1-39.58c-4.53-6-14.46-.76-10.36,6.06a281.87,281.87,0,0,0,49.05,60.71c5.07,4.74,12.47-1.2,9.42-7.27A346.13,346.13,0,0,0,20.57,78.69a6.05,6.05,0,0,0-10,5.84c2.07,9.23,9,16.51,14.52,23.85l19.73,26.07L84.24,186.6l9.43-7.27c-15.21-19.3-30.51-38.57-48.1-55.78-5.1-5-12.22,1.28-9.43,7.27a195.47,195.47,0,0,0,28.43,44.06c4.58,5.37,12.49-1.48,9.43-7.27a151.2,151.2,0,0,0-33.74-42.82,6,6,0,0,0-9.42,7.27c10.85,21.71,24.3,42.05,40.92,59.78,4.37,4.66,11.13-.3,10-5.83a144.87,144.87,0,0,0-20.63-50.8L50.8,141.27a566.86,566.86,0,0,0,47.59,61.45c4.4,5,10.84-.51,10-5.83-1.93-12.56-10.54-24-17.33-34.45-7.35-11.26-15.32-22.08-23.74-32.55-4.3-5.34-13,1.56-9.43,7.27a324.21,324.21,0,0,0,35.32,47c3.29,3.64,10.79,1,10.24-4.25-2.07-19.57-14.59-37.75-24.71-54.13-11-17.8-23-34.94-35-52.07L33.43,79.79C46,96.65,57.87,114.83,72.51,130c4.94,5.12,12.31-1.36,9.42-7.27A219.28,219.28,0,0,0,51.26,76.28c-3.87-4.53-11.91.28-10,5.83,5.93,17.53,15.4,33.32,25.08,49l9.42-7.27Q57.56,100.42,38,78.12c-3.78-4.31-12.38.27-10,5.84a276.22,276.22,0,0,0,27.78,49.8c4.34,6.27,14.6.5,10.36-6.06C49.64,102.13,32.05,74.81,30.8,43.46l-11.18,3L39.13,72.66c4.5,6,14.51.7,10.37-6.06l-19-30.93-10.36,6L49.76,87.1C54,93.65,63.32,88,60.12,81,50.69,60.54,37.3,42.38,23.88,24.38l-8.21,8.2c3.84,1.72,6.15,4.82,8.68,8.07,3,3.93,6,7.88,9.06,11.82L52.16,76.9c4.54,5.93,14.57.7,10.36-6.06A401.83,401.83,0,0,0,26.07,21.33L18.8,30.75A94.25,94.25,0,0,1,42.66,56.37L53,50.31C45.57,40.52,37.77,31,29.51,21.9L21,30.38C56.5,68.57,80,116.26,117.3,153c4.87,4.8,12.75-1.3,9.42-7.27A504.14,504.14,0,0,0,20,13.16c-4.82-4.25-13.47,1.31-9.42,7.27C29.1,47.78,51.79,72.44,73,97.72L139.5,177c4.45,5.31,12.77-1.5,9.42-7.27A419.25,419.25,0,0,0,66,67.76c-5.82-5.2-13.41,2.6-8.48,8.49C89.6,114.57,125,149.91,160.34,185.17c4.86,4.85,12.73-1.31,9.42-7.27a201.69,201.69,0,0,0-36.44-47.36c-5.59-5.39-13.66,2.78-8.48,8.48a591.93,591.93,0,0,0,55.41,53.63c4.89,4.14,13.37-1.19,9.43-7.28a176.2,176.2,0,0,0-27.24-32.74c-4.72-4.44-13.61,1.54-9.42,7.27a173.58,173.58,0,0,0,30.63,32.46c4.81,3.9,13.81-1.32,9.43-7.27l-5.14-7-9.42,7.28a78.93,78.93,0,0,0,23.24,18.1c4.21,2.16,10.82-1.53,8.82-6.78a138.44,138.44,0,0,0-12.81-25.55l-10.36,6.06,12,16.22,9.43-7.27q-12.45-16-26.11-31.09-6.85-7.5-14-14.71c-3.92-4-8.41-9.25-14.6-7-3.95,1.46-5.2,5.06-3.58,8.81a91,91,0,0,0,14.12,22.59c4.33,5.15,13.48-1.77,9.42-7.27-7.42-10.09-15.24-19.86-23.58-29.21-6.22-7-15.2-21.12-26.06-16-2.89,1.37-3.72,5.63-2.15,8.21a197,197,0,0,0,30.76,38.68c5.68,5.55,13.13-2.57,8.48-8.48a614,614,0,0,0-79.32-83.4A6.19,6.19,0,0,0,75,66.41C63.38,73.18,78.38,89,83.06,95.54q11.81,16.39,25.21,31.55c4.45,5,13.37-1.66,9.43-7.27C98.78,92.93,79.09,65.55,50.57,48.07c-4.55-2.79-10.1,1.81-8.81,6.78C44,63.33,48.3,70.79,53.07,78.06,58.25,86,63.52,93.78,68.8,101.6Q85,125.68,101.69,149.46c4.36,6.23,14.5.59,10.36-6.06A278.91,278.91,0,0,0,72.21,93.31c-4.74-4.72-13.12,1.4-9.42,7.27A540.7,540.7,0,0,0,113,167.94c4.49,5.14,13-1.53,9.42-7.27-11-17.5-23-35.94-42.47-44.84-5.71-2.61-10.6,2.62-8.21,8.21a161.55,161.55,0,0,0,32.11,48.38c4,4.12,12.18-.1,10-5.84A83.3,83.3,0,0,0,82.8,126.71c-4.25-2.92-10.46,2-8.82,6.78a142.48,142.48,0,0,0,38.5,59.17c4.2,3.85,11.94.15,10-5.83a72.52,72.52,0,0,0-23-34.25c-4.87-4-13.48,1.15-9.42,7.27a107.37,107.37,0,0,0,24.26,25.88c4.72,3.64,11.62-3.49,8.21-8.21a109.54,109.54,0,0,0-12.21-14.39c-4.06-3.95-8.56-8.38-14.65-6.5a6.08,6.08,0,0,0-3.59,8.82,113.75,113.75,0,0,0,26.3,30.47c2.37,1.92,6.2,2.67,8.48,0,10.48-12.22-5.47-29.64-13.15-39-4.27-5.23-13.4,1.72-9.42,7.27a198.81,198.81,0,0,0,30.27,33.61c5.06,4.44,12.77-1.11,9.43-7.28a147,147,0,0,0-20.39-28.69l-8.49,8.49a301.36,301.36,0,0,0,34.22,30.54c5.34,4.11,10.32-3.49,8.21-8.21a108.58,108.58,0,0,0-21.32-31.26c-5.4-5.57-13.71,2.82-8.48,8.48A270.61,270.61,0,0,0,170.16,207c5.05,3.58,11.11-3.31,8.21-8.21a144.3,144.3,0,0,0-23.23-29.69c-5.52-5.42-13.93,3-8.48,8.48l14.49,14.65c4.76,4.8,13-1.38,9.42-7.27a117.93,117.93,0,0,0-20-24.83c-5.61-5.29-14,3.08-8.48,8.49a317.45,317.45,0,0,0,29.85,25.57c5.28,4,10.46-3.45,8.21-8.21A86.78,86.78,0,0,0,160,158.8c-4.76-4.3-13.68,1.51-9.43,7.28a172,172,0,0,0,22.65,25.28c4.8,4.37,13.38-1.34,9.42-7.27a193,193,0,0,0-40.76-44.36c-4.79-3.8-13.88,1.29-9.42,7.27A215.53,215.53,0,0,0,169,185.37c5,4,13.2-1,9.42-7.27a214.32,214.32,0,0,0-41.28-49.49c-5.85-5.18-13.38,2.57-8.48,8.48,16.64,20.07,33.52,39.89,54.61,55.46,4.75,3.52,11.66-3.45,8.21-8.2A679,679,0,0,0,98.09,80.17c-5.83-5.29-13.28,2.56-8.49,8.48Q110.9,115,131.31,142c4.53,6,14.8.43,10.36-6.06a216.53,216.53,0,0,0-20.21-25.28c-4.88-5.23-12.27,1.4-9.43,7.27a97.87,97.87,0,0,0,12.48,19.26c4.27,5.22,13.47-1.77,9.42-7.27Q107.74,94.31,78.87,60.74c-5.05-5.86-13.51,2.66-8.49,8.49Q98.25,101.59,123.57,136l9.42-7.27a85.11,85.11,0,0,1-10.6-16.84L113,119.17A195.52,195.52,0,0,1,131.31,142L141.67,136q-21.31-28.26-43.58-55.8L89.6,88.65A664.3,664.3,0,0,1,181.07,190.4l8.2-8.21c-20.15-14.89-36.27-34.41-52.18-53.58l-8.48,8.48A203.75,203.75,0,0,1,168,184.15l9.42-7.27a203.65,203.65,0,0,1-34.65-35.94l-9.42,7.27a183.6,183.6,0,0,1,38.88,41.93l9.42-7.27A156.2,156.2,0,0,1,160.9,160l-9.43,7.27A77.75,77.75,0,0,1,169.77,192L178,183.8a295.59,295.59,0,0,1-27.42-23.7l-8.48,8.49A106.31,106.31,0,0,1,160.21,191l9.43-7.28-14.5-14.64-8.48,8.48A132.26,132.26,0,0,1,168,204.81l8.21-8.21a255.9,255.9,0,0,1-39.94-35.24l-8.48,8.48a99.33,99.33,0,0,1,19.44,28.84l8.21-8.21a281.37,281.37,0,0,1-31.79-28.67c-5.37-5.61-13.65,2.79-8.49,8.49a133,133,0,0,1,18.52,26.26l9.42-7.27a185.08,185.08,0,0,1-28.4-31.18l-9.43,7.27a123.48,123.48,0,0,1,8.64,12c.86,1.36,6.07,8.3,4.52,10.11h8.48a104.37,104.37,0,0,1-24.41-28.05l-3.59,8.82c-1.46.45.77,1.32,1.72,2.21q2.22,2.09,4.29,4.3a89.67,89.67,0,0,1,7.3,8.86l8.21-8.21a90.05,90.05,0,0,1-20-21.58l-9.42,7.27a61.34,61.34,0,0,1,19.88,29l10-5.84A129.93,129.93,0,0,1,85.56,130.3l-8.82,6.77a69.34,69.34,0,0,1,25.57,32.7l10-5.84A152.34,152.34,0,0,1,82.1,118l-8.21,8.21c17.63,8.08,28.24,24.65,38.17,40.54l9.42-7.27A522.25,522.25,0,0,1,73.15,94.53l-9.42,7.27a264.39,264.39,0,0,1,38,47.66l10.36-6.06Q96,120.42,80.26,97.18q-7.71-11.42-15.32-22.9C60.21,67.14,55.49,60,53.33,51.66l-8.82,6.77c26.69,16.36,45.12,42.28,62.82,67.45l9.43-7.27c-6.6-7.48-13-15.18-19-23.16q-4.45-5.92-8.66-12c-1.4-2-2.78-4.08-4.15-6.13-.68-1-1.36-2.06-2-3.1-.65-1.82-1.31-1-2,2.56l-7.27-.93a615.13,615.13,0,0,1,79.32,83.39l8.48-8.48a185,185,0,0,1-28.88-36.25l-2.15,8.2c-1.65.12-1.81.56-.46,1.3l2.57,2.65q2.56,2.67,5.07,5.38,4.38,4.75,8.6,9.65,9.15,10.62,17.44,21.91l9.42-7.27a81.05,81.05,0,0,1-12.24-20.15L157.32,145c-1.61.6-.24.7,1,1.92l2.61,2.61q2.91,3,5.78,6,6.06,6.34,11.88,12.9,11.35,12.76,21.79,26.28c4.13,5.33,13.48-1.78,9.42-7.27l-12-16.22c-4.48-6.06-14.63-.58-10.36,6.06A123.09,123.09,0,0,1,199,199.9l8.81-6.77A70,70,0,0,1,187,176.9c-4.43-5-13.49,1.75-9.42,7.27l5.13,7,9.43-7.27a161.39,161.39,0,0,1-28.76-30L154,161.12a162.86,162.86,0,0,1,25.36,30.31l9.42-7.27a594.44,594.44,0,0,1-55.42-53.62L124.84,139A190.73,190.73,0,0,1,159.4,184l9.43-7.27C133.46,141.43,98.09,106.08,66,67.76l-8.48,8.49a408.57,408.57,0,0,1,81.05,99.49l9.43-7.27L82.77,90.76c-21-25-43.52-49.35-61.87-76.38l-9.42,7.27a494.2,494.2,0,0,1,104.88,130.1l9.42-7.28C88.55,107.8,65,60.09,29.51,21.9c-5.27-5.69-13.64,2.77-8.48,8.48,7.56,8.37,14.8,17,21.63,26,4.53,6,14.61.64,10.36-6.06A109.78,109.78,0,0,0,24.86,20.39C19,16.14,13.42,25,17.59,29.81A381,381,0,0,1,52.16,76.9l10.36-6.06L41.36,43.26c-5.54-7.22-11-17.17-19.64-21C17,20.1,9.49,25,13.51,30.43c13.43,18,26.82,36.17,36.25,56.67L60.12,81,30.5,35.67c-4.2-6.43-14.43-.58-10.36,6l19,30.94L49.5,66.6,30,40.43c-3.26-4.36-11.44-3.49-11.18,3,1.34,33.65,19.22,62.79,37,90.3l10.36-6.06C55.9,112.91,46.56,97.38,39.56,80.77l-10,5.83q19.53,22.31,37.73,45.7c4.2,5.41,12.95-1.56,9.42-7.27-9.11-14.74-18.28-29.6-23.87-46.11l-10,5.84a207.81,207.81,0,0,1,28.79,44L81,121.52c-13.94-14.45-25.2-31.73-37.2-47.78-4.53-6.06-14.85-.36-10.36,6.05C44.7,95.9,56,112,66.42,128.69c5.13,8.19,10.07,16.5,14.68,25,4.46,8.2,9.37,16.79,10.37,26.25l10.24-4.24a306.39,306.39,0,0,1-33.43-44.59l-9.43,7.27q11.67,14.51,21.87,30.11c6.22,9.54,14.36,20.09,16.12,31.59l10-5.84a544.8,544.8,0,0,1-45.71-59c-4.26-6.37-14.59-.46-10.36,6.06A135.6,135.6,0,0,1,70.22,189.2l10-5.84c-16-17-28.65-36.55-39-57.36l-9.43,7.27a141.61,141.61,0,0,1,31.86,40.39l9.43-7.27a183.86,183.86,0,0,1-26.55-41.62L37.08,132c17.6,17.2,32.89,36.48,48.1,55.78,4.17,5.29,13.54-1.83,9.43-7.28L56.34,130,37.21,104.7c-5.28-7-13.13-14.59-15.09-23.36l-10,5.83a336.71,336.71,0,0,1,71.18,95l9.42-7.27a270.21,270.21,0,0,1-47.17-58.28l-10.36,6.06A356.58,356.58,0,0,1,57.6,156q5.13,8.63,9.75,17.55,2.1,4,4.09,8.15c.71,1.47,3.93,6.23,3,7.85l8.21-2.15a275.54,275.54,0,0,1-61.18-64l-9.42,7.27a243.6,243.6,0,0,1,29.77,34.07q6.57,9.17,12.3,18.9c3.66,6.23,9.16,13.75,9.15,21.21l9-5.18A171.33,171.33,0,0,1,32.6,156l-9.43,7.27A92.48,92.48,0,0,1,41,197.7l10-5.84-3.43-4.12c-4.94-5.94-13.39,2.59-8.48,8.48Z"/></g><g class="cls-2"><path class="cls-4" d="M211.12,77.86l-3-32L206.7,30.4,206,22.65c-.12-1.29-.25-2.58-.36-3.87-.06-.55-.1-1.1-.14-1.65q.11-3.15-5-1l-1.75-4.24a100.39,100.39,0,0,0,1.85,30c1.37,6.53,12.35,5.19,11.78-1.6-.71-8.55-1.85-18.14-5.79-25.91S195.82,5.28,187.76,5a257.61,257.61,0,0,0-57,4.59c-6.11,1.16-5.3,10,0,11.57,23.16,7.07,48,1.18,71,8.42L205,18c-6.21-1.8-14-4.58-20.54-4-5.88.57-9.15,5.87-7.91,11.48,1.3,5.88,5.64,11.51,9.12,16.28,4.16,5.7,8.72,11.07,13.3,16.42l8.48-8.48a410.64,410.64,0,0,0-35.38-34.18L164.8,25l36.94,26.64c4.11,3,10.65-2,8.82-6.78a87.89,87.89,0,0,0-17.23-28l-7.27,9.42a18.19,18.19,0,0,1,8,9l10-5.84L186.86,13.69c-4.72-4.29-10.9.06-10,5.84C179,33.84,189.36,45,192.21,59l11-4.62a256.76,256.76,0,0,0-25.54-31c-4.27-4.4-8.72-9.38-13.76-12.92-5.5-3.87-12.09-2.47-18.4-2.06-3.83.24-6.88,3.64-5.78,7.59,1.62,5.84,5.48,10,10.09,13.72,5.79,4.67,11.66,9.23,17.48,13.85l35.31,28c5.9,4.67,14.31-3.15,8.49-8.48a446.22,446.22,0,0,0-57.58-44.71c-5.76-3.77-12.05,4.67-7.27,9.42L194.9,76.17c5.52,5.48,13.63-2.77,8.49-8.49Q179.2,40.77,152.9,15.86c-5.6-5.31-14.1,3.16-8.48,8.49q26.27,24.89,50.48,51.82l8.49-8.49L154.7,19.33l-7.27,9.42a427.9,427.9,0,0,1,55.15,42.83l8.49-8.48L178.83,37.56,163.48,25.41c-4.24-3.36-10.68-7-12.21-12.55l-5.79,7.6c2.85-.19,5.73-.51,8.59-.55s3.56.89,5.65,2.82q6.14,5.67,11.87,11.74a237.22,237.22,0,0,1,21.23,26,6,6,0,0,0,11-4.62c-2.86-14.07-13.24-25.27-15.39-39.51l-10,5.84L195.6,37.86c4,3.65,12.41.14,10-5.84A31.28,31.28,0,0,0,192.11,15.9c-6-3.54-11.8,4.46-7.27,9.42A72.12,72.12,0,0,1,199,48.05l8.82-6.77-37-26.64c-5.49-4-12.43,5-7.27,9.43A410.69,410.69,0,0,1,199,58.24c5.27,5.75,13.45-2.67,8.48-8.48-5.65-6.6-11.31-13.21-15.89-20.62-.75-1.2-1.95-4.71-3.08-5.4q-.6-3-2.81,2.25c.81.1,1.61.22,2.41.37a122.1,122.1,0,0,1,13.73,3.22c7.44,2.16,10.53-9.26,3.19-11.57-23.14-7.27-47.94-1.37-71-8.42V21.16a242.81,242.81,0,0,1,44-4.3c4.86,0,15.09-1.79,17.84,3,3.29,5.69,3.95,14.08,4.48,20.48l11.79-1.59a85.71,85.71,0,0,1-1.86-15.39c-.11-4.3,1.88-11.42-.85-15-5.69-7.54-15.52-.84-16,6.82-.27,4.68.74,9.67,1.17,14.33l1.44,15.5,3.07,32.93c.71,7.63,12.71,7.7,12,0Z"/></g><g class="cls-2"><path class="cls-4" d="M193.59,25.27a647.63,647.63,0,0,0,2.26,69c.66,7.64,12.66,7.71,12,0a647.63,647.63,0,0,1-2.26-68.95c.16-7.73-11.84-7.73-12,0Z"/></g><g class="cls-2"><path class="cls-4" d="M194.88,13.07A176.06,176.06,0,0,1,199.76,41q.59,6.75.68,13.52c.05,3.87.38,7.85-1.78,11.23-4.17,6.53,6.21,12.56,10.36,6.06,5.22-8.17,3.61-19.71,2.9-28.88a195.28,195.28,0,0,0-5.47-33C204.54,2.4,193,5.57,194.88,13.07Z"/></g><g class="cls-2"><path class="cls-4" d="M192.8.63C173.36,9.78,151,11.1,130,13.82l5.18,9,.41-.54-5.18,3,.71-.07-4.24-1.76.52.44c5.86,5,14.39-3.49,8.48-8.49-3.88-3.29-8-2.55-11.07,1.39-2.63,3.42.9,9.58,5.19,9,23.29-3,47.37-4.69,68.9-14.83,7-3.28.9-13.63-6-10.36Z"/></g><circle class="cls-1" cx="59.3" cy="54.25" r="33"/><path d="M90.8,54.25A31.5,31.5,0,0,1,35,74.35a31.51,31.51,0,0,1,30.39-51A31.41,31.41,0,0,1,90.8,54.25a1.5,1.5,0,0,0,3,0,34.49,34.49,0,0,0-61.09-22A34.5,34.5,0,0,0,66.23,88.05,34.73,34.73,0,0,0,93.37,59.66a37.81,37.81,0,0,0,.43-5.41A1.5,1.5,0,0,0,90.8,54.25Z"/><circle class="cls-5" cx="157.8" cy="54.75" r="33.5"/><path d="M189.8,54.75a31.87,31.87,0,1,1-.37-5,33,33,0,0,1,.37,5,1.5,1.5,0,0,0,3,0,35,35,0,1,0-64.94,18.13,35,35,0,0,0,64.49-12.54,37.4,37.4,0,0,0,.45-5.59A1.5,1.5,0,0,0,189.8,54.75Z"/><circle class="cls-1" cx="157.3" cy="138.25" r="42"/><path d="M197.8,138.25a40.34,40.34,0,1,1-.48-6.35,40.87,40.87,0,0,1,.48,6.35,1.5,1.5,0,0,0,3,0,43.55,43.55,0,1,0-.54,6.8,45.51,45.51,0,0,0,.54-6.8A1.5,1.5,0,0,0,197.8,138.25Z"/><circle class="cls-1" cx="59.3" cy="138.25" r="42"/><path d="M99.8,138.25A40.5,40.5,0,0,1,28,164,40.51,40.51,0,0,1,67.33,98.54,40.34,40.34,0,0,1,99.8,138.25a1.5,1.5,0,0,0,3,0,43.49,43.49,0,0,0-77-27.73A43.5,43.5,0,0,0,68,180.88a43.8,43.8,0,0,0,34.3-35.83,45.51,45.51,0,0,0,.54-6.8A1.5,1.5,0,0,0,99.8,138.25Z"/><g class="cls-2"><path class="cls-4" d="M55.35,22.07C34.46,28.32,28.19,53.59,35.11,72.43,42.47,92.51,69,91.67,81.85,77.62c13.5-14.74,10.22-41.92-11-47.4C60.78,27.63,51.4,32,47.23,41.45c-3.59,8.18-4.53,19.71,4.64,24.66s23.53,1.23,27.87-8.43c4.76-10.62-5.64-22.1-16.42-16.37-6.82,3.63-.76,14,6.06,10.37-.54.29-.43,1.11-1,1.76a7.33,7.33,0,0,1-3.91,2.22c-1.84.52-5.93,1.28-7.4-.49-3-3.63,2-12.56,5.84-13.52,5.71-1.43,11.85,3.05,14.06,8.1,2.57,5.88,1.15,13.34-2.71,18.34-6.66,8.59-23.69,12.59-28.08-.25-4.12-12.08-1.62-30,12.35-34.2,7.38-2.2,4.23-13.79-3.19-11.57Z"/></g><g class="cls-2"><path class="cls-4" d="M160.76,23.21c-9.07,2.5-19.07,6.39-24.43,14.59-4.63,7.09-5.17,16.44-2.44,24.32,3,8.57,8.88,16.17,17.47,19.54a35.24,35.24,0,0,0,24.62.11c17.91-6.85,23.15-28.8,11.31-43.62-5-6.26-13-10.47-21.13-9.84-8.89.7-14.84,7.23-18,15.12-3.61,9.09-1.84,19.94,9.18,22,7.72,1.45,20.13-1.8,21.72-10.76,1.33-7.55-10.23-10.79-11.57-3.19-.29,1.59-3.66,2-5.12,2.13-3.66.45-4.74-.3-3.69-4,1.45-5.18,4.8-10.19,10.81-9.17,12.4,2.12,16.5,19.94,6.89,27.63-9.25,7.41-24,4.25-29.5-5.93-2.78-5.14-3.91-11.6-1-17,3.36-6.19,11.74-8.63,18-10.37,7.44-2,4.28-13.62-3.19-11.57Z"/></g><g class="cls-2"><path class="cls-4" d="M157.89,92c-14,5.84-27.66,14.37-34,28.81-3.23,7.32-4,15.26-3.38,23.18.57,7.33,1.92,14.79,7.26,20.25,4.89,5,11.91,8,18.12,10.94,7.12,3.38,14.47,6.23,22.36,7.09,9,1,12.65-3.86,16.5-11.19a103.87,103.87,0,0,0,9-21.78,54.9,54.9,0,0,0,1.11-24.15c-1.27-6.66-3.93-14.59-8.25-19.94-9.34-11.56-27.59-6.45-36.56,2.83-9.2,9.51-13.69,27.31-8.11,39.73,3.22,7.16,9.83,8.44,16.86,9.76s14.91,2.85,20.73-2.58c11.21-10.44,7-35-10.33-35.41-8.24-.18-13.29,6.85-11.61,14.75,1.74,8.26,10.6,11.31,17,6,6-4.9-2.56-13.35-8.49-8.48,2-1.61,6,.37,7,2.74,1.13,2.58.65,9.28-1.63,11.37-2.66,2.43-9,.09-12.19-.5-4.39-.84-6.72-1.26-7.32-6.12-1-8.12,1.05-17.53,7.07-23.36,4.66-4.51,15-8.82,19.24-1.75,10.13,16.79,4.16,35.64-4.3,51.57-.59,1.11-1.61,4.21-2.74,5,1.06-.72-.79-.24-1.22-.33-1.19-.25-2.45-.3-3.65-.54a60.2,60.2,0,0,1-13.6-4.71c-6.59-3.06-16.63-6.41-19-14-3-9.29-2.06-21.06,3.13-29.33,5.52-8.8,14.89-14.41,24.28-18.31,7-2.92,3.94-14.54-3.19-11.57Z"/></g><g class="cls-2"><path class="cls-4" d="M69.82,92.63C45.91,96.64,22,111.52,16,136.48c-2.6,10.9-.88,23.41,9.46,29.67,10.76,6.53,26.91,4.6,38.69,2.13,10.84-2.27,24.76-8.35,30.93-18,5.89-9.24,4.85-21.94-1.92-30.4-15.35-19.18-47.75-10-53.59,13-1.44,5.69-.51,12.15,4.52,15.77,5.49,4,13.31,2.9,19.32.76s11.8-6.32,11-13.36c-.8-7.29-8.34-9.62-14.72-9.1-7.65.62-7.71,12.62,0,12a17.11,17.11,0,0,0,2.7,0l.94.11c.18-2.25-.23-3-1.21-2.15-1.09,0-3.39,1.48-4.58,1.78-2.8.71-7,2-6.55-1.95.77-6.25,7.24-12.09,12.78-14.25C76,117.7,92,128.7,85.73,142.38c-2.82,6.16-10.9,9.44-16.78,11.87-7.54,3.13-15.73,3.67-23.8,3.93-7.21.23-16.25-.54-18-9-1.36-6.6,1.19-13.93,4.44-19.61C40.21,114.45,56.48,107,73,104.2c7.6-1.28,4.38-12.84-3.19-11.57Z"/></g></g></g></svg>