<svg xmlns="http://www.w3.org/2000/svg" viewBox="0 0 145.21 189.87"><defs><style>.cls-1{fill:#fff;}.cls-2{opacity:0.44;}.cls-3{fill:#c69c6d;}</style></defs><g id="Layer_2" data-name="Layer 2"><g id="kozijnen2"><polygon class="cls-1" points="135.72 172 102.72 189 2.72 137 1.72 0 55.72 0 55.72 95 123.72 127 142.72 121 143.72 147 135.72 151 135.72 172"/><g class="cls-2"><path class="cls-3" d="M11.14,22.09c8.47-.24,15.18-4.36,22.79-7.51a25.66,25.66,0,0,1,11.59-2.16,24.32,24.32,0,0,1,6.25,1.24c.93.32,4.3,1.29,4.78,2.12l-.61-4.62q2.81-2.45.41-1.68L53.43,10l-3.88.67L38.86,12.52,18.47,16.07c-7.09,1.23-4.7,11.26,1.59,11.79a109.08,109.08,0,0,0,32.53-2.25L45,19.82Q46.28,59,45.7,98.21l9-5.18c-1.92-1.12-2-5.83-2.34-7.74-.68-3.67-1.3-7.36-1.89-11.05-1.18-7.39-2.23-14.79-3.39-22.18C44.78,37.33,41.92,22.7,36.94,8.62a6,6,0,0,0-11.57,3.19L38.22,75.6c1.4,7,11.35,4.81,11.78-1.6,1.26-18.68,0-37.27-2.84-55.76-1-6.62-12.41-5.14-11.78,1.6C36.63,33.17,37.78,46.5,37,59.9l11.79-1.6A127,127,0,0,0,37.66,29.13c-2.86-5.4-11.1-2.72-11.18,3C26.16,53.75,36.14,74,34.94,95.63L46.73,94A514,514,0,0,0,33.25,38.9c-1.88-6.17-12.51-5.41-11.79,1.59L25.66,81l11.79-1.59C34.65,60.29,33.68,41,32.69,21.78c-.39-7.67-12.34-7.74-12,0l1.36,30.81L33.83,51l-6.9-28c-1.34-5.42-10.68-6-11.57,0L13.9,32.83H25.47C24,28,22.39,23.19,20.52,18.47c-2.21-5.61-9.38-5.73-11.57,0l-2.4,6.29H18.12L14.49,13.9c-2-6.11-12.16-5.5-11.78,1.6L6.77,92.29c.34,6.32,10.82,8.65,11.79,1.59A460.19,460.19,0,0,0,23,32l-11.78,1.6a234.26,234.26,0,0,1,1,71.17H23.74a322,322,0,0,0-6-32.32C16,65.66,6.39,67.55,5.93,74.08l-1.5,21.3h12a403.16,403.16,0,0,1-1.68-40.82h-12A196.27,196.27,0,0,1,1,113.37L12.75,115l2.08-17h-12C1.89,108.67.27,119.56,0,130.3c-.24,9.9,10,13.4,17.27,17.68,3,1.76,8.25.33,8.82-3.59,1-6.69-1.39-12-3.29-18.36a114.36,114.36,0,0,1-4.11-19.46c-.91-7.54-12.84-7.71-12,0Q8.37,122,11.11,137.32l11.58-3.19a158.27,158.27,0,0,1-4-24.18L7.47,113q8,15,14.78,30.48c2.45,5.62,11.28,2.58,11.18-3a223.11,223.11,0,0,0-5.36-44.37L16.5,99.27a110.24,110.24,0,0,1,5.05,27.11c.43,7.66,11.93,7.79,12,0q.12-14.73-.48-29.45l-11.78,1.6a159.56,159.56,0,0,1,6.48,26c.92,5.67,10.79,5.8,11.57,0a109.06,109.06,0,0,0-1.56-39.08C36.05,77.8,25,81.18,26.21,88.65l4.25,26.41c1.08,6.64,12.27,5.14,11.79-1.59A96.41,96.41,0,0,0,31.19,74.75c-2.64-5-11.89-3-11.18,3a271.67,271.67,0,0,0,8.51,42.85,6.06,6.06,0,0,0,10,2.65,9.89,9.89,0,0,1,12.62-1.11c4.11,2.61,10.81-1.82,8.81-6.77A168.15,168.15,0,0,0,48.44,92c-4.08-6.81-13.33-.85-10.36,6.06L50.92,128l9.43-7.27A157.68,157.68,0,0,1,43.27,93.94c-3.54-7-13.55-.86-10.36,6.06q7.23,15.68,15.56,30.82c3.56,6.45,11.85,1.63,11-4.63q-2.05-14.72-4.84-29.32l-10,5.84q12,13.56,23.54,27.61c4.3,5.25,13.18-1.62,9.42-7.27-6.29-9.48-13-18.66-20-27.63l-8.49,8.49c13,12.84,30.65,19.63,43.54,32.58l2.65-10c-7.36,2.27-17.21-6.07-23.19-9.5L47.86,103c-6.21-3.56-11.46,4.35-7.28,9.43l13,15.77c3.6,4.37,7,8.61,8,14.32l10-5.84A102.36,102.36,0,0,0,44,117.14c-4.12-2-11,1.45-8.82,6.78A77.68,77.68,0,0,0,43,138.75l10.36-6.06a97.43,97.43,0,0,0-16.67-17.64c-6-4.93-13.27,2.42-8.49,8.48l10.14,12.85,4.25-10.24A10.3,10.3,0,0,1,34.8,123c-4.32-4.24-11.5,0-10,5.84a60.31,60.31,0,0,0,8.51,19.08c4.29,6.34,14.56.51,10.37-6.06-3.7-5.79-9.15-12.19-16.84-10.67s-10.95,9.28-6.29,15.66c4.42,6,12.19,8.37,19.09,10.18a52.76,52.76,0,0,1,20,9.47c6.07,4.67,11.85,9.49,19,12.39s13.66,4.3,19.92,8.91c7.23,5.33,15.29-.22,14.57-8.82A38.54,38.54,0,0,0,104,157.41c-2.82-3.17-9.29-1.76-10,2.65l-1.18,7.11,10-2.65a7.72,7.72,0,0,1-1.45-5.34l-11.79,1.59,2.93,12,11.57-3.19a102.57,102.57,0,0,0-14-27.28c-4.5-6.19-14.91-.21-10.36,6.05a92.16,92.16,0,0,1,12.84,24.42c2.48,7.25,13.41,4.38,11.57-3.19l-2.93-12c-1.62-6.7-11.62-5.07-11.78,1.6-.13,5.36,1.68,9.68,5,13.83,2.69,3.4,9.32,1.58,10-2.65l1.19-7.11-10,2.65a20.37,20.37,0,0,1,4,7.79c.4,1.29.75,2.6,1.07,3.91l.38,1.56c.12,1.92.6,1.65,1.46-.81l4.62.6c-3.46-1.61-6.16-4.55-9.77-6.14s-7.51-2.7-11.3-4c-8.14-2.73-14.27-8.15-21-13.22S51,147.6,42.8,145.44c-1.92-.5-3.85-1-5.72-1.63-1.66-.58-3.44-2-5.07-2.42-1.24-1.52-2.28-1-3.14,1.57a1.11,1.11,0,0,1,1.06.57c.81,1.47,2.41,2.89,3.35,4.37l10.37-6.06a50.49,50.49,0,0,1-7.31-16.21l-10,5.84a22.58,22.58,0,0,0,16.28,6.67c5.65,0,7.31-6.36,4.24-10.24L36.69,115.05l-8.49,8.48A85.64,85.64,0,0,1,43,138.75c4.51,6.07,14.81.4,10.36-6.06a65,65,0,0,1-6.65-12L37.9,127.5a92.49,92.49,0,0,1,25.26,17.69c4.54,4.49,11-.19,10-5.83-1.16-6.59-4.88-11.91-9-17-5-6.19-10.09-12.24-15.14-18.36l-7.27,9.42L71.06,130.2C79.44,135,88.42,141.13,98.48,138a6.06,6.06,0,0,0,2.65-10C88.2,115,70.6,108.24,57.59,95.42c-5.67-5.58-13.1,2.57-8.49,8.49,6.36,8.16,12.36,16.58,18.08,25.19l9.42-7.27q-11.49-14-23.54-27.61c-4.3-4.84-11.06.43-10,5.84q2.79,14.61,4.84,29.32l11-4.62Q50.5,109.63,43.27,93.94L32.91,100a172.68,172.68,0,0,0,19,29.19c4.63,5.8,11.85-1.62,9.42-7.27L48.44,92,38.08,98.06a148.11,148.11,0,0,1,10.33,20.52l8.81-6.78a22,22,0,0,0-27.16,3l10,2.64A251.48,251.48,0,0,1,32,77.77l-11.18,3a81.9,81.9,0,0,1,9.42,32.67L42,111.87,37.78,85.46,26.21,88.65a92.46,92.46,0,0,1,1.56,32.7H39.34a158.54,158.54,0,0,0-6.48-26c-2.08-6.12-12.07-5.51-11.79,1.59q.6,14.73.48,29.45h12a124,124,0,0,0-5.48-30.31c-2.32-7.37-13.25-4.35-11.57,3.2a206.61,206.61,0,0,1,4.93,41.17l11.18-3q-6.81-15.52-14.77-30.49c-2.7-5.06-11.7-3-11.18,3a180.92,180.92,0,0,0,4.45,27.37c1.86,7.6,12.93,4.3,11.58-3.19q-2.49-13.71-4-27.56h-12A139.33,139.33,0,0,0,9.79,124q1,3.91,2.24,7.76c.89,2.72,2.91,6.49,2.48,9.41l8.82-3.58c-3.06-1.8-6.09-3.66-9.18-5.4-2.23-1.25-1.77-.69-2.1-2.64s.43-4.84.61-6.92L14.83,98c.68-7.78-11.09-7.5-12,0L.75,115c-.81,6.67,10.56,8.23,11.79,1.6a206.66,206.66,0,0,0,2.21-62c-.88-7.47-11.93-7.94-12,0A403.16,403.16,0,0,0,4.43,95.38c.71,7.65,11.45,7.78,12,0l1.5-21.3L6.14,75.68a324.81,324.81,0,0,1,6,32.32c.85,5.71,10.76,5.76,11.57,0a253,253,0,0,0-1-77.55C21.61,23.65,11,25.44,11,32A437.44,437.44,0,0,1,7,90.69l11.78,1.6L14.71,15.5,2.92,17.09,6.55,28c2,5.86,9.48,5.5,11.57,0l2.4-6.29H9c1.86,4.72,3.51,9.49,5,14.36,1.54,5.21,10.65,6.19,11.57,0l1.46-9.82H15.36l6.9,28c1.6,6.5,12.08,5.24,11.79-1.59L32.69,21.78h-12c1,20.33,2.23,40.62,5.18,60.78,1,6.62,12.49,5.13,11.79-1.6l-4.2-40.47-11.78,1.6A516.34,516.34,0,0,1,35.16,97.22c1.3,7,11.43,4.84,11.78-1.59C48.15,74,38.16,53.72,38.48,32.16l-11.18,3a113.6,113.6,0,0,1,10,26.3c1.67,6.8,11.42,5,11.79-1.59.74-13.4-.41-26.73-1.66-40.06L35.59,21.43A242.8,242.8,0,0,1,38,74l11.79-1.59L36.94,8.62,25.37,11.81c5.61,15.86,8.5,32.4,11,49,1.22,8,2.37,16,3.77,24,1.2,6.92,1.85,14.69,8.51,18.59a6.06,6.06,0,0,0,9-5.18Q58.29,59,57,19.82A6.08,6.08,0,0,0,49.4,14a97.67,97.67,0,0,1-29.34,1.83l1.6,11.78,34-5.91c4-.7,8.9-1.09,11.13-5.05S67,8.55,63.55,6.18C56.15,1,46.32-.54,37.56,1c-9.22,1.62-17,8.82-26.42,9.09-7.71.22-7.74,12.22,0,12Z"/></g><g class="cls-2"><path class="cls-3" d="M40.46,146.62c7.71,3.38,15.29,7,22.73,10.92,6.69,3.52,13.64,6.9,18.75,12.61l8.48-8.48a262.8,262.8,0,0,0-27.29-26.41L58.89,145.5c2.21,0,4.58,2.57,6.24,3.82,2.38,1.8,4.71,3.67,7.06,5.52l13.6,10.74c4.85,3.82,13.69-1.16,9.43-7.27-7.39-10.59-15.73-21-21.89-32.33l-5.18,9-1-.47,2,2.05,2.67,2.74,6.67,6.84,12.68,13c4.61,4.73,13.62-1.7,9.43-7.27l-13.8-18.32-8.21,8.21c4.85,2.22,8.08,7.34,11.67,11.13,4.28,4.53,8.78,8.82,13.44,13,4,3.54,12.53.19,10-5.83a46.06,46.06,0,0,0-10.51-15.85c-5.18-5-12.07,1.29-9.43,7.28a92.45,92.45,0,0,0,11.15,18.85c4.66,6.12,13.59,1.09,10.36-6l-10.86-24L94.06,146.3a60.52,60.52,0,0,0,8.82,10.34c4,3.71,12.39.11,10-5.84A286.6,286.6,0,0,0,98.52,121l-9.43,7.27A193,193,0,0,0,103,142.39c4.83,4.43,13.28-1.3,9.43-7.27s-8.06-12.31-13.76-16.91c-6.06-4.89-14.08-5.81-19.86-11l-7.27,9.43c6.38,3.3,11.3,8.68,17.4,12.44,6.42,4,13.53,6.69,20.54,9.42,6.76,2.65,9.75-7.31,4.62-11a120.87,120.87,0,0,1-11.6-9.46l-7.27,9.43,13,9.83c3.76,2.85,7.52,6.49,11.8,8.53,8.9,4.24,16.22-2.49,20.8-9.53,2.47-3.8-.76-9.13-5.18-9a49.93,49.93,0,0,1-15.88-2.15v11.57A54,54,0,0,1,138.27,134l-6-6c.07,4,1,9.34.26,13.3l2.76-3.59c-3.2,2.12-8.06,3-11.8,3.72-1.89.39-3.8.71-5.72.91-1.23.13-2.46.22-3.7.28q-3.46-.06-.44.3l3,5.18-.51,1.47,1.31-2.24,2.17-3.73c2.53-4.35-1.7-10.5-6.77-8.82A28.37,28.37,0,0,0,99,144.13c-2.64,3.37-2.14,8.82,2.65,10a74.13,74.13,0,0,0,20.11,2.29l-5.18-9q-4.74,7.63-10.1,14.86c-4,5.46,3.47,10.21,8.21,8.21a122.28,122.28,0,0,0,12.58-6.2l-8.21-8.21a36.48,36.48,0,0,1-9.14,8.25c-6,3.86-2,12,4.62,11a37,37,0,0,0,12.66-4.58l-7.27-9.42a24.37,24.37,0,0,1-11.43,6.63l3.19,11.57a83.15,83.15,0,0,0,13.4-7l-6-10.37a13.94,13.94,0,0,0-4.91,5.62c-2.76,6.28,4,11.72,9.42,7.28,6.79-5.55,7-14.25,6.05-22.28l-11.79,1.59a47.2,47.2,0,0,0,4.06,8.18c3,4.66,11.67,3.26,11.18-3l-.69-9-11.78,1.6,3.32,15.29c1.41,6.53,12.29,5.2,11.78-1.59a77.42,77.42,0,0,0-1.51-10.5l-11.57,3.19a57,57,0,0,1,1.66,11.32l11.79-1.6-1.73-6.14c-2.09-7.42-13.67-4.27-11.57,3.19l1.72,6.14c1.79,6.37,12.1,5.32,11.79-1.59a73.28,73.28,0,0,0-2.09-14.51c-1.86-7.52-13.2-4.33-11.57,3.19a53,53,0,0,1,1.08,7.31l11.79-1.6-3.32-15.29c-1.42-6.53-12.31-5.2-11.79,1.59l.69,9,11.18-3a30.43,30.43,0,0,1-2.84-5.31c-2.25-5.67-12.68-5.72-11.79,1.6.59,4.85,1.67,10.36-2.53,13.79l9.42,7.27.6-1.31c6-4.51.55-14.69-6-10.37a66.17,66.17,0,0,1-10.54,5.78c-6.87,2.9-4.52,13.63,3.19,11.57a36.41,36.41,0,0,0,16.73-9.72c4.78-4.84-1.32-12.83-7.28-9.42a28,28,0,0,1-9.79,3.37l4.63,11a53.33,53.33,0,0,0,13.44-12.55c3.87-5-3.41-10.93-8.21-8.21a120.19,120.19,0,0,1-12.58,6.19l8.21,8.21q5.36-7.23,10.1-14.86a6,6,0,0,0-5.18-9,61.46,61.46,0,0,1-16.92-1.86l2.65,10a17.34,17.34,0,0,1,8.49-6.28l-6.78-8.81c-2.49,4.27-7.22,10.1-2.85,14.8,4,4.31,12.61,2,17.59,1.17,5.57-.93,13.57-2.19,18-5.91,2.46-2.05,2.51-4.75,2.53-7.73,0-4-.14-7.92-.21-11.87a6.11,6.11,0,0,0-6-6,64.11,64.11,0,0,0-21.73,3.21c-5.58,1.84-5.81,9.82,0,11.57a60.66,60.66,0,0,0,19.07,2.58l-5.18-9c-1.13,1.74-2.8,5-5.14,4.78s-5.51-3.88-7.23-5.19l-16.77-12.73c-5.44-4.12-12.23,4.86-7.27,9.43a145.23,145.23,0,0,0,14,11.33l4.63-11c-6.58-2.57-13.17-5.21-19.09-9.12-5.52-3.63-10.07-8.48-16-11.54S65,111,70.33,115.74a35.57,35.57,0,0,0,9.59,6.33c3,1.32,6.25,2.11,9.07,3.87,5.73,3.59,9.49,9.69,13.07,15.24l9.43-7.27a197.12,197.12,0,0,1-13.91-14.12c-4.67-5.24-12.56,1.44-9.43,7.27,4.74,8.8,9.5,17.63,13.19,26.93l10-5.84a46.31,46.31,0,0,1-7-7.91c-4.42-6.45-13.53-.94-10.36,6.06l10.86,24,10.36-6a92.29,92.29,0,0,1-11.14-18.86l-9.43,7.27a31.64,31.64,0,0,1,7.43,10.55l10-5.84c-5.12-4.55-10-9.3-14.72-14.32-3.93-4.22-7.42-9.18-12.81-11.64-4.76-2.17-12.24,2.86-8.21,8.21L90.21,158l9.43-7.27-16-16.42c-4-4.05-9-11.92-15.47-11.26-4.5.46-7.51,4.75-5.18,9,6.16,11.35,14.5,21.74,21.89,32.32l9.42-7.27c-6-4.76-12.07-9.55-18.12-14.29-5.07-4-10.43-9.36-17.27-9.3-4.84.05-8.39,6.78-4.24,10.25a263.73,263.73,0,0,1,27.29,26.4c5.16,5.77,13.62-2.74,8.48-8.48-5.38-6-12.48-9.87-19.52-13.62q-12-6.37-24.38-11.79c-7-3.08-13.12,7.26-6.06,10.36Z"/></g><g class="cls-2"><path class="cls-3" d="M34,111.35c-1.21-14.26-2.56-28.51-3-42.82-.22-7.24-.18-14.47.19-21.71.18-3.61.43-7.21.72-10.81.15-2,.32-3.93.49-5.89,0-.53.69-4.76.07-3.58L24.26,28.7l.29.2L22.4,20.69l-.13.24C18.66,27.75,29,33.82,32.63,27l.13-.24a6.17,6.17,0,0,0-2.15-8.21l-.29-.21c-2.57-1.79-6.8-.55-8.21,2.16-1.55,3-1.43,6.34-1.71,9.63-.34,3.93-.67,7.85-.92,11.79-.52,7.88-.73,15.76-.56,23.66.33,15.29,1.8,30.54,3.09,45.78.65,7.63,12.66,7.7,12,0Z"/></g><g class="cls-2"><path class="cls-3" d="M27.94,121.26c13.54,4.46,25.36,12.5,37.63,19.56a177.57,177.57,0,0,0,38.83,16.61c7.43,2.17,10.6-9.4,3.19-11.57a171.5,171.5,0,0,1-39-17.18c-12.12-7.13-24-14.57-37.44-19-7.35-2.42-10.51,9.16-3.19,11.57Z"/></g><g class="cls-2"><path class="cls-3" d="M50.13,107.62a257.32,257.32,0,0,1,33.4,17.47c10,6.08,20.14,11.46,32,12.17,6.79.4,8.1-10.14,1.59-11.79l-.33,0c-5.76-5.11-14.27,3.35-8.49,8.49a12.81,12.81,0,0,0,5.63,3.12l1.6-11.78c-10.76-.64-20-6.88-28.89-12.33A234.15,234.15,0,0,0,56.19,97.26c-3-1.27-6.39-.87-8.21,2.15-1.5,2.51-.82,7,2.15,8.21Z"/></g><g class="cls-2"><path class="cls-3" d="M50.6,100.46c6.28-2.07,5.45-8.21,5.38-13.71-.08-6.76-.42-13.51-.78-20.26-.72-13.49-1.48-27-.78-40.49.4-7.72-11.6-7.69-12,0a321.84,321.84,0,0,0,.42,33.74c.29,5.47.61,10.93.84,16.4.1,2.57.19,5.14.25,7.72s.75,6.48,0,9l4.19-4.19-.68.23c-7.3,2.41-4.17,14,3.19,11.57Z"/></g><g class="cls-2"><path class="cls-3" d="M115.31,132.4c-1.22,6.33.23,12.55,1.52,18.77,1.4,6.78,11.65,5,11.78-1.59l.27-12.94-11.18,3a89.94,89.94,0,0,1,4,10.55c1.33,4,5.16,5.16,8.81,3.58s3.68-6,3.65-9.44a91.72,91.72,0,0,0-1-11.93l-11,4.63c2.35,4.26,2.78,9.45,4.79,13.93,2.61,5.81,10.93,2.38,11.18-3a69.34,69.34,0,0,0-1-14.74L128.33,140c-.88-1.21-1-1.21-.29,0l1.12,2.47,2.22,4.93c1.08,2.38,4.42,3.41,6.78,2.76,2.71-.74,4.15-3.13,4.4-5.79a48.76,48.76,0,0,0,0-10l-10.24,4.24,1.15,1c1.5,1.95,3.36,3.26,6,2.86,2.12-.32,4.63-2,5-4.29a21.29,21.29,0,0,0-.42-9.59,6.06,6.06,0,0,0-8.81-3.58,6.6,6.6,0,0,0-2.8,2.88c-3.26,6.95,7.08,13,10.36,6l-1.5,1.43-8.82-3.59a7.31,7.31,0,0,1,.42,3.21l11-1.44a23.11,23.11,0,0,0-3-3.45c-3.49-3.08-10.81-1.34-10.24,4.25a48.76,48.76,0,0,1,0,10l11.18-3c-1.86-4.13-3.22-9.31-7.35-11.7-4.89-2.83-9.64,1.82-8.82,6.78a54.42,54.42,0,0,1,.57,11.55l11.18-3c-2-4.53-2.35-9.49-4.79-13.93a6,6,0,0,0-7.49-2.45c-3,1.25-3.89,4.06-3.48,7.07.43,3.16,1.48,8.1.57,11.21l2.76-3.58-.45.19,8.81,3.59a114.81,114.81,0,0,0-5.19-13.42c-2.68-5.62-11.07-2.55-11.18,3l-.27,12.94L128.4,148c-.8-3.89-2.28-8.41-1.52-12.39,1.45-7.55-10.11-10.78-11.57-3.19Z"/></g><g class="cls-2"><path class="cls-3" d="M99.74,164.25l3.66,19.11c1.26,6.63,12.12,5.14,11.78-1.59-.38-7.55-.94-15.13-.92-22.69L104,163.32c1.55,1.81,1.88,4.45,2.7,6.63a21.8,21.8,0,0,0,4.14,7c3.64,4.16,10,.59,10.24-4.25a157.7,157.7,0,0,0,.05-15.83l-11.79,1.6c1.94,5.47,3.4,11.07,4.81,16.7,1.7,6.83,11.35,4.93,11.78-1.6s-.83-12.85-2.22-19.17l-11,4.62a56,56,0,0,1,4.34,11c1.84,6.58,11.59,5.15,11.78-1.6l.28-9.78-11.18,3,4.77,9.51c3,5.89,10.57,2.27,11.18-3a57.42,57.42,0,0,1,1.14-6.37l-11,1.43,2.66,5.06c2.81,5.37,11.17,2.75,11.18-3v-7.71c0-7.73-12-7.74-12,0v7.71l11.18-3-2.66-5.05c-2.35-4.5-9.83-3.54-11,1.43a88.17,88.17,0,0,0-1.57,9.56l11.18-3-4.76-9.5c-2.79-5.56-11-2.59-11.19,3l-.28,9.78,11.79-1.59a71.08,71.08,0,0,0-5.55-13.91c-3.26-6.24-12.38-1.79-11,4.63,1.18,5.33,2.15,10.5,1.79,16L125.74,172c-1.41-5.63-2.87-11.23-4.8-16.7-2.14-6-12.12-5.56-11.79,1.59a157.7,157.7,0,0,1-.05,15.83l10.24-4.24c-1.57-1.8-1.9-4.43-2.72-6.61a22.17,22.17,0,0,0-4.12-7c-3.49-4.05-10.23-.7-10.24,4.24,0,7.56.54,15.14.92,22.69l11.79-1.6-3.65-19.11c-1.45-7.58-13-4.37-11.58,3.19Z"/></g><path d="M3.74,137.61V16a1.5,1.5,0,0,0-3,0V137.61a1.5,1.5,0,0,0,3,0Z"/><path d="M23.74,133.61V21.1a1.5,1.5,0,0,0-3,0V133.61a1.5,1.5,0,0,0,3,0Z"/><path d="M34.74,110.61V19.1a1.5,1.5,0,0,0-3,0v91.51a1.5,1.5,0,0,0,3,0Z"/><path d="M47.74,100.61V23.1a1.5,1.5,0,0,0-3,0v77.51a1.5,1.5,0,0,0,3,0Z"/><path d="M56.74,94.61V21.1a1.5,1.5,0,0,0-3,0V94.61a1.5,1.5,0,0,0,3,0Z"/><path d="M102.68,186.81,25.36,147.12,3.58,135.94l-1.51,2.59,3.44,1.77L7,137.71l-1.76-.91-1.52,2.59L20,147.76c1.71.88,3.23-1.71,1.51-2.59L5.26,136.8c-1.72-.88-3.24,1.71-1.52,2.59l1.77.91c1.71.88,3.23-1.71,1.51-2.59l-3.44-1.77c-1.71-.88-3.23,1.71-1.51,2.59l77.32,39.69,21.77,11.18c1.72.88,3.24-1.71,1.52-2.59Z"/><path d="M103.38,172.9,41.32,141l-17.74-9.1-1.51,2.59L24.84,136l1.51-2.59-1.42-.73-1.51,2.6L36.54,142c1.71.88,3.23-1.71,1.51-2.59l-13.12-6.74c-1.71-.88-3.23,1.71-1.51,2.6l1.42.72c1.71.88,3.23-1.7,1.51-2.59l-2.77-1.42c-1.71-.88-3.23,1.71-1.51,2.59l62.06,31.86,17.73,9.1c1.72.88,3.24-1.71,1.52-2.59Z"/><path d="M105.38,156.9,43.32,125l-17.74-9.1-1.51,2.59L26.84,120l1.51-2.59-1.42-.73-1.51,2.6L38.54,126c1.71.88,3.23-1.71,1.51-2.59l-13.12-6.74c-1.71-.88-3.23,1.71-1.51,2.6l1.42.72c1.71.88,3.23-1.7,1.51-2.59l-2.77-1.42c-1.71-.88-3.23,1.71-1.51,2.59l62.06,31.86,17.73,9.1c1.72.88,3.24-1.71,1.52-2.59Z"/><path d="M116,148.67,53,118.73l-18-8.56-1.52,2.59,2.81,1.34,1.51-2.59-1.44-.69-1.51,2.59,13.32,6.33c1.74.83,3.26-1.76,1.52-2.59l-13.33-6.33c-1.73-.82-3.26,1.76-1.51,2.59l1.44.69c1.74.82,3.26-1.76,1.51-2.59L35,110.17c-1.74-.82-3.26,1.76-1.52,2.59l63,30,18,8.55c1.74.82,3.26-1.76,1.51-2.59Z"/><path d="M115.29,132.64,62,107.33,47,100.17l-1.52,2.59,2.37,1.13,1.51-2.59-1.21-.58-1.51,2.59,11.23,5.34c1.73.83,3.26-1.76,1.51-2.59l-11.23-5.34c-1.74-.82-3.26,1.76-1.51,2.59l1.21.58c1.74.82,3.26-1.76,1.51-2.59L47,100.17c-1.74-.82-3.26,1.76-1.52,2.59l53.26,25.31,15.06,7.16c1.74.82,3.26-1.76,1.51-2.59Z"/><path d="M124.29,126.64,71,101.33,56,94.17l-1.52,2.59,2.37,1.13,1.51-2.59-1.21-.58-1.51,2.59,11.23,5.34c1.73.83,3.26-1.76,1.51-2.59L57.13,94.72c-1.74-.82-3.26,1.76-1.51,2.59l1.21.58c1.74.82,3.26-1.76,1.51-2.59L56,94.17c-1.74-.82-3.26,1.76-1.52,2.59l53.26,25.31,15.06,7.16c1.74.82,3.26-1.76,1.51-2.59Z"/><path d="M25.66,117.75l7.73-5.15A1.5,1.5,0,0,0,31.88,110l-7.73,5.15a1.53,1.53,0,0,0-.54,2.06,1.51,1.51,0,0,0,2.05.53Z"/><path d="M49.31,101.77a30.85,30.85,0,0,1,2.37-2.2l.6-.49.18-.14s.21-.17,0,0,0,0,0,0l.18-.14c.44-.32.89-.64,1.34-.94a1.5,1.5,0,1,0-1.51-2.59,32.9,32.9,0,0,0-5.34,4.43,1.5,1.5,0,1,0,2.12,2.12Z"/><path d="M126.67,125.93V78.25a1.5,1.5,0,0,0-3,0v47.68a1.5,1.5,0,0,0,3,0Z"/><path d="M136.06,121.53v-49a1.5,1.5,0,0,0-3,0v49a1.5,1.5,0,0,0,3,0Z"/><path d="M102.64,36.89,56.49,17.65c-1.78-.75-2.55,2.16-.79,2.89l46.14,19.24c1.78.74,2.56-2.16.8-2.89Z"/><path d="M110.64,31.89,64.49,12.65c-1.78-.75-2.55,2.16-.79,2.89l46.14,19.24c1.78.74,2.56-2.16.8-2.89Z"/><path d="M126.21,77.34l-22.6-39.05A1.5,1.5,0,0,0,101,39.81l22.6,39.05a1.5,1.5,0,0,0,2.59-1.52Z"/><path d="M135.21,72.34l-22.6-39.05A1.5,1.5,0,0,0,110,34.81l22.6,39.05a1.5,1.5,0,0,0,2.59-1.52Z"/><path d="M102.56,70.94a29,29,0,0,0-3.2-5.8l-3.79-5.9A1.51,1.51,0,0,0,93,60.76l3.67,5.7a26.12,26.12,0,0,1,3,5.28,1.54,1.54,0,0,0,1.85,1,1.51,1.51,0,0,0,1-1.84Z"/><path d="M73.9,53.87q5.94,7.91,11.82,15.85,2.85,3.89,5.67,7.8A33,33,0,0,1,96,85.33c.65,1.8,3.55,1,2.9-.8a32.35,32.35,0,0,0-4.39-7.74c-2-2.74-4-5.47-5.94-8.18-4-5.45-8-10.85-12.11-16.26-1.14-1.52-3.75,0-2.59,1.52Z"/><path d="M144.1,147V120.57a1.5,1.5,0,0,0-3,0V147a1.5,1.5,0,0,0,3,0Z"/><path d="M137.21,169.59V151.78a1.5,1.5,0,0,0-3,0v17.81a1.5,1.5,0,0,0,3,0Z"/><path d="M135.46,153.22l9-4.67A1.5,1.5,0,0,0,143,146l-9,4.67a1.5,1.5,0,1,0,1.51,2.59Z"/><path d="M103.68,189.71c1.29-.5,2.57-1,3.85-1.53a29.44,29.44,0,0,0,3.41-1.47c1.08-.63,1-1.55,1.33-2.6a4.7,4.7,0,0,1,2-2.26c2-1.25,4.34-1.71,6.43-2.73,2.24-1.08,4.28-2.59,6.62-3.47,1.79-.68,1-3.58-.8-2.89a53.88,53.88,0,0,0-6.41,3.3c-2.15,1.16-4.56,1.69-6.72,2.83a8,8,0,0,0-4.06,4.59c-.21.76.16.62-.62,1-.58.26-1.17.51-1.76.75-1.34.57-2.69,1.1-4.06,1.62-1.78.68-1,3.59.8,2.9Z"/><path d="M134.27,170.26q-.32.36-.66.69l-.37.34-.17.15-.11.09c.16-.13,0,0-.07.05l-.23.16-.37.26c-.28.18-.57.36-.87.53-1.19.68-2.44,1.24-3.68,1.82a1.51,1.51,0,0,0-.54,2.05,1.54,1.54,0,0,0,2,.54c2.55-1.2,5.27-2.37,7.14-4.56a1.5,1.5,0,0,0-2.12-2.12Z"/></g></g></svg>