<svg xmlns="http://www.w3.org/2000/svg" viewBox="0 0 122.02 188.46"><defs><style>.cls-1{fill:#fff;}.cls-2{opacity:0.44;}.cls-3{fill:#4d4d4d;}.cls-4{fill:#c69c6d;}</style></defs><g id="Layer_2" data-name="Layer 2"><g id="kozijnen"><polygon class="cls-1" points="108.58 184.45 73.58 187.45 71.58 156.45 92.58 126.45 119.58 127.45 120.58 157.45 114.58 162.45 114.58 182.45 108.58 184.45"/><path class="cls-1" d="M74.08,187,6.27,168H4.08V3h53V121l43,6.93c-1.58,3-2,.74-5,10-1.26,7.54-.31,7.72,0,12l-21,10Z"/><path d="M74.48,185.5l-24.29-6.8-37-10.37-5.33-1.5a13,13,0,0,0-3.76-.38l1.5,1.5V9.63c0-2.09.2-4.3,0-6.39V3l-1.5,1.5h53L55.58,3V106.48c0,4.76-.19,9.58,0,14.34a1.33,1.33,0,0,1,0,.2,1.52,1.52,0,0,0,1.11,1.45l14.47,2.33,23.22,3.74,5.31.86-.9-2.21c-.16.3-.34.58-.52.87-.09.13-.2.26,0,.05a3.88,3.88,0,0,1-.26.31c-.34.38-.69.76-1,1.18a20,20,0,0,0-2.44,5.29A26.38,26.38,0,0,0,93,144.33c0,1.89.49,3.74.63,5.62l.75-1.3L76,157.4l-2.63,1.25a1.5,1.5,0,0,0-.75,1.3v27a1.5,1.5,0,0,0,3,0V160l-.74,1.29,18.37-8.74,2.63-1.26a1.43,1.43,0,0,0,.74-1.29c-.14-1.85-.56-3.61-.63-5.4a24.09,24.09,0,0,1,1.47-8.86,25.92,25.92,0,0,1,1.25-3.09,10.45,10.45,0,0,1,.51-.93c.08-.13.16-.25.25-.37s-.17.2,0-.05a16.29,16.29,0,0,0,1.92-2.54,1.52,1.52,0,0,0-.9-2.21L86,124.17l-23.22-3.74-5.31-.85,1.1,1.44V17.5c0-4.77.2-9.59,0-14.35V3a1.52,1.52,0,0,0-1.5-1.5h-53A1.52,1.52,0,0,0,2.58,3V147.64c0,6.66-.19,13.36,0,20a2.81,2.81,0,0,1,0,.29,1.52,1.52,0,0,0,1.5,1.5c.61,0,1.23,0,1.84,0s-.27-.13,0,0,.59.17.88.25l4.25,1.19L27,175.3l37.83,10.6,8.9,2.5A1.5,1.5,0,0,0,74.48,185.5Z"/><path d="M92.82,149l-27.65-6-13.59-2.95-6.79-1.47a17.56,17.56,0,0,1-3.95-1.13l.74,1.3V1.45a1.5,1.5,0,0,0-3,0v137.3a1.46,1.46,0,0,0,.75,1.29c3.25,1.51,7,1.93,10.48,2.69l14.07,3.05L92,151.89c1.88.41,2.69-2.48.8-2.89Z"/><path class="cls-1" d="M19.17,145.37l20.35-7.11"/><path d="M19.57,146.82l20.35-7.11c1.81-.63,1-3.53-.8-2.89l-20.35,7.11c-1.81.63-1,3.53.8,2.89Z"/><path class="cls-1" d="M17,4V145.75"/><path d="M15.47,4V145.75a1.5,1.5,0,0,0,3,0V4a1.5,1.5,0,0,0-3,0Z"/><path d="M55.79,118.12c-4.4.85-7.68,4.24-9.87,8a52.9,52.9,0,0,0-3.06,6.29,22.39,22.39,0,0,0-1.87,7c-.15,1.93,2.85,1.92,3,0a19.12,19.12,0,0,1,1.61-5.87,53.33,53.33,0,0,1,2.74-5.64c1.84-3.22,4.45-6.15,8.24-6.87,1.9-.37,1.1-3.26-.79-2.9Z"/><path class="cls-1" d="M57.81,2.45v115.8"/><path d="M56.31,2.45v115.8a1.5,1.5,0,0,0,3,0V2.45a1.5,1.5,0,0,0-3,0Z"/><path d="M76,185,51.7,178.58,13.26,168.41l-8.89-2.35.89,2.21,12.25-19,1.75-2.73-1.69.69L75.19,161.9c1.87.47,2.67-2.42.79-2.9L18.37,144.3a1.55,1.55,0,0,0-1.7.69L4.42,164l-1.75,2.72a1.52,1.52,0,0,0,.9,2.21l24.28,6.42L66.3,185.54l8.89,2.36A1.5,1.5,0,0,0,76,185Z"/><path d="M106.32,125.94V59.43a1.5,1.5,0,0,0-3,0v66.51a1.5,1.5,0,0,0,3,0Z"/><path d="M113.08,125.68V59.56a1.5,1.5,0,0,0-3,0v66.12a1.5,1.5,0,0,0,3,0Z"/><path d="M105.86,57.32,77.57,15.2l-8-12L66.94,4.74,71.17,11c1.07,1.59,3.67.09,2.59-1.52L69.53,3.23c-1.07-1.6-3.67-.1-2.59,1.51L95.23,46.86l8,12c1.07,1.59,3.67.09,2.59-1.52Z"/><path d="M112.9,58,85,15.38,77,3.13c-1-1.61-3.65-.11-2.59,1.51l27.91,42.58,8,12.25c1,1.61,3.65.11,2.59-1.51Z"/><path d="M80.19,48.17A125,125,0,0,1,90.38,63.25,1.5,1.5,0,0,0,93,61.73,130,130,0,0,0,82.31,46a1.52,1.52,0,0,0-2.12,0,1.55,1.55,0,0,0,0,2.13Z"/><path d="M65.77,47.86C70.24,54.81,74.25,62,78,69.38c1.87,3.64,3.68,7.31,5.46,11,.9,1.84,1.78,3.69,2.66,5.53.44.93.88,1.85,1.33,2.77s.72,1.55,1.72,1.86a1.64,1.64,0,0,0,1.88-2.13,1.56,1.56,0,0,0-1.45-1.1H89.5c-1.92.05-1.93,3.05,0,3h.12l-1.44-1.1,0,.16.15-1.16-.09.13L90,87.65l-.24-.08.89.69A36.76,36.76,0,0,1,88,82.91L85.56,77.8C83.8,74.19,82,70.59,80.18,67,76.54,60,72.66,53,68.36,46.35c-1-1.62-3.64-.12-2.59,1.51Z"/><path d="M113,128.59h7.36a1.5,1.5,0,0,0,0-3H120a1.5,1.5,0,0,0,0,3h.34a1.5,1.5,0,0,0,0-3H113a1.51,1.51,0,0,0-1.5,1.5,1.53,1.53,0,0,0,1.5,1.5Z"/><path d="M119,127.09v30.14h3v-1.29a1.5,1.5,0,0,0-3,0v1.29a1.5,1.5,0,0,0,3,0V127.09a1.5,1.5,0,0,0-3,0Z"/><path d="M119,157.14a31.07,31.07,0,0,0-5.28,3.44l2.51,1.46V162l-.15.35-.4.41L115,163H115a1.5,1.5,0,1,0,0-3,1.81,1.81,0,0,0-1.19.48,1.61,1.61,0,0,0-.47.82,1.64,1.64,0,0,0,.07,1,1.41,1.41,0,0,0,.62.72,1.78,1.78,0,0,0,.75.2,1.54,1.54,0,0,0,1.06-.44l.29-.22c.12-.1.1-.08-.09.06l.15-.11.59-.43c.39-.28.79-.56,1.2-.82a27.72,27.72,0,0,1,2.54-1.45,1.51,1.51,0,0,0,.53-2.06,1.53,1.53,0,0,0-2-.53Z"/><path d="M112.64,163.09v19.27a1.5,1.5,0,0,0,3,0V163.09a1.5,1.5,0,0,0-3,0Z"/><path d="M78.68,177.13v8.81a1.5,1.5,0,0,0,3,0v-8.81a1.5,1.5,0,0,0-3,0Z"/><path d="M107.72,182.92l-26-7.49a1.5,1.5,0,0,0-.79,2.89l26,7.49a1.5,1.5,0,0,0,.8-2.89Z"/><path d="M115.67,134.78H102.52a1.5,1.5,0,0,0,0,3h13.15a1.5,1.5,0,0,0,0-3Z"/><path d="M100.51,136.79V151.6a1.5,1.5,0,0,0,3,0V136.79a1.5,1.5,0,0,0-3,0Z"/><path d="M102.91,152.75a26.13,26.13,0,0,0,3.83-.53,1.53,1.53,0,0,0,.89-.69,1.51,1.51,0,0,0,.15-1.16,1.53,1.53,0,0,0-1.84-1c-.61.13-1.22.24-1.84.32l.4-.05c-.53.06-1.06.12-1.59.15a1.59,1.59,0,0,0-1.06.44,1.47,1.47,0,0,0-.44,1.06,1.5,1.5,0,0,0,1.5,1.5Z"/><path d="M108.24,150.7a4.93,4.93,0,0,1,0-.67c0-.05,0-.45,0-.18s0-.11,0-.18,0-.18.07-.28l.06-.18c.06-.15,0-.12,0,.09a3.94,3.94,0,0,0,.27-.51c.07-.1.34-.37,0-.08.07-.07.13-.15.19-.22l.24-.24.11-.09c.12-.1.1-.08-.08.05a3,3,0,0,1,.61-.35l-.17.07.2-.07a3.37,3.37,0,0,1,.34-.09l.15,0c.16,0,.13,0-.1,0,.08,0,.22,0,.31,0l.35,0-.15,0,.2,0,.28.08-.07,0,.17.09s.18.15.23.15c-.18-.15-.21-.17-.09-.07l.1.1c.05,0,.15.22.21.24-.13-.18-.16-.22-.1-.12a1,1,0,0,1,.08.11c0,.07.11.28.17.32l-.08-.19a1.21,1.21,0,0,1,0,.18,2,2,0,0,1,.07.26c0,.16,0,.12,0-.13a1.09,1.09,0,0,1,0,.18,2.45,2.45,0,0,1,0,.27c0-.44,0-.11,0,0a1.5,1.5,0,1,0,2.89.8,4.22,4.22,0,0,0-3-5.16,5.23,5.23,0,0,0-5.72,2.47,5.43,5.43,0,0,0-.75,3.34,1.64,1.64,0,0,0,.44,1.06,1.52,1.52,0,0,0,1.06.44c.73,0,1.61-.66,1.5-1.5Z"/><path d="M118.19,148.41V136.66a1.5,1.5,0,0,0-3,0v11.75a1.5,1.5,0,0,0,3,0Z"/><path d="M114.22,148.14v0l.23-.31a1.88,1.88,0,0,1-.31.32l.3-.24a1.44,1.44,0,0,1-.4.23l.36-.15-.27.09a1.26,1.26,0,0,0-.51.27,1.18,1.18,0,0,0-.38.42,1.73,1.73,0,0,0-.16,1.16l.16.35a1.45,1.45,0,0,0,.53.54l.36.15a1.36,1.36,0,0,0,.8,0,3.51,3.51,0,0,0,.64-.24l.28-.15c.15-.1.28-.21.42-.32l.11-.1a3.64,3.64,0,0,0,.44-.53,1.73,1.73,0,0,0,.16-1.16,1.26,1.26,0,0,0-.27-.51,1.18,1.18,0,0,0-.42-.38l-.36-.16a1.55,1.55,0,0,0-.8,0l-.36.16a1.61,1.61,0,0,0-.54.53Z"/><path d="M81.42,173.3v-6.64a1.5,1.5,0,0,0-3,0v6.64a1.5,1.5,0,0,0,3,0Z"/><path d="M80.89,174.6l27.49-2.14c1.92-.15,1.93-3.15,0-3L80.89,171.6c-1.91.15-1.93,3.15,0,3Z"/><path d="M80.32,167.22l27.11-2.11c1.91-.15,1.93-3.15,0-3l-27.11,2.11c-1.91.15-1.93,3.15,0,3Z"/><path d="M109.79,169.82l-.43-5.6a1.53,1.53,0,0,0-1.5-1.5,1.51,1.51,0,0,0-1.5,1.5l.43,5.6a1.5,1.5,0,0,0,3,0Z"/><path d="M96.47,161.06c0-2.13-.13-4,.62-5.95a8.81,8.81,0,0,1,1.21-2,3,3,0,0,1,.9-.73l.07,0s.4-.1.24-.08.14,0,.17,0c.24,0-.29-.08.13,0a1.51,1.51,0,0,0,1.84-1,1.53,1.53,0,0,0-1-1.85c-2.71-.82-5,1.71-6,3.9A11.56,11.56,0,0,0,93.57,157a38.85,38.85,0,0,0-.1,4,1.5,1.5,0,0,0,3,0Z"/><path d="M114.94,149.3v8.13a1.5,1.5,0,0,0,3,0V157a1.5,1.5,0,1,0-3,0v.47h3V149.3a1.5,1.5,0,0,0-3,0Z"/><path d="M96.42,161.77a49,49,0,0,0,9.83-.22q2.37-.28,4.71-.78c.83-.18,1.66-.38,2.48-.61l1-.3.7-.21c.43-.11.46-.14.09-.08l-.9-.69.07.13c.91,1.71,3.5.19,2.59-1.51s-3-.6-4.4-.23a46.67,46.67,0,0,1-5.35,1.13,47.63,47.63,0,0,1-10.87.37c-1.93-.14-1.92,2.86,0,3Z"/><g class="cls-2"><path class="cls-3" d="M12,157.56l2.38-57.84c.32-7.72-11.68-7.71-12,0L0,157.56c-.32,7.73,11.68,7.71,12,0Z"/></g><g class="cls-2"><path class="cls-3" d="M9.33,167.94c7.84-.82,16.67,3.93,24.11,6s15.3,3,22.32,6.72c6.81,3.62,12.88-6.73,6.05-10.36-8-4.27-16.55-5.49-25.18-7.93S18.47,155,9.33,155.94c-7.6.8-7.68,12.8,0,12Z"/></g><g class="cls-2"><path class="cls-4" d="M19.4,159.65c-.31-9.45-2.55-18.74-1.57-28.22.79-7.67-11.21-7.62-12,0-1,9.48,1.26,18.77,1.57,28.22.26,7.71,12.26,7.74,12,0Z"/></g><g class="cls-2"><path class="cls-4" d="M11.46,162.79a108.51,108.51,0,0,1,16.82,5.8c4.06,1.82,9-.27,9-5.18a6.72,6.72,0,0,0-2-4.8c-5.22-5.72-13.68,2.78-8.49,8.48l.22.24-1.76-4.24v.32l9-5.18a128.49,128.49,0,0,0-19.69-7c-7.48-2-10.67,9.62-3.19,11.58Z"/></g></g></g></svg>