<svg xmlns="http://www.w3.org/2000/svg" viewBox="0 0 346.02 135.66"><defs><style>.cls-1{fill:#fff;}.cls-2{opacity:0.44;}.cls-3{fill:#4d4d4d;}.cls-4{fill:#c69c6d;}</style></defs><g id="Layer_2" data-name="Layer 2"><g id="radiator2"><path class="cls-1" d="M335.42,131.81,2.83,76.38,1.5,76V9.85l1.65-.51L17.51,2l1.23.61L341.21,45.5l3.29,1.35V118l-1.13.94-8.71,12.77"/><path d="M335.82,130.37,204,108.4l-131.82-22L35.67,80.34l-18.25-3C12.29,76.44,6.9,76,1.9,74.56L3,76V9.85L1.9,11.3a41.7,41.7,0,0,0,6.5-3l9.86-5H16.75a13.89,13.89,0,0,0,4.7,1.17l8.83,1.17L46.57,7.84l33.27,4.42L145.69,21,277.4,38.52l36.66,4.87,18.33,2.44c2.76.37,5.89.4,8.56,1.18a33,33,0,0,1,3.15,1.29L343,46.85V118l.44-1.06c-1.79,1.48-2.9,3.49-4.2,5.4L333.37,131c-1.09,1.6,1.51,3.1,2.59,1.51l4.92-7.21c1.36-2,2.57-4.3,4.35-5.91a2.28,2.28,0,0,0,.77-2c0-1.48,0-3,0-4.45v-66a1.55,1.55,0,0,0-1.1-1.44c-1-.41-2-.9-3-1.23-2.1-.69-4.6-.7-6.81-1l-17.65-2.34-35.3-4.7-70.27-9.34-70.6-9.38L71,8.09,35.71,3.4,26.88,2.22l-4.41-.58a21.73,21.73,0,0,1-3.3-.45C18.52,1,18.05.48,17.31.56c-1.16.12-2.52,1.18-3.55,1.7L6,6.22A31.37,31.37,0,0,1,1.1,8.41,1.54,1.54,0,0,0,0,9.85V76a1.53,1.53,0,0,0,1.1,1.45c4.36,1.23,9,1.66,13.5,2.4l16.22,2.71,33.12,5.52L129.52,99l131.81,22L335,133.26c1.89.31,2.7-2.58.8-2.89Z"/><path d="M330.34,53,202.8,36,75.26,19.05,3.4,9.49c-1.91-.25-1.89,2.75,0,3l127.54,17,127.53,17L330.34,56c1.9.25,1.88-2.75,0-3Z"/><path d="M342.26,44.62l-10.37,8.5a1.51,1.51,0,0,0,0,2.12,1.54,1.54,0,0,0,2.12,0l10.37-8.5a1.51,1.51,0,0,0,0-2.12,1.53,1.53,0,0,0-2.12,0Z"/><path d="M332,53.85v70.78a20.36,20.36,0,0,0,.05,4.62,23.52,23.52,0,0,0,1.17,2.86c.72,1.76,3.62,1,2.89-.8A19.78,19.78,0,0,1,335,128.6a15.51,15.51,0,0,1,0-3V53.85a1.5,1.5,0,0,0-3,0Z"/><path d="M182.47,67.25c1.47,10.9-3.32,22.73-14,27-11.17,4.42-23.59-.6-31.3-9.11-8-8.79-11.77-22.29-6.94-33.52a22.73,22.73,0,0,1,10.45-11.3,24.12,24.12,0,0,1,16.12-1.82c11.89,2.61,21.45,12.59,24.72,24.15a36.64,36.64,0,0,1,1,4.63c.28,1.91,3.17,1.1,2.89-.79a38,38,0,0,0-23.9-29.75,28.69,28.69,0,0,0-18.7-.54,25.32,25.32,0,0,0-13.41,10.61c-7.07,11.31-4.76,26.39,2.77,36.85S152.88,101.2,166,98.14c12.24-2.87,19.77-14.44,19.79-26.65a36.78,36.78,0,0,0-.38-5,1.51,1.51,0,0,0-1.84-1A1.53,1.53,0,0,0,182.47,67.25Z"/><path d="M96,54.38C97.34,65,93,76.29,82.56,80.5,71.93,84.81,60,80.11,52.6,72,45,63.64,41.44,50.82,46,40.14A22,22,0,0,1,56.08,29.21a23.21,23.21,0,0,1,15.36-1.83c13,2.77,22.72,14.48,24.56,27.4.28,1.9,3.17,1.09,2.9-.8A36,36,0,0,0,76,25.56a27.6,27.6,0,0,0-17.77-.47,24.58,24.58,0,0,0-13,10.1C38.35,46,40.41,60.45,47.59,70.52s19.69,16.73,32.16,14C91.56,81.9,99,70.93,99.24,59.17A32,32,0,0,0,99,54.38a1.55,1.55,0,0,0-1.5-1.5A1.5,1.5,0,0,0,96,54.38Z"/><path d="M276.26,81.34A29.64,29.64,0,0,1,273.34,99a24.73,24.73,0,0,1-12.09,11.21c-11.6,4.9-24.86.15-33.11-8.72-8.5-9.14-12.29-23.29-7.17-35A25.07,25.07,0,0,1,232,54.29a26.18,26.18,0,0,1,17.17-2.4c12.49,2.42,22.65,12.61,26.07,24.72a34.55,34.55,0,0,1,1,4.73,1.55,1.55,0,0,0,1.5,1.5,1.5,1.5,0,0,0,1.5-1.5C277.4,67.43,267.89,55,254.56,50.25a30.59,30.59,0,0,0-19.51-.48,27.65,27.65,0,0,0-14.5,11.13c-7.64,11.64-5.75,27.41,2,38.45s21.63,18.14,35.25,15c12.9-2.93,21.28-14.82,21.67-27.74a33.68,33.68,0,0,0-.26-5.31C279,79.45,276,79.42,276.26,81.34Z"/><path d="M242.91,50.25c.11.65-.48,1.55-.71,2.15-.31.77-.61,1.55-.9,2.32-.57,1.52-1.11,3-1.62,4.58q-1.59,4.79-2.83,9.67c-.48,1.87,2.41,2.67,2.89.8q1.33-5.23,3.07-10.36.83-2.46,1.76-4.89c.64-1.65,1.54-3.24,1.23-5.06s-3.22-1.1-2.89.79Z"/><path d="M276.86,95.46a20.36,20.36,0,0,0-5.63-8.16c-2.58-2.41-5.51-4.42-8.07-6.86-1.39-1.33-3.52.79-2.12,2.12,4.45,4.26,10.8,7.54,12.93,13.69.62,1.82,3.52,1,2.89-.79Z"/><path d="M151.25,37Q147,48.55,144,60.46a1.5,1.5,0,0,0,2.89.79q3.09-11.88,7.28-23.44c.67-1.82-2.23-2.6-2.89-.8Z"/><path d="M165.12,65.61q6.63,10.14,14.14,19.65a1.5,1.5,0,0,0,2.12,0,1.53,1.53,0,0,0,0-2.12q-7.24-9.23-13.67-19c-1.05-1.61-3.65-.11-2.59,1.51Z"/><path d="M153.41,78.35q-10.49.74-21,1.31l.4,3a2.52,2.52,0,0,1,.89-.21c1.92-.12,1.93-3.12,0-3a5.55,5.55,0,0,0-1.68.31c-1.44.58-1.44,3.05.39,3q10.51-.59,21-1.31c1.92-.13,1.93-3.13,0-3Z"/><path d="M65,25.46,59.85,44.94a1.53,1.53,0,0,0,1,1.85,2.11,2.11,0,0,0,2.47-1c.94-1.68-1.65-3.2-2.59-1.51l.35-.31h.8l-.23-.06,1,1.85,5.12-19.49A1.5,1.5,0,0,0,65,25.46Z"/><path d="M95.15,70.08A119.54,119.54,0,0,0,82.48,50.86l-.31,2.36.16-.07-1.15.15.16.05L80.68,53v0l-.2-.75v.24c.11,1.92,3.12,1.93,3,0a2,2,0,0,0-2.83-1.87c-1,.43-.84,1.69-.31,2.36A114.78,114.78,0,0,1,92.56,71.6c.9,1.7,3.49.19,2.59-1.52Z"/><path d="M46.83,67.46c3.31,0,6.61,0,9.92,0s6.46.13,9.66-.06c1.92-.11,1.94-3.11,0-3-3.2.19-6.45.06-9.66.06s-6.61,0-9.92,0a1.5,1.5,0,0,0,0,3Z"/><path d="M236.85,68.67c-4.33,4.76-4.16,12.71-1,18a16.4,16.4,0,0,0,15.78,7.59,10.88,10.88,0,0,0,8.05-4.86,17.26,17.26,0,0,0,2.93-9.21,15.86,15.86,0,0,0-9.1-14.9,14.6,14.6,0,0,0-9.62-1.09c-3,.78-6.09,3-6.54,6.31a1.55,1.55,0,0,0,1.05,1.84,1.51,1.51,0,0,0,1.85-1c.67-5,7.51-5,11.1-3.69a12.77,12.77,0,0,1,8.23,11c.34,4.91-1.87,11.29-7.2,12.48a13.45,13.45,0,0,1-13-4.57c-3.37-4.11-4.28-11.58-.48-15.76,1.3-1.42-.82-3.55-2.12-2.12Z"/><path d="M144.88,56.4c-1.78,5.41-2,11.75.16,17.09,2.06,5,6.87,8.82,12.45,6.79a18.33,18.33,0,0,0,6.8-4.51A10,10,0,0,0,167,68.58a16.94,16.94,0,0,0-1.87-7.71,10.59,10.59,0,0,0-5.33-4.61,19.24,19.24,0,0,0-8.37-1.55c-2.87.18-5.71,1.93-5.74,5.08a1.5,1.5,0,0,0,3,0c0-3.79,7.86-1.63,9.77-.86a7.78,7.78,0,0,1,4.08,3.45A13.64,13.64,0,0,1,164,68.2a7.19,7.19,0,0,1-2,5.58,15.51,15.51,0,0,1-5.16,3.53,5.89,5.89,0,0,1-5.77-.49,9.87,9.87,0,0,1-3.38-4.66,22.73,22.73,0,0,1,0-15c.61-1.84-2.29-2.62-2.89-.79Z"/><path d="M63.27,43c-4.1,3.54-5.08,9.36-4.26,14.47a11.28,11.28,0,0,0,4.13,7.43c2.15,1.68,4.71,3.5,7.42,4.1,6.32,1.4,10-4.55,11.17-9.86,1.26-5.57.4-12-4.55-15.48a10.82,10.82,0,0,0-9-1.35c-2.71.64-6.18,1.8-6.44,5-.16,1.92,2.85,1.91,3,0,0-.65,1.06-1.08,1.56-1.29a15.35,15.35,0,0,1,3.51-1,7.4,7.4,0,0,1,5.83,1.22c3.58,2.7,4.11,7.57,3.26,11.68-.78,3.78-3,9.43-8,8.08a18.08,18.08,0,0,1-5.71-3.23A8.4,8.4,0,0,1,62,57.22C61.18,53,62,48,65.39,45.07c1.46-1.26-.67-3.37-2.12-2.12Z"/><path d="M248.1,92.27l-13,1.27-6.5.63c-1.68.17-4.32-.15-5.37,1.41a1.51,1.51,0,0,0,.24,1.82l.09.1c1.31,1.43,3.43-.69,2.12-2.12l-.09-.1.23,1.82c-.63.38-.64.49,0,.34l.46,0,1.62-.16L230.7,97l5.8-.57,11.6-1.13c1.9-.19,1.92-3.19,0-3Z"/><g class="cls-2"><path class="cls-3" d="M279.49,76.89a8.78,8.78,0,0,0-7.2-8.18,86.41,86.41,0,0,0-10.14-1.39c-3.23-.32-6,3-6,6,0,3.5,2.76,5.68,6,6,1.39.13,2.77.28,4.14.49a11.7,11.7,0,0,0,2.45.4l.72.14-1.21-1-.82-3,.06.54c.36,3.22,2.51,6,6,6,3,0,6.36-2.76,6-6Z"/></g><g class="cls-2"><path class="cls-3" d="M262.11,51.81c-3.57-2.11-8.16-1.19-11.88.15a14.71,14.71,0,0,0-9.17,8.67c-1.24,3,1.35,6.59,4.19,7.38,3.45.95,6.14-1.19,7.39-4.19-.32.76,1-.37,1.55-.55a19.69,19.69,0,0,1,2.38-.59c1.95-.39.73.22-.51-.51,6.67,3.92,12.71-6.44,6.05-10.36Z"/></g><g class="cls-2"><path class="cls-3" d="M225.37,53.28c-4,8.46-3.11,21,6.72,24.88,3,1.19,6.58-1.31,7.38-4.19.93-3.41-1.17-6.19-4.19-7.38,2,.8.73.8.39-.34A17.68,17.68,0,0,1,235,64a8.36,8.36,0,0,1,.71-4.65c1.39-2.92.8-6.48-2.16-8.21-2.61-1.53-6.8-.78-8.2,2.15Z"/></g><g class="cls-2"><path class="cls-3" d="M213.73,83.6c.55,3.8,4.53,7.07,8,8.31a20.63,20.63,0,0,0,11.68.14c7.45-2,4.29-13.59-3.19-11.58a8.43,8.43,0,0,1-4.53.19c-.54-.21,1.92.12-.56-.49-1.1-.27,0-1.26.19.24-.46-3.21-4.54-5-7.38-4.19-3.45,1-4.65,4.16-4.19,7.38Z"/></g><g class="cls-2"><path class="cls-3" d="M239.56,113.31c8.08-.83,15.34-6.33,16.48-14.76.44-3.21-.77-6.45-4.19-7.39-2.79-.76-6.94,1-7.38,4.2a7,7,0,0,1-1.69,4.23,4.51,4.51,0,0,1-1.75,1.26c.5-.24-.32.13-.43.17s-1.8.37-1,.29c-3.23.33-6,2.52-6,6,0,3,2.75,6.34,6,6Z"/></g><g class="cls-2"><path class="cls-3" d="M269.53,110.28c3.36-7.6,2-15.08-2.15-22.1-3.89-6.66-14.27-.63-10.36,6.06,1.64,2.8,3.6,6.69,2.15,10-1.32,3-.87,6.45,2.15,8.21,2.55,1.49,6.89.83,8.21-2.15Z"/></g><g class="cls-2"><path class="cls-3" d="M169.22,39.51c-7.6.55-18.62,6.23-16.25,15.52a6,6,0,1,0,11.57-3.19,4.3,4.3,0,0,1-.1,1.89c-.33.44-.24.38.26-.19s.65-.57.29-.31c.35-.25.71-.48,1.09-.7a12.55,12.55,0,0,1,1.15-.6q-.64.3.39-.09c.42-.12.84-.22,1.26-.31-.52,0-.41,0,.34,0a6.14,6.14,0,0,0,6-6c0-3.07-2.75-6.24-6-6Z"/></g><g class="cls-2"><path class="cls-3" d="M182,56.59c-3.23,0-6.36-1.15-9.6-1.08a10.64,10.64,0,0,0-8.91,4.81c-1.83,2.68-.5,6.66,2.16,8.21,3,1.74,6.37.53,8.21-2.15-1.26,1.83-2.43.93-.58,1.15.83.1,1.46.19,2.28.34a38.71,38.71,0,0,0,6.44.72c7.72,0,7.74-12,0-12Z"/></g><g class="cls-2"><path class="cls-3" d="M133.72,42a23.3,23.3,0,0,0,0,13.76c1.2,4.09,3.09,8.94,7,11.11,6.74,3.78,12.8-6.58,6.05-10.36.52.29-.71-1.8-.8-2a20,20,0,0,1-1-3.08,11,11,0,0,1,.33-6.23c2.39-7.36-9.2-10.51-11.57-3.19Z"/></g><g class="cls-2"><path class="cls-3" d="M124.52,66.73c2.46,7.25,9,10.1,16,11.35,3.19.57,6.47-.86,7.38-4.19.8-2.9-1-6.81-4.19-7.38a24.38,24.38,0,0,1-5.61-1.32,3.81,3.81,0,0,1-1.53-1c-.29-.27-.62-.93-.53-.68a6.14,6.14,0,0,0-7.38-4.19c-3,.82-5.24,4.3-4.19,7.38Z"/></g><g class="cls-2"><path class="cls-3" d="M148.06,96.64c3.27-1.08,6.57-2,9.1-4.52,2.38-2.34,3.65-5.45,4.78-8.52s-1.22-6.71-4.19-7.38a6.15,6.15,0,0,0-7.38,4.19c-.05.12-.57,1.5-.34.94s-.26.55-.31.64q-.33.66-.72,1.29c-.5.82.1,0-.33.36-.78.58.76-.42-.19.14-.36.18-.39.21-.07.1l-.63.22c-1,.34-1.94.65-2.91,1-3,1-5.23,4.19-4.19,7.38,1,3,4.19,5.25,7.38,4.19Z"/></g><g class="cls-2"><path class="cls-3" d="M169.25,96.84c7-5.75,8.83-23.54-.19-28.22-6.85-3.55-12.93,6.8-6.06,10.36l.95.49-2.15-2.15c1.94,2.67,1.62,8.85-1,11-6,4.91,2.56,13.35,8.48,8.49Z"/></g><g class="cls-2"><path class="cls-3" d="M78,27.44c-2.74.56-5.64.93-8.05,2.47a9.34,9.34,0,0,0-4.12,10c.61,3.08,4.46,5.13,7.38,4.19a6.15,6.15,0,0,0,4.2-7.38c.35,1.77-.09,2.11-1,3.26l-.46.17c.34-.11.68-.21,1-.29,1.38-.34,2.78-.58,4.16-.86,3.09-.62,5.14-4.44,4.19-7.38A6.15,6.15,0,0,0,78,27.44Z"/></g><g class="cls-2"><path class="cls-3" d="M95.56,41.43c-6.24-.25-13.07-.14-17,5.48-1.84,2.67-.49,6.66,2.16,8.21,3,1.74,6.36.52,8.21-2.15-1.14.94-1.28,1.13-.43.58l-.18.14a8.79,8.79,0,0,0,1.84-.22,53.24,53.24,0,0,1,5.36,0,6,6,0,0,0,0-12Z"/></g><g class="cls-2"><path class="cls-3" d="M49,28.64A33.14,33.14,0,0,0,52.72,45.7C55,50,59.41,56.69,65.06,56c3.24-.42,6-2.45,6-6,0-2.91-2.78-6.42-6-6,2,1.23,2.26,1.19.82-.1a11.37,11.37,0,0,1-1.47-1.92,20.15,20.15,0,0,1-2.09-4A21.89,21.89,0,0,1,61,28.64c.42-7.72-11.59-7.7-12,0Z"/></g><g class="cls-2"><path class="cls-3" d="M43.24,54.41C43.35,63.3,53.05,65,60.07,64.73a6.13,6.13,0,0,0,6-6,6.06,6.06,0,0,0-6-6,24,24,0,0,1-4.57,0c-.18,0-1.31-.37-1.3-.38a.58.58,0,0,1,.39.33,3.87,3.87,0,0,1,.65,1.75,6,6,0,0,0-12,0Z"/></g><g class="cls-2"><path class="cls-3" d="M58.62,81.76c4.13,1.4,9.2-.61,12.62-3A14.85,14.85,0,0,0,78,67.57c.35-3.22-3-6-6-6-3.53,0-5.65,2.77-6,6,.11-1-.31.42-.09.11a5,5,0,0,1-1.32,1.19,10.08,10.08,0,0,1-1.72.9c-.46.17-.94.33-1.42.47a.54.54,0,0,0,.41,0c-3.07-1-6.55,1.2-7.38,4.19a6.11,6.11,0,0,0,4.19,7.38Z"/></g><g class="cls-2"><path class="cls-3" d="M84.92,83.67c4.42-2.12,5.39-7.49,5.5-11.93a27,27,0,0,0-3.49-13.51c-3.7-6.78-14.07-.73-10.37,6.06a14.59,14.59,0,0,1,1.8,5.37,14.78,14.78,0,0,1,0,2.66l0,.69c-.48,1.4-.31,1.5.5.3-2.92,1.4-3.69,5.58-2.15,8.21,1.75,3,5.27,3.56,8.21,2.15Z"/></g><g class="cls-2"><path class="cls-3" d="M336.08,125.25q-2.31-34.15-1.51-68.4c.18-7.72-11.82-7.72-12,0q-.81,34.23,1.51,68.4c.52,7.67,12.52,7.73,12,0Z"/></g><g class="cls-2"><path class="cls-3" d="M330.48,56.64a110.68,110.68,0,0,0-48.19-6.2c-6.29.6-8.67,10.19-1.6,11.79l1.47.33c7.52,1.7,10.73-9.86,3.19-11.57l-1.47-.33-1.59,11.78a102.25,102.25,0,0,1,45,5.77c7.27,2.65,10.4-8.95,3.19-11.57Z"/></g><g class="cls-2"><path class="cls-3" d="M317.31,72.17c1.82,3.45,3.53,7,5,10.56l7.38-7.38c-2.67-.5-5.94-6.49-7.5-8.42l-8-10c-3.73-4.62-12,.36-10,5.84,2.94,8,7.14,15.24,11.64,22.46L325.23,78C319.41,70.76,316,61.94,310,54.78c-4.65-5.52-12.21,1.51-9.43,7.27q7.49,15.49,16.24,30.31l9.42-7.27-.87-1.52c-2.69-7.17-14.29-4.06-11.57,3.19a22,22,0,0,0,3.95,6.81c4.42,5.31,12.83-1.52,9.43-7.27Q318.44,71.48,310.94,56l-9.42,7.27c6,7.1,9.4,16,15.23,23.23,4.29,5.34,13-1.56,9.42-7.27-3.92-6.29-7.87-12.61-10.43-19.59l-10,5.83,10.51,13c2.9,3.59,5.5,7.53,10.32,8.45,3.92.74,9.3-2.76,7.38-7.39s-3.94-9.05-6.25-13.43c-3.59-6.84-13.95-.78-10.36,6.06Z"/></g><g class="cls-2"><path class="cls-4" d="M345.2,116.09V50.47c0-3.86-6-3.87-6,0v65.62c0,3.86,6,3.87,6,0Z"/></g><g class="cls-2"><path class="cls-4" d="M339.14,46.63a79.54,79.54,0,0,0-16.35-3.71c-3.82-.47-3.79,5.53,0,6a72.07,72.07,0,0,1,14.76,3.5c3.65,1.27,5.23-4.53,1.59-5.79Z"/></g><g class="cls-2"><path class="cls-4" d="M16,2.15c.46-.48.39-.57-.23-.26-.52.14-1,.29-1.55.46-1,.33-2,.73-3,1.14a39.08,39.08,0,0,0-5.7,3c-3.26,2.06-.25,7.25,3,5.18a33.26,33.26,0,0,1,8.06-3.76c2.3-.7,4.58-1.54,5.19-4.15C22.61,0,16.83-1.62,16,2.15Z"/></g><g class="cls-2"><path class="cls-4" d="M7.16,74V10.13c0-3.86-6-3.87-6,0V74c0,3.86,6,3.87,6,0Z"/></g><path d="M155.86,89.62c-5.39,4.45-12.71,3.1-19,2.17a5.61,5.61,0,0,0-4.32.95c-1.21.88-2.08,2.1-3.2,3.08-2.25,2-5.51,1.69-8.3,1.55-3.41-.18-7-.36-10,1.48-1.65,1-.14,3.6,1.51,2.59,2.66-1.61,5.9-1.2,8.86-1s6.09.17,8.69-1.41a18.3,18.3,0,0,0,3.28-3,4.46,4.46,0,0,1,1.58-1.18,5.33,5.33,0,0,1,2.71.17,38.8,38.8,0,0,0,10,.7A18.14,18.14,0,0,0,158,91.74c1.49-1.23-.65-3.34-2.13-2.12Z"/><path d="M60.67,70.57c-2-2.37-5.93-5.76-8.71-2.55a16.37,16.37,0,0,0-2.2,3.8c-.53,1.11-1.12,2.54-2.28,3.14-1.39.71-3.15,0-4.56-.29a7.18,7.18,0,0,0-4.75.36,8.27,8.27,0,0,0-2.88,2.88c-.68,1-1.29,2.3-2.35,2.94s-2.18.28-3.24.09a19.27,19.27,0,0,0-3.31-.36,18,18,0,0,0-6.76,1.22c-1.78.69-1,3.59.8,2.89a15.85,15.85,0,0,1,5.74-1.12c1.9,0,3.75.7,5.64.62C35,84.06,36.36,81.62,38,79.3a3.5,3.5,0,0,1,2.76-1.88c1.57-.06,3.13.61,4.68.77,3.11.33,5.25-1.5,6.59-4.14a21.23,21.23,0,0,1,2.08-3.91c.73-.89,1.54-.11,2.29.44a13.65,13.65,0,0,1,2.18,2.12c1.25,1.47,3.37-.66,2.12-2.13Z"/><path d="M47.88,46.77l-5.23-1.48c-1.45-.42-3-.94-4.47-.45-2.73.88-3.1,3.84-3.7,6.21-.88,3.47-4.5,2.62-7.25,2.39a25,25,0,0,0-9.83,1.17c-1.83.6-1,3.5.8,2.9a22.71,22.71,0,0,1,9.26-1c2.78.26,5.79.66,8.07-1.33a6.26,6.26,0,0,0,1.84-3.29,11.6,11.6,0,0,1,1-3.44c.86-1.36,2.51-.51,3.75-.15l5,1.41a1.5,1.5,0,0,0,.8-2.89Z"/><path d="M83.12,48.18a37.69,37.69,0,0,1-9.5,1.34c-2.36,0-5-.44-7.17.64a5.76,5.76,0,0,0-2.26,2.28c-.81,1.21-2.45.55-3.67.39-2.32-.31-5.52.83-5.17,3.73.22,1.9,3.22,1.92,3,0-.15-1.22,1.86-.77,2.55-.65a7.84,7.84,0,0,0,3.34.06,4,4,0,0,0,2.44-1.86,2.74,2.74,0,0,1,2.14-1.57c2.25-.38,4.67.05,7-.1a41.08,41.08,0,0,0,8.15-1.37,1.5,1.5,0,0,0-.8-2.89Z"/><path d="M133,56.44c-1.68.46-3.45-.06-5.15.39-1.54.4-2.69,1.49-4,2.33a15.44,15.44,0,0,1-9.22,2.19c-3.49-.18-6.65-1.94-10.11-2.11a7.48,7.48,0,0,0-4.14,1,5.65,5.65,0,0,0-1.68,1.55,6,6,0,0,0-.55,1c-.08.19-.17.38-.26.57-.41.51-.27,1.05.4,1.62,1.27-1.44-.84-3.57-2.12-2.12a2.27,2.27,0,0,0,1.43,3.82,2.81,2.81,0,0,0,2.23-.88c.67-.68.8-1.62,1.36-2.35,1.08-1.41,3.23-1.29,4.76-.95,2.06.47,4,1.28,6.1,1.61a20.09,20.09,0,0,0,11.06-1.15,47.61,47.61,0,0,0,4.65-2.83c1.79-1,4.09-.22,6-.76a1.5,1.5,0,0,0-.79-2.89Z"/><path d="M170.88,52.47c-1.09-.72-1.85-1.83-3-2.48a3.77,3.77,0,0,0-3.9,0,7.25,7.25,0,0,0-2.45,3.61c-.64,1.48-1.46,2.16-3.12,1.72s-3.24-1.51-5-2a21.62,21.62,0,0,0-5.25-.7,101.15,101.15,0,0,0-10.86.68c-1.91.16-1.92,3.16,0,3,3.46-.29,6.94-.72,10.41-.69a18.46,18.46,0,0,1,5.12.67c1.64.48,3.1,1.46,4.75,1.92a5.09,5.09,0,0,0,6.67-3.48c.35-.82.89-2.71,2.09-2.2s2,1.81,3,2.48c1.62,1.06,3.13-1.54,1.52-2.59Z"/><path d="M260.83,67.69c-2-3.31-6.51-2.83-8.86-.23a14,14,0,0,0-2.67,5.23,23.18,23.18,0,0,1-1.17,3.24c-.57,1.11-1.33.88-2.26.24-1.56-1.08-3-2.83-5.15-2.42s-2.34,3-2.35,4.77a4.36,4.36,0,0,1-2.57,4.33c-2,1-4.31.88-6.45.84a1.5,1.5,0,0,0,0,3c3.72.06,7.88-.14,10.46-3.22a7.28,7.28,0,0,0,1.56-5c0-.6.08-1.15.13-1.74.17-.41.17-.42,0,0l.35.13a13.52,13.52,0,0,0,1.29.91c.36.29.7.59,1.08.86,1.48,1.06,3.46,1.59,5.09.52s2.15-3.32,2.69-5,1.1-3.66,2.49-4.94c1-.93,2.93-1.41,3.77,0a1.5,1.5,0,0,0,2.59-1.51Z"/><path d="M227.74,72.92l.17,0-1.46-.38.14.13-.44-1.06,0,.19.44-1.06c-.44.52-2.11.62-2.79.79a28,28,0,0,0-3,.82,10,10,0,0,0-4.37,2.8,6.41,6.41,0,0,0-1.66,4.22c0,.42.07.85.05,1.27v.32c-.07.26-.05.25.06-.05a5,5,0,0,1-1.58-.2l-1.74-.23a29.52,29.52,0,0,0-6.06-.66,4,4,0,0,0-2.19.8c-.61.5-.87,1.35-1.52,1.77-1.22.78-3.19.29-4.57.5a4.74,4.74,0,0,0-3.7,2.32c-.92,1.7,1.67,3.22,2.59,1.52.72-1.35,2.92-.91,4.18-1a5.45,5.45,0,0,0,4.5-2.22c.29-.41.36-.63.89-.72a5.74,5.74,0,0,1,1.43.09c1.16.14,2.31.31,3.46.46,1.32.17,2.64.41,4,.53a2.94,2.94,0,0,0,2.43-.71c1.33-1.32.49-3,.91-4.6.46-1.77,2.32-2.86,3.93-3.4,2-.68,4.4-.77,6.26-1.79A1.77,1.77,0,0,0,227,70c-1.91.29-1.1,3.18.79,2.9Z"/><path d="M242.43,102.29l.43,3.61a4.22,4.22,0,0,1,.14,1.44c-.11.27-.82.2-1.22.2-2.08,0-4.16-.5-6.13.41a6.22,6.22,0,0,0-3.3,4.62,14.42,14.42,0,0,0-.18,3.15c0,.62.07,1.23.09,1.85a4.55,4.55,0,0,1,0,1.65c-.52,1.18-4.31.13-5.39,0a10.77,10.77,0,0,0-5.55.3,6.78,6.78,0,0,0-3.71,4.13c-.68,1.75-1,3.59-2.25,5.05-3.48,4-9.31,4-14.18,4a1.5,1.5,0,0,0,0,3c4.8,0,10-.07,14.1-2.94a11.2,11.2,0,0,0,3.95-4.65c.75-1.72.93-4.22,2.53-5.42s4.05-.6,5.84-.34,4.46.88,6.21-.26c2-1.28,1.49-4.12,1.4-6.1s-.08-5,2.36-5.49,5.13.87,7.27-.63a3.09,3.09,0,0,0,1.15-3c-.13-1.5-.35-3-.53-4.51-.22-1.89-3.22-1.91-3,0Z"/></g></g></svg>