<svg xmlns="http://www.w3.org/2000/svg" viewBox="0 0 244.17 225.12"><defs><style>.cls-1{fill:#fff;}.cls-2{opacity:0.44;}.cls-3{fill:#4d4d4d;}.cls-4{fill:#c69c6d;}</style></defs><g id="Layer_2" data-name="Layer 2"><g id="radiator1"><path class="cls-1" d="M160.37,223.63l64.29-115.78,17.69-70.46L225,31.63l-4.82.53L5.5,113.55,3,116.79,44.42,222.11"/><path d="M161.66,224.39l4-7.18L175.75,199l13.64-24.56,14.4-25.93,12.59-22.68,8-14.45c.5-.9,1-1.78,1.5-2.7a13,13,0,0,0,.75-2.63l5.19-20.68L239,57l4.58-18.24.24-.93A1.54,1.54,0,0,0,242.75,36l-14.93-5c-.77-.26-1.55-.59-2.35-.78a8.67,8.67,0,0,0-2.91.17l-2.06.23a13.19,13.19,0,0,0-3.09,1l-9.79,3.72L129.22,65,50.83,94.76l-39.2,14.87L7,111.39c-1.11.42-2.2.66-2.93,1.62a25.6,25.6,0,0,0-2.3,3c-.64,1.19.69,3.28,1.13,4.41l2,5.1,3.74,9.51,30.53,77.72L43,222.51c.7,1.78,3.6,1,2.89-.8L13.6,139.59l-9.11-23.2-.16,1.16,2.46-3.24L5.9,115,60.49,94.29l54.37-20.61,54.36-20.61,27.29-10.35,13.54-5.14L216.81,35A17.93,17.93,0,0,1,221,33.56l3.22-.35c.15,0,1-.08.55-.11s-.06,0,.07.06c1.37.6,2.9,1,4.32,1.43l12,4,.83.27-1-1.84-3.28,13.07-6.9,27.47-6.08,24.23c-.45,1.79-1,3.6-1.36,5.42-.11.59.25-.29,0,0a9,9,0,0,0-.53,1l-6.59,11.87-11.72,21.11-14.2,25.57-14,25.25L165,212.13l-5.71,10.27-.26.47c-.94,1.69,1.65,3.21,2.59,1.52Z"/><path class="cls-1" d="M33.25,120.13,225,31.63l17.74,4.3-147,107L31.47,118.53"/><path d="M34,121.42,108.79,86.9l74.78-34.52,42.16-19.46-1.16.15,17.74,4.31L242,34.64,238,37.5l-10.68,7.77L211.48,56.83l-19.28,14L171.08,86.25l-21.32,15.53-19.88,14.48L113,128.55l-12.08,8.79c-1.87,1.36-4,2.62-5.72,4.17l-.24.18,1.15-.16-50-19-14.2-5.4c-1.8-.69-2.58,2.21-.8,2.89l56.1,21.35,7,2.65c.8.31,1.53.72,2.35.27a5.08,5.08,0,0,0,.53-.38l2.91-2.12L112,133l18.47-13.45,22.51-16.39L177,85.61l23.5-17.1L221,53.63l15-10.9q3.61-2.62,7.24-5.27l.32-.23a1.52,1.52,0,0,0-.36-2.74c-5.86-1.42-11.71-3.08-17.61-4.28-1.16-.23-2.3.59-3.33,1.06l-6.12,2.83-11.78,5.44L180.7,50.42l-47.59,22L85.74,94.25,38.38,116.11l-5.89,2.72c-1.75.81-.23,3.4,1.51,2.59Z"/><path class="cls-1" d="M101.34,223.13,98.1,178.67l-2.46-33.86"/><path d="M102.84,223.13l-4.43-60.89-1.27-17.43c-.14-1.92-3.14-1.93-3,0l4.44,61,1.26,17.29c.14,1.91,3.14,1.93,3,0Z"/><path class="cls-1" d="M33.14,121.21l23.45,101"/><path d="M31.7,121.61,43,170.43,53.14,214l2,8.65c.43,1.88,3.33,1.08,2.89-.8l-5.75-24.78L40.61,146.76l-6-25.94c-.44-1.88-3.33-1.09-2.89.79Z"/><path class="cls-1" d="M108.5,118.93C99.06,113.63,88,112,78.05,107.78c-.23-.1-.5-.27-.46-.51s.54,0,.34.09"/><path d="M109.25,117.64a78,78,0,0,0-15.17-6.06c-2.59-.81-5.2-1.57-7.79-2.39-1.25-.41-2.51-.82-3.75-1.27-.69-.24-1.37-.5-2.06-.76l-.81-.32-.61-.25c-.3-.17-.3-.08,0,.28l-.39,1.46.1-.11-1.06.44-.48-.11-.69-1.7,0,.11c-.7,1.8,2.2,2.58,2.89.8l0-.11a1.5,1.5,0,0,0-.69-1.69,1.66,1.66,0,0,0-2.6,1.51c.14,1.55,1.95,2,3.16,2.42,3.13,1.24,6.35,2.25,9.58,3.23,6.44,2,13,3.82,18.88,7.11,1.69.94,3.2-1.65,1.51-2.59Z"/><path class="cls-1" d="M119.85,111q-13.62-5-27.47-9.2l.43-.76"/><path d="M120.25,109.55q-13.62-5-27.48-9.2l.9,2.21.44-.76a1.5,1.5,0,0,0-2.59-1.51l-.44.75a1.52,1.52,0,0,0,.9,2.21q13.84,4.23,27.47,9.19c1.82.66,2.6-2.23.8-2.89Z"/><path class="cls-1" d="M135.78,141.79q2.15,34.85,1.71,69.78"/><path d="M134.28,141.79q1.66,27.14,1.78,54.32,0,7.74-.07,15.46c0,1.93,3,1.93,3,0q.33-27.18-.88-54.34-.36-7.72-.83-15.44c-.12-1.92-3.12-1.93-3,0Z"/><path class="cls-1" d="M51.13,148l.3-3.24L53,141.64c2.6-.21,5.32-.4,7.7.66a9.76,9.76,0,0,1,4.56,4.61,18.22,18.22,0,0,1,1.64,6.37,3.09,3.09,0,0,1-.18,1.76,1.14,1.14,0,0,1-1.49.59l-1.56-.35a31.87,31.87,0,0,0-5.88,2.62"/><path d="M52.63,148l.3-3.24-.21.76,1.6-3.16-1.3.75c2.71-.22,5.67-.5,8,1.06a10.09,10.09,0,0,1,3.87,6.21q.24,1,.39,2c.07.55,0,1.22.13,1.75a.34.34,0,0,1,0,.14c-.21.05,0,.06.56,0-.09-.13-.36-.15-.52-.19-.32-.09-.66-.15-1-.23a5.57,5.57,0,0,0-3.4.73,35.67,35.67,0,0,0-4,2,1.5,1.5,0,0,0,1.51,2.59,31.06,31.06,0,0,1,5.52-2.48h-.8l.86.2.54.12.14,0c-.46-.11.3.09.38.11a2.81,2.81,0,0,0,3.18-2.48,13.21,13.21,0,0,0-.52-5,15.59,15.59,0,0,0-1.66-4.28,10.64,10.64,0,0,0-7.14-5.25,20,20,0,0,0-4.89-.18c-.88.06-1.92,0-2.45.83a5,5,0,0,0-.26.52c-.4.79-.81,1.57-1.2,2.36-.61,1.25-.51,2.9-.64,4.27a1.5,1.5,0,0,0,3,0Z"/><path class="cls-1" d="M49.08,150.43a4.83,4.83,0,0,1,4.33,1.16,12.15,12.15,0,0,1,2.7,3.77,4.15,4.15,0,0,1,.59,1.85,1.5,1.5,0,0,1-1,1.5,2,2,0,0,1-1.49-.47,9.52,9.52,0,0,1-4-7.78c0-.56.23-1.28.79-1.28"/><path d="M49.48,151.88l.29-.08h.1c-.17,0,.13,0,.17,0h.22l.3,0s-.21,0,0,0,.39.09.58.15l.17.06.1,0c.16.08.32.16.47.25l.45.29c-.06,0-.18-.15.05.05l.24.21a11.36,11.36,0,0,1,2.44,3.7c-.06-.14.1.27.11.33a1.05,1.05,0,0,1,.06.24c0-.2,0,.05,0,.08s.06.23,0,0c0,0-.07.24,0,.07s0,0,0,.07.11-.13,0,0-.06.06,0,0,.31-.11.12-.06,0,0,0,0,0,0-.07-.05.14.06,0,0-.31-.2-.47-.31l0,0a2.11,2.11,0,0,1-.23-.19,8.16,8.16,0,0,1-.74-.7l-.34-.39a2.09,2.09,0,0,1-.14-.17c.14.18-.06-.07-.08-.11a8.39,8.39,0,0,1-.55-.86c-.09-.15-.17-.3-.25-.46l-.12-.26c0-.08-.09-.2,0-.05a8.5,8.5,0,0,1-.37-1.11c0-.19-.1-.38-.14-.57s-.1-.6-.06-.33c-.05-.4,0-.83-.07-1.23,0-.15,0,.08,0,.11s.06-.2.07-.29,0,.07,0,.1a.94.94,0,0,1-.72.36,1.5,1.5,0,1,0,0-3c-2.81.23-2.44,3.7-1.92,5.65a11.11,11.11,0,0,0,3.18,5.24,5.28,5.28,0,0,0,3.16,1.67,2.84,2.84,0,0,0,2.76-2.3,5.35,5.35,0,0,0-.86-3.63,16.35,16.35,0,0,0-1.78-2.75A6.74,6.74,0,0,0,48.69,149a1.5,1.5,0,0,0,.79,2.9Z"/><path class="cls-1" d="M153,130.18l-1.74,60.75"/><path d="M151.52,130.18l-1.74,60.75c-.05,1.93,2.95,1.93,3,0l1.74-60.75c.06-1.93-2.94-1.93-3,0Z"/><path class="cls-1" d="M98.35,126.88a158.7,158.7,0,0,1-30.18-11.36l.71.27"/><path d="M98.74,125.43a158.65,158.65,0,0,1-29.81-11.2L67.77,117l.71.27c1.81.69,2.59-2.2.8-2.89l-.71-.27c-1.58-.61-2.67,2-1.15,2.74A162.16,162.16,0,0,0,98,128.32a1.5,1.5,0,0,0,.79-2.89Z"/><g class="cls-2"><path class="cls-3" d="M53.47,220.53c6.94-3.59,1.76-13.68.19-19.08q-3.36-11.53-6.9-23t-7.28-22.88c-2.52-7.71-6-15.59-6.67-23.73-.28-3.39-.2-6.86-1-10.18-.07-.28-1.31-4.67-1.72-4.64q-2.79,3.67-.08,1.91c.82-.32,1.66-.62,2.5-.88,7-2.28,14-3.9,20.74-7,15-6.82,29.4-15.12,44-22.73,6.85-3.57.79-13.93-6.06-10.36-14.58,7.6-29,15.94-44,22.72-9.53,4.32-34.41,5.44-28,21.29,1.31,3.25,1.38,6.36,1.66,9.84a60.51,60.51,0,0,0,2.34,12.45c2.38,7.92,5.2,15.73,7.72,23.61s5,15.88,7.4,23.85q1.66,5.52,3.28,11c1,3.45,3.65,8.74,3.44,12.27l3-5.18-.56.29c-6.86,3.55-.8,13.91,6.06,10.36Z"/></g><g class="cls-2"><path class="cls-3" d="M25.65,111.75A49.14,49.14,0,0,0,4.46,114C1,115.12-1.36,119.38.88,122.78a225.49,225.49,0,0,1,35,90.33c1.15,7.61,12.71,4.38,11.57-3.19a233.7,233.7,0,0,0-36.24-93.2l-3.59,8.82a40.85,40.85,0,0,1,18-1.79c7.66.88,7.6-11.13,0-12Z"/></g><g class="cls-2"><path class="cls-3" d="M97,91.77c11.27-11.26,29-15.65,43.46-21.37l47.87-19c3.55-1.4,2-7.21-1.59-5.78l-51.56,20.4C120.79,71.76,104,76.31,92.76,87.53c-2.74,2.73,1.51,7,4.24,4.24Z"/></g><g class="cls-2"><path class="cls-3" d="M116.92,217.83l.67-58.13c0-3.86-6-3.86-6,0l-.67,58.13c0,3.86,6,3.87,6,0Z"/></g><g class="cls-2"><path class="cls-3" d="M144.88,209.14a468.23,468.23,0,0,1,0-66.16c.27-3.85-5.73-3.84-6,0a468.23,468.23,0,0,0,0,66.16c.27,3.83,6.27,3.86,6,0Z"/></g><g class="cls-2"><path class="cls-3" d="M158.85,188.46c-.25-21.92-1.4-44.05-.52-65.95.16-3.86-5.84-3.85-6,0-.88,21.9.27,44,.52,66,.05,3.86,6.05,3.87,6,0Z"/></g><path class="cls-1" d="M108.9,160.73q.84,7.91,1,15.85c.36,14.75-1,29.65,1.75,44.16l.22-1.29"/><path d="M107.4,160.73a269.48,269.48,0,0,1,1,30.47c-.09,10,0,20.05,1.78,29.94a1.51,1.51,0,0,0,2.89,0l.23-1.29c.33-1.89-2.56-2.7-2.89-.8l-.23,1.29h2.89c-1.78-9.77-1.75-19.74-1.67-29.63a263.18,263.18,0,0,0-1-30c-.2-1.9-3.2-1.92-3,0Z"/><g class="cls-2"><path class="cls-3" d="M28,137q-2.94-6.1-6.11-12.07c-1.73-3.21-3.34-7.7-6.67-9.54-6.76-3.73-12.83,6.63-6.06,10.36-1.49-1.79-1.67-1.81-.53,0,.49.87,1,1.75,1.46,2.63.84,1.53,1.67,3.08,2.49,4.63q2.63,5,5.06,10.07c3.35,7,13.7.88,10.36-6.05Z"/></g><g class="cls-2"><path class="cls-3" d="M46.15,99.31c-5.72,3-12.12,4-18.38,5.37A77.43,77.43,0,0,0,18.88,107c-3.4,1.17-6.53,3.09-10.2,2.94-7.73-.31-7.71,11.69,0,12,7.54.3,14.94-4.13,22.28-5.7s14.53-3,21.25-6.58.77-14-6.06-10.36Z"/></g><g class="cls-2"><path class="cls-4" d="M161.1,221.91c7.15-6.92,9.23-17.67,13.58-26.33C179.74,185.49,187.2,177,193,167.42c12.35-20.4,23.92-41.31,35.84-62,3.87-6.7-6.5-12.75-10.36-6.06-11.64,20.16-23.06,40.48-35,60.49C178.12,169,171.06,177,166,186.35a142.32,142.32,0,0,0-6.35,13.6c-1.92,4.67-3.29,9.87-7,13.47-5.56,5.38,2.93,13.86,8.48,8.49Z"/></g><path d="M89.38,101.51c.52-2.45,1.86-4.5,1.6-7.1a12.3,12.3,0,0,0-2.61-6.15c-2.8-3.69-7.15-5.86-9.85-9.61a9.61,9.61,0,0,1-.91-1.46c-.26-.54-.37-.41,0-.75.93-.74,1.9-1.43,2.81-2.19A8.55,8.55,0,0,0,83.75,69c.77-5-2.68-9-6-12.22-.51-.49-1-1-1.51-1.5A4.77,4.77,0,0,1,75,53.75c-.37-1.08.58-2.85,1-3.82A17.55,17.55,0,0,1,81,43.84c1.5-1.2-.63-3.31-2.13-2.12A20,20,0,0,0,74.22,47c-1.12,1.88-2.5,4.55-2.25,6.8s2.63,4,4.14,5.48c1.75,1.74,3.57,3.6,4.35,6a5.57,5.57,0,0,1-1.27,6.07c-1.41,1.38-4.15,2.48-4.71,4.51s1.56,4.6,2.89,6a53.51,53.51,0,0,0,5.09,4.55c2,1.72,4.08,3.69,5.07,6.24a6.35,6.35,0,0,1,.34,3.8c-.35,1.43-1.07,2.73-1.38,4.17-.4,1.88,2.49,2.69,2.89.8Z"/><path d="M150.09,76.41q-5.72-11.79-12.32-23.14l-1.29,2.26c4.05-.48,5.55-4.61,4.56-8.19a21.42,21.42,0,0,0-2.95-5.94c-.56-.85-1.17-1.67-1.8-2.46-.26-.32-.7-.7-.75-1.14a3.31,3.31,0,0,1,.42-1.3,59.23,59.23,0,0,0,3.53-12.37c.52-3.48.34-7.23-2.3-9.85-1.38-1.35-3.5.77-2.12,2.13,2.13,2.11,1.85,5.46,1.31,8.17a66.21,66.21,0,0,1-3.15,10.69c-.61,1.61-1,3,0,4.59s2.1,2.69,3,4.18a13.53,13.53,0,0,1,2.13,5c.17,1.28-.28,3.33-1.86,3.52a1.53,1.53,0,0,0-1.3,2.26q6.6,11.33,12.32,23.13c.84,1.74,3.43.22,2.59-1.51Z"/><path d="M201.66,53.76c2.75-4.81,2.2-10.67-.2-15.51-2.53-5.11-7-8.92-11.42-12.41V28c2.05-1.83,4.53-3.18,6.18-5.43a8.19,8.19,0,0,0,.81-8,15.25,15.25,0,0,0-6-6.69c-.37-.24-3.78-2.66-4-2.5-.16.5-.13.62.09.38l.49-.4c.39-.3.78-.59,1.18-.87.74-.55,1.5-1.07,2.28-1.58,1.6-1.06.1-3.66-1.52-2.59-1.45,1-2.88,2-4.24,3.06-1.14.92-1.81,2.31-.86,3.63s2.57,1.89,3.79,2.65a22.24,22.24,0,0,1,3.93,3c2,2,3.49,5.22,1.83,7.9-1.41,2.29-4.12,3.63-6.09,5.39a1.51,1.51,0,0,0,0,2.12c3.89,3.1,7.86,6.37,10.38,10.73,2.35,4.08,3.19,9.33.76,13.56a1.5,1.5,0,0,0,2.6,1.51Z"/></g></g></svg>