<svg id="cirkeel" xmlns="http://www.w3.org/2000/svg" xmlns:xlink="http://www.w3.org/1999/xlink" width="456.17" height="467.474" viewBox="0 0 456.17 467.474">
  <defs>
    <clipPath id="clip-path">
      <rect id="Rectangle_278" data-name="Rectangle 278" width="456.17" height="467.474" fill="none"/>
    </clipPath>
  </defs>
  <g id="Group_632" data-name="Group 632" clip-path="url(#clip-path)">
    <path id="Path_260" data-name="Path 260" d="M223.55,0C136.976,1.328,64.3,67.352,31.345,142.608A421.031,421.031,0,0,0,14.8,188.115C8.793,207.7,2.8,227.349.7,247.8c-5.39,52.4,21.173,96.967,57.7,132.692,36.072,35.276,80.18,65.433,129.267,79.492,47.936,13.729,98.126,8.571,141.86-15.333,43.971-24.034,77.136-63.388,97.676-108.372a316.06,316.06,0,0,0,23.083-74.316c4.339-23.654,7.517-48.035,4.988-72.067-5.124-48.681-32.615-87.706-71.081-116.889-18.318-13.9-37.908-26.365-57.43-38.531C306.259,21.7,284.65,10.164,260.977,4.382A160.929,160.929,0,0,0,223.55,0c-3.559-.018-3.563,5.455,0,5.473,49.484.259,89.184,26.01,128.963,52.143,37.379,24.559,72.412,52.58,88.53,95.529,17.43,46.447,8.722,100.218-5.685,146.39-14.536,46.581-40.587,90.056-79.24,120.88-37.591,29.978-85.265,46.079-133.6,40.921-50.431-5.38-96.938-31.124-135.481-62.654C50.839,369.072,15.01,331.048,7.012,283.5c-6.591-39.19,7.482-80.12,20.676-116.817C42.377,125.826,64.732,87.554,97.763,58.538,132.456,28.062,176.582,6.193,223.55,5.475c3.556-.055,3.565-5.528,0-5.473" transform="translate(0 0.001)" fill="#4b4b4b"/>
  </g>
</svg>
