<svg xmlns="http://www.w3.org/2000/svg" xmlns:xlink="http://www.w3.org/1999/xlink" width="1921" height="973" viewBox="0 0 1921 973">
  <defs>
    <clipPath id="clip-path">
      <rect id="Rectangle_290" data-name="Rectangle 290" width="1921" height="973" transform="translate(57.629 62.036)" fill="none"/>
    </clipPath>
    <clipPath id="clip-path-2">
      <rect id="Rectangle_281" data-name="Rectangle 281" width="696.187" height="116.443" transform="translate(610.483 111.48)" fill="none"/>
    </clipPath>
    <clipPath id="clip-path-4">
      <rect id="Rectangle_284" data-name="Rectangle 284" width="1921.371" height="879.956" transform="translate(58.629 62.036)" fill="none"/>
    </clipPath>
    <clipPath id="clip-path-5">
      <rect id="Rectangle_285" data-name="Rectangle 285" width="24" height="449.995" transform="translate(1614.9 397.425)" fill="none"/>
    </clipPath>
    <clipPath id="clip-path-6">
      <rect id="Rectangle_286" data-name="Rectangle 286" width="161.27" height="24" transform="translate(1643.56 839.52)" fill="none"/>
    </clipPath>
    <clipPath id="clip-path-7">
      <rect id="Rectangle_287" data-name="Rectangle 287" width="133.02" height="24" transform="translate(1395.63 836.381)" fill="none"/>
    </clipPath>
    <clipPath id="clip-path-8">
      <rect id="Rectangle_288" data-name="Rectangle 288" width="313.24" height="24" transform="translate(1319.65 395.731)" fill="none"/>
    </clipPath>
    <clipPath id="clip-path-9">
      <rect id="Rectangle_289" data-name="Rectangle 289" width="51.66" height="53.698" transform="translate(1373.42 607.724)" fill="none"/>
    </clipPath>
  </defs>
  <g id="home-bg" transform="translate(-57.629 -62.036)">
    <rect id="Rectangle_279" data-name="Rectangle 279" width="940.927" height="973" transform="translate(1037.702 62.036)" fill="#664d3c"/>
    <path id="Path_261" data-name="Path 261" d="M959.793,367.1v667.938h1920V288.547l-4.866-25.429-391.242,25.429-450.7,146.42Z" transform="translate(-901.164)" fill="#fff"/>
    <path id="Path_262" data-name="Path 262" d="M57.629,62.036V747.458h983.427l.149-685.422Z" fill="#665039"/>
    <g id="Group_664" data-name="Group 664">
      <g id="Group_663" data-name="Group 663" clip-path="url(#clip-path)">
        <path id="Path_263" data-name="Path 263" d="M547.559,363.416a36.511,36.511,0,0,0,23.215-4.492c6.174-3.836,6.524-11.221,2.593-16.964-8.562-12.513-26.117-12.9-39.1-8.2a82.948,82.948,0,0,0-21.383,11.466,16.386,16.386,0,0,0-6.833,16.985,20.819,20.819,0,0,0,11.813,14.359c7.121,3.2,15.312,2.851,22.742.984A62.05,62.05,0,0,0,576.372,352.4c4.383-6.482,6.812-14.236,1.667-21.026a23.958,23.958,0,0,0-16.341-8.943,28.382,28.382,0,0,0-30.459,19.507c-4.116,12.308-.721,30.318,11.957,36.615,6.75,3.344,13.748,1.046,19.346-3.364a66.979,66.979,0,0,0,15.723-18.666c3.684-6.318,8.232-14.564,5.022-21.928-2.326-5.539-8.006-8.718-13.625-10.072a40.039,40.039,0,0,0-38.753,13.7,32.749,32.749,0,0,0-7.12,20.348,31.638,31.638,0,0,0,8.4,20.287c9.632,11.22,26.035,20.513,40.235,11.774,6.421-3.959,11.155-10.256,15.415-16.246A129.927,129.927,0,0,0,600.7,351.7a16.235,16.235,0,0,0,1.584-10.42,13.639,13.639,0,0,0-5.639-7.692c-6.318-4.328-14.406-2.975-20.745.43-12.574,6.626-20.724,19.857-23.955,33.333-3.108,12.862-2.676,27.9,4.61,39.385a25.418,25.418,0,0,0,14.036,11.117c7.779,2.318,16.464.288,23.461-3.261,11.669-5.846,22.906-20.061,15.539-33.292-6.38-11.446-22.927-14.81-34.987-13.559a27.349,27.349,0,0,0-17.452,7.59A22.511,22.511,0,0,0,552,395.149c2.408,11.979,14.036,20.8,25.932,21.784,13.665,1.149,24-9.23,29.306-20.738a90.9,90.9,0,0,0,6.175-20,68.051,68.051,0,0,0,1.358-24.471c-4.384-27.754-39.741-39.261-63.573-29.251a23.743,23.743,0,0,0-13.234,11.918c-2.86,6.728-1.029,14.543,2.923,20.512a33.137,33.137,0,0,0,30.871,13.682,29.231,29.231,0,0,0,25.025-22.133,31.567,31.567,0,0,0-10.681-33.23,64.988,64.988,0,0,0-22.186-10.257,94.46,94.46,0,0,0-13.048-2.707,32.287,32.287,0,0,0-11.648-.37c-6.956,1.662-7.615,9.313-5,14.852a21.862,21.862,0,0,0,14.221,11.2c14.015,3.775,27.022-5.456,33.773-17.169a70.2,70.2,0,0,0,7.594-23.158,94.521,94.521,0,0,0,1.667-12.492,9.628,9.628,0,0,0-3.725-8.6,20.238,20.238,0,0,0-9.488-2.913,47.767,47.767,0,0,0-11.731,0,50.4,50.4,0,0,0-20.7,7.22,29.8,29.8,0,0,0-13.048,14.913c-2.058,5.559-1.317,12.185,4.116,15.569,5.948,3.733,14.016,1.436,19.49-2.051a28.936,28.936,0,0,0,11.937-15.59c1.79-5.825,1.811-13.435-4.713-16.184-5.516-2.3-12.1-.205-17.144,2.338-12.6,6.318-24.223,16-31.1,28.431-6.174,11.1-10.084,29.5.391,39.425,4.446,4.1,11.772,6.154,17.2,2.687a11.241,11.241,0,0,0,4.117-14.625,1.873,1.873,0,0,0-1.667-.964,17.3,17.3,0,0,0-14.057,10.461,19.756,19.756,0,0,0,1.07,18.133c8.068,14.215,25.705,16.144,40.4,14.359,2.428-.308,2.449-4.1,0-3.856-12.349,1.538-27,.882-35.337-9.8a16.883,16.883,0,0,1-3.54-15.467,13.774,13.774,0,0,1,11.278-10.051l-1.646-.964c3.046,5.374-2.511,11.138-7.985,10.646-6.792-.575-10.8-6.81-11.958-12.944-2.2-11.815,3-24.143,10.291-33.189A69.9,69.9,0,0,1,537.042,277.8a59.754,59.754,0,0,1,14.407-8.2c3.951-1.415,10.99-2.892,13.315,1.908,2.593,5.333-1.481,13.272-4.877,17.333a22.392,22.392,0,0,1-15.353,8.431c-6.668.328-10.291-4.739-8.685-10.933,3.025-11.59,16.238-18.092,27.042-20.349a42.465,42.465,0,0,1,18.934.164c3.561.923,5.7,2.749,5.722,6.564a68.717,68.717,0,0,1-1.4,10.995c-2.058,12.779-6.174,26.666-17.308,34.523-8.87,6.318-22.494,6.871-29.636-2.523a12.019,12.019,0,0,1-2.7-7.385c.124-4.1,3.375-5.025,6.833-4.943a81.644,81.644,0,0,1,21.836,4c11.648,3.63,24.058,9.517,27.7,22.112A29.384,29.384,0,0,1,586.7,357.2c-7.059,7.528-18.09,9.292-27.722,6.338-10.167-3.138-20.827-13.395-18.275-25.128,2.346-10.769,15.456-14.728,25.067-15.343a50.9,50.9,0,0,1,31.344,7.733c10.743,7.2,15.024,18.913,14.406,31.528a84.1,84.1,0,0,1-9.24,35.158c-5.228,9.559-14.551,17.313-26.076,15.344-9.776-1.641-19-9.333-20.58-19.384a18.182,18.182,0,0,1,6.009-17.088,26.67,26.67,0,0,1,15.826-5.025c10.167-.328,24.409,2.585,29.184,12.779,5.6,11.959-6.5,23.754-16.65,28.041-6.277,2.667-13.686,4.1-20.21,1.374a22.923,22.923,0,0,1-11.216-10.851c-5.372-10.01-5.681-22.338-3.273-33.23,2.491-11.323,8.377-22.236,17.844-29.251,5.145-3.8,12.183-7.2,18.645-4.821a10.892,10.892,0,0,1,6.38,5.867c1.4,3.569-.329,7.3-1.831,10.523a136.6,136.6,0,0,1-10.291,18.461,66.712,66.712,0,0,1-12.759,15.118,20.633,20.633,0,0,1-18.687,4.328,39.282,39.282,0,0,1-16.465-10.133,32.154,32.154,0,0,1-10.064-16.7,27.512,27.512,0,0,1,3.355-18.462c6.174-11.076,19.778-17.353,32.332-16.8,5.042.226,10.8,1.826,14.262,5.744,4.713,5.333,1.647,12.308-1.152,17.846a70.23,70.23,0,0,1-11.978,16.718c-4.425,4.574-10.517,9.948-17.432,8.2-6.009-1.518-10.167-7.426-12.163-12.944a31.289,31.289,0,0,1-1.05-17.292,24.675,24.675,0,0,1,23.689-19.815,21.527,21.527,0,0,1,15.188,5.477,11.718,11.718,0,0,1,4.116,8.943,20.269,20.269,0,0,1-4.116,9.99,58.086,58.086,0,0,1-29.842,22.359c-11.278,3.631-27.557,4-32.682-8.985a12.612,12.612,0,0,1,4.24-15.2,77.279,77.279,0,0,1,17.658-10.01c11.237-4.82,26.281-6.482,35.666,3.057a12.766,12.766,0,0,1,4.116,8.02c.185,3.467-2.181,5.4-5.063,6.831a34.284,34.284,0,0,1-19.592,3.056c-2.449-.308-2.429,3.549,0,3.836Z" fill="#fff"/>
        <path id="Path_264" data-name="Path 264" d="M547.559,363.416a36.511,36.511,0,0,0,23.215-4.492c6.174-3.836,6.524-11.221,2.593-16.964-8.562-12.513-26.117-12.9-39.1-8.2a82.948,82.948,0,0,0-21.383,11.466,16.386,16.386,0,0,0-6.833,16.985,20.819,20.819,0,0,0,11.813,14.359c7.121,3.2,15.312,2.851,22.742.984A62.05,62.05,0,0,0,576.372,352.4c4.383-6.482,6.812-14.236,1.667-21.026a23.958,23.958,0,0,0-16.341-8.943,28.382,28.382,0,0,0-30.459,19.507c-4.116,12.308-.721,30.318,11.957,36.615,6.75,3.344,13.748,1.046,19.346-3.364a66.979,66.979,0,0,0,15.723-18.666c3.684-6.318,8.232-14.564,5.022-21.928-2.326-5.539-8.006-8.718-13.625-10.072a40.039,40.039,0,0,0-38.753,13.7,32.749,32.749,0,0,0-7.12,20.348,31.638,31.638,0,0,0,8.4,20.287c9.632,11.22,26.035,20.513,40.235,11.774,6.421-3.959,11.155-10.256,15.415-16.246A129.927,129.927,0,0,0,600.7,351.7a16.235,16.235,0,0,0,1.584-10.42,13.639,13.639,0,0,0-5.639-7.692c-6.318-4.328-14.406-2.975-20.745.43-12.574,6.626-20.724,19.857-23.955,33.333-3.108,12.862-2.676,27.9,4.61,39.385a25.418,25.418,0,0,0,14.036,11.117c7.779,2.318,16.464.288,23.461-3.261,11.669-5.846,22.906-20.061,15.539-33.292-6.38-11.446-22.927-14.81-34.987-13.559a27.349,27.349,0,0,0-17.452,7.59A22.511,22.511,0,0,0,552,395.149c2.408,11.979,14.036,20.8,25.932,21.784,13.665,1.149,24-9.23,29.306-20.738a90.9,90.9,0,0,0,6.175-20,68.051,68.051,0,0,0,1.358-24.471c-4.384-27.754-39.741-39.261-63.573-29.251a23.743,23.743,0,0,0-13.234,11.918c-2.86,6.728-1.029,14.543,2.923,20.512a33.137,33.137,0,0,0,30.871,13.682,29.231,29.231,0,0,0,25.025-22.133,31.567,31.567,0,0,0-10.681-33.23,64.988,64.988,0,0,0-22.186-10.257,94.46,94.46,0,0,0-13.048-2.707,32.287,32.287,0,0,0-11.648-.37c-6.956,1.662-7.615,9.313-5,14.852a21.862,21.862,0,0,0,14.221,11.2c14.015,3.775,27.022-5.456,33.773-17.169a70.2,70.2,0,0,0,7.594-23.158,94.521,94.521,0,0,0,1.667-12.492,9.628,9.628,0,0,0-3.725-8.6,20.238,20.238,0,0,0-9.488-2.913,47.767,47.767,0,0,0-11.731,0,50.4,50.4,0,0,0-20.7,7.22,29.8,29.8,0,0,0-13.048,14.913c-2.058,5.559-1.317,12.185,4.116,15.569,5.948,3.733,14.016,1.436,19.49-2.051a28.936,28.936,0,0,0,11.937-15.59c1.79-5.825,1.811-13.435-4.713-16.184-5.516-2.3-12.1-.205-17.144,2.338-12.6,6.318-24.223,16-31.1,28.431-6.174,11.1-10.084,29.5.391,39.425,4.446,4.1,11.772,6.154,17.2,2.687a11.241,11.241,0,0,0,4.117-14.625,1.873,1.873,0,0,0-1.667-.964,17.3,17.3,0,0,0-14.057,10.461,19.756,19.756,0,0,0,1.07,18.133c8.068,14.215,25.705,16.144,40.4,14.359,2.428-.308,2.449-4.1,0-3.856-12.349,1.538-27,.882-35.337-9.8a16.883,16.883,0,0,1-3.54-15.467,13.774,13.774,0,0,1,11.278-10.051l-1.646-.964c3.046,5.374-2.511,11.138-7.985,10.646-6.792-.575-10.8-6.81-11.958-12.944-2.2-11.815,3-24.143,10.291-33.189A69.9,69.9,0,0,1,537.042,277.8a59.754,59.754,0,0,1,14.407-8.2c3.951-1.415,10.99-2.892,13.315,1.908,2.593,5.333-1.481,13.272-4.877,17.333a22.392,22.392,0,0,1-15.353,8.431c-6.668.328-10.291-4.739-8.685-10.933,3.025-11.59,16.238-18.092,27.042-20.349a42.465,42.465,0,0,1,18.934.164c3.561.923,5.7,2.749,5.722,6.564a68.717,68.717,0,0,1-1.4,10.995c-2.058,12.779-6.174,26.666-17.308,34.523-8.87,6.318-22.494,6.871-29.636-2.523a12.019,12.019,0,0,1-2.7-7.385c.124-4.1,3.375-5.025,6.833-4.943a81.644,81.644,0,0,1,21.836,4c11.648,3.63,24.058,9.517,27.7,22.112A29.384,29.384,0,0,1,586.7,357.2c-7.059,7.528-18.09,9.292-27.722,6.338-10.167-3.138-20.827-13.395-18.275-25.128,2.346-10.769,15.456-14.728,25.067-15.343a50.9,50.9,0,0,1,31.344,7.733c10.743,7.2,15.024,18.913,14.406,31.528a84.1,84.1,0,0,1-9.24,35.158c-5.228,9.559-14.551,17.313-26.076,15.344-9.776-1.641-19-9.333-20.58-19.384a18.182,18.182,0,0,1,6.009-17.088,26.67,26.67,0,0,1,15.826-5.025c10.167-.328,24.409,2.585,29.184,12.779,5.6,11.959-6.5,23.754-16.65,28.041-6.277,2.667-13.686,4.1-20.21,1.374a22.923,22.923,0,0,1-11.216-10.851c-5.372-10.01-5.681-22.338-3.273-33.23,2.491-11.323,8.377-22.236,17.844-29.251,5.145-3.8,12.183-7.2,18.645-4.821a10.892,10.892,0,0,1,6.38,5.867c1.4,3.569-.329,7.3-1.831,10.523a136.6,136.6,0,0,1-10.291,18.461,66.712,66.712,0,0,1-12.759,15.118,20.633,20.633,0,0,1-18.687,4.328,39.282,39.282,0,0,1-16.465-10.133,32.154,32.154,0,0,1-10.064-16.7,27.512,27.512,0,0,1,3.355-18.462c6.174-11.076,19.778-17.353,32.332-16.8,5.042.226,10.8,1.826,14.262,5.744,4.713,5.333,1.647,12.308-1.152,17.846a70.23,70.23,0,0,1-11.978,16.718c-4.425,4.574-10.517,9.948-17.432,8.2-6.009-1.518-10.167-7.426-12.163-12.944a31.289,31.289,0,0,1-1.05-17.292,24.675,24.675,0,0,1,23.689-19.815,21.527,21.527,0,0,1,15.188,5.477,11.718,11.718,0,0,1,4.116,8.943,20.269,20.269,0,0,1-4.116,9.99,58.086,58.086,0,0,1-29.842,22.359c-11.278,3.631-27.557,4-32.682-8.985a12.612,12.612,0,0,1,4.24-15.2,77.279,77.279,0,0,1,17.658-10.01c11.237-4.82,26.281-6.482,35.666,3.057a12.766,12.766,0,0,1,4.116,8.02c.185,3.467-2.181,5.4-5.063,6.831a34.284,34.284,0,0,1-19.592,3.056c-2.449-.308-2.429,3.549,0,3.836Z" fill="none" stroke="#fff" stroke-miterlimit="10" stroke-width="0.31"/>
        <path id="Path_265" data-name="Path 265" d="M1036.848,680.543a136.186,136.186,0,0,0-17.973-41.7c-40.874-62.931-68.253-69.97-75.761-106.558-7.579-36.93,18.555-72.274,54.19-120.466,24.956-33.751,28.825-27.132,63.529-71.153,39.119-49.62,38.84-63.911,66.071-82.588,35.512-24.357,73.1-25.509,85.129-25.411,15.4.124,51.355,2.948,83.764,26.581,64.818,47.267,57.84,135.926,57.332,141.292" fill="#fff"/>
        <path id="Path_266" data-name="Path 266" d="M1044.3,678.49c-9.181-36.42-33.358-67.2-58.009-94.721-14.05-15.685-29.871-29.911-34.969-50.225-7.593-30.256,11.256-59.33,27.6-83.159,10.55-15.38,21.39-30.882,33.3-45.245,6.408-7.727,13.55-14.656,20.763-21.614,23.054-22.237,42.7-48.134,60.553-74.649,5.754-8.546,12.072-18.875,17.861-26.121a93.205,93.205,0,0,1,23.328-20.6c50.071-31.877,122.106-29.29,166.62,11.575,33.437,30.7,46.452,78.632,44.336,122.632-.067,1.393-.148,2.786-.277,4.175-.388,4.159,3.827,7.724,7.724,7.724,4.5,0,7.336-3.553,7.724-7.724,1.353-14.544.1-29.458-2.04-43.85-4.06-27.347-13.867-54.315-30.747-76.4-38.137-49.9-107.4-66.507-166.054-47.743-27.666,8.851-51.646,24.528-68.3,48.344-18.712,26.753-36.254,53.958-58.388,78.162-7.221,7.9-15.107,15.08-22.65,22.653-9.953,9.993-18.37,21.239-26.727,32.565-20.955,28.4-46.673,59.694-51.248,95.932-3.2,25.387,7.471,47.192,23.729,65.8,21.661,24.788,45.133,48.593,60.415,78.16A131.773,131.773,0,0,1,1029.4,682.6c2.428,9.634,17.331,5.552,14.9-4.107" fill="#e7d6ce"/>
        <path id="Path_267" data-name="Path 267" d="M57.859,744.87c62.733,6.678,126.928,80.842,180.907,111.648,44.143,25.192,66.122,38.167,97.835,45.741,66.361,15.85,93.09-3.66,177.882-10.164,91.788-7.041,110.6,11.975,269.363,12.705,22.262.1,67.421-.132,118.164-21.6a279.651,279.651,0,0,0,53.154-30.045c30.746-22.016,66.058-46.844,80.656-90.921,4.393-13.262,10.863-40.161,2.3-77.012" fill="#664d3c"/>
        <path id="Path_268" data-name="Path 268" d="M57.859,752.494C77,754.67,94.982,763.365,111.311,773.146c18.579,11.128,35.811,24.362,52.767,37.788,16.744,13.258,33.25,26.886,50.713,39.2,18.084,12.755,37.779,23.327,57.207,33.872,33.187,18.013,68.253,30.518,106.351,31.827,36.726,1.261,72.909-9.039,109.144-13.444,31.168-3.789,62.612-5.326,93.964-3.284,25.71,1.674,51.266,5.218,76.91,7.629,41.847,3.936,83.864,5.517,125.887,5.689s83.308-6.283,122.145-22.872a278.05,278.05,0,0,0,49.4-27.546c16.845-11.717,33.745-23.877,48.564-38.123,28.66-27.555,45.746-63.723,45.584-103.706a171.073,171.073,0,0,0-4.474-36.982c-2.166-9.566-16.869-5.517-14.7,4.053,8.838,39.045,2.343,79.475-23.35,110.937-12.559,15.379-28.026,27.995-43.99,39.662C946.1,850.512,928.379,862.389,909,871.716c-35.872,17.266-75.5,24.932-115.138,25.436-40.465.514-81.122-1.09-121.45-4.42-26.464-2.185-52.791-5.7-79.242-7.978a483.494,483.494,0,0,0-78.689-.282c-22.668,1.738-45.171,4.894-67.573,8.718-16.485,2.814-32.961,5.995-49.675,7.085-35.113,2.29-70.164-5.657-101.627-21.149-19.549-9.626-38.765-20.487-57.393-31.78-17.013-10.316-32.656-22.771-48.2-35.135-32.37-25.747-65.237-54.229-104.645-68.561a119.5,119.5,0,0,0-27.51-6.4c-4.1-.466-4.109,14.78,0,15.247" fill="#e7d6ce"/>
        <path id="Path_269" data-name="Path 269" d="M1971.954,231.066a349.239,349.239,0,0,1-69.826,29.47c-40.11,12-71.975,13.66-80,14-24.668,1.045-50.561,2.142-81.533-7.567-11.183-3.506-12.8-5.064-54.286-21-10.238-3.931-22.592-8.45-38.277-13.752-1.544-.522-2.316-.782-2.742-.923-18.947-6.242-72.465-11.79-92.983-8.583-41.389,6.468-104.265,72.574-127.179,176.821" fill="#fff"/>
        <path id="Path_270" data-name="Path 270" d="M1968.054,224.392c-43.518,24.13-92.882,39.5-142.693,42.257-25.581,1.418-51.24,1.549-76.152-5.217-11.542-3.135-22.449-7.837-33.538-12.253-23.175-9.23-46.589-19.068-70.57-26.024-19.988-5.8-41.784-7.586-62.477-8.689-16.983-.906-33.449-.82-49.221,6.125-15.292,6.734-28.757,17.673-40.448,29.459-34.226,34.5-56.877,80.235-70.042,126.61-1.956,6.887-3.683,13.833-5.236,20.821-2.155,9.691,12.743,13.83,14.9,4.109,10.617-47.751,30.664-95.119,63.329-132.083,11.187-12.66,23.9-24.384,38.865-32.431a58.45,58.45,0,0,1,17.535-6.543c6.2-1.238,16.11-1.145,23.911-.889,20.44.672,41.48,2.552,61.372,7.508,11.561,2.881,22.832,7.43,34.005,11.525,11.954,4.382,23.817,9.017,35.656,13.7,10.135,4.007,20.155,8.505,30.551,11.814,27,8.594,54.765,9.323,82.812,8.14,48.567-2.05,96.718-15.173,140.216-36.7q7.607-3.764,15.022-7.892c8.7-4.825.914-18.18-7.8-13.347" fill="#e7d6ce"/>
        <path id="Path_271" data-name="Path 271" d="M1125.328,850.852q98.914,1.563,197.759-3.9c3.84-.213,3.866-6.214,0-6q-98.777,5.468-197.759,3.9c-3.863-.061-3.864,5.939,0,6" fill="#664d3c"/>
        <path id="Path_272" data-name="Path 272" d="M1332.305,842.7V407.313c0-3.861-6-3.867-6,0V842.7c0,3.861,6,3.867,6,0" fill="#664d3c"/>
        <path id="Path_273" data-name="Path 273" d="M1329.305,410.774H1621.09c3.861,0,3.867-6,0-6H1329.305c-3.861,0-3.867,6,0,6" fill="#664d3c"/>
        <path id="Path_274" data-name="Path 274" d="M1624.365,405.036V840.418c0,3.861,6,3.867,6,0V405.036c0-3.861-6-3.867-6,0" fill="#664d3c"/>
        <path id="Path_275" data-name="Path 275" d="M1621.656,845.5H1446.408c-3.86,0-3.867,6,0,6h175.248c3.861,0,3.867-6,0-6" fill="#664d3c"/>
        <path id="Path_276" data-name="Path 276" d="M1458.027,845.678V779.6c0-3.861-6-3.867-6,0v66.077c0,3.861,6,3.867,6,0" fill="#664d3c"/>
        <path id="Path_277" data-name="Path 277" d="M1457.9,782.6h60.331c3.861,0,3.867-6,0-6H1457.9c-3.861,0-3.867,6,0,6" fill="#664d3c"/>
        <path id="Path_278" data-name="Path 278" d="M1512.358,779.6v66.435c0,3.86,6,3.867,6,0V779.6c0-3.861-6-3.867-6,0" fill="#664d3c"/>
        <path id="Path_279" data-name="Path 279" d="M1514.416,842.894H1395.291c-3.86,0-3.867,6,0,6H1806.2c3.861,0,3.867-6,0-6h-410.91c-3.86,0-3.867,6,0,6h119.125c3.861,0,3.867-6,0-6" fill="#664d3c"/>
        <path id="Path_280" data-name="Path 280" d="M1368.855,787.25a133.469,133.469,0,0,0,.064,39.1,3,3,0,0,0,2.893,2.2l39.65-.664a3.094,3.094,0,0,0,3-3,144.558,144.558,0,0,0,1.178-23.516c-.162-4.635.62-13.061-2.871-16.742-3.34-3.523-10.182-2.242-14.442-2.254l-22.717-.066c-3.862-.011-3.867,5.989,0,6l17.037.049,8.519.025c1.7.005,6.177-.765,7.457.746,1.1,1.3.714,6.573.824,8.318q.279,4.411.273,8.834a146.011,146.011,0,0,1-1.258,18.606l3-3-39.65.664,2.893,2.2a123.469,123.469,0,0,1-.064-35.915c.548-3.777-5.232-5.408-5.786-1.595" fill="#664d3c"/>
        <path id="Path_281" data-name="Path 281" d="M1540.781,787.25a133.464,133.464,0,0,0,.064,39.1,3,3,0,0,0,2.893,2.2l39.65-.664a3.094,3.094,0,0,0,3-3,144.558,144.558,0,0,0,1.178-23.516c-.162-4.635.62-13.061-2.871-16.742-3.34-3.523-10.182-2.242-14.442-2.254l-22.717-.066c-3.862-.011-3.867,5.989,0,6l17.037.049,8.519.025c1.7.005,6.177-.765,7.457.746,1.1,1.3.714,6.573.824,8.318q.279,4.411.273,8.834a145.988,145.988,0,0,1-1.258,18.606l3-3-39.65.664,2.893,2.2a123.469,123.469,0,0,1-.064-35.915c.548-3.777-5.232-5.408-5.786-1.595" fill="#664d3c"/>
        <path id="Path_282" data-name="Path 282" d="M494.445,881.559c-11.776-10.782-17.109-26.191-22.257-40.812a525.047,525.047,0,0,1-15.494-50.739c-8.243-33.686-11.608-69.6-1.026-103.188,9.438-30,30.483-55.484,37.011-86.538a79.7,79.7,0,0,0,1.53-22.871c-.757-8.853-2.843-17.505-4.39-26.224s-2.423-17.841-.606-26.728,5.249-17.958,8.142-26.828l8.9-27.08c2.809-8.568,5.265-17.338,8.714-25.671,3.028-7.361,7.571-14.42,14.922-18.059,6.73-3.353,14.906-2.465,19.246,4.024a10.368,10.368,0,0,1,1.514,9.055,2.135,2.135,0,0,0,2.591,2.582c4.525-.972,11.507-1.677,15.309,1.677,5.6,5.03-4.341,12.995-7.789,15.963a65.056,65.056,0,0,1-41.419,15.594l1.817,1.039c-3.365-4.879,4.357-9.977,7.991-11.9a183.16,183.16,0,0,1,19.4-9.189c12.247-4.745,25.235-6.455,37.835-2.364,22.644,7.311,38.828,28.052,52.387,46.4,3.718,5.031,8.765,11.738,6.73,18.31-1.784,5.6-7.941,8.518-12.786,11.034-10.8,5.583-21.735,11.083-31.661,18.142s-18.505,15.46-23.973,26.191c-5.972,11.737-7.839,25-7.89,38.029a280.239,280.239,0,0,0,3.718,42.254,384.875,384.875,0,0,0,9.135,43.8c.992,3.672,2.052,7.327,3.146,10.966a2.1,2.1,0,0,0,4.054-1.107,386.8,386.8,0,0,1-12.853-58.687c-2.523-18.327-4.878-37.811-1.329-56.138a62.041,62.041,0,0,1,9.657-23.81,74.19,74.19,0,0,1,17.243-17.052A176.95,176.95,0,0,1,622.687,539c6.932-3.723,14.738-6.708,20.912-11.738,6.645-5.332,7.906-13.095,4.441-20.691s-9.219-13.934-14.232-20.222c-9.791-12.24-20.861-24.2-34.673-31.959a55.573,55.573,0,0,0-47.02-4.443,155.164,155.164,0,0,0-25.521,11.586c-5.2,2.817-12.92,9.138-9.993,15.929a3.364,3.364,0,0,0,3.785,2.532,54.9,54.9,0,0,0,6.612-.5,69.058,69.058,0,0,0,12.062-2.532,70.127,70.127,0,0,0,22.1-11.737,60.828,60.828,0,0,0,9.068-8.568c2.423-2.834,4.492-6.188,4-10.061-.791-6.237-7.217-8.484-12.7-8.9a33.632,33.632,0,0,0-9.438.754l2.591,2.582c2.086-6.623-1.346-13.414-6.814-17.27-6.224-4.377-14.3-3.656-20.76-.218-7.183,3.823-12.011,10.647-15.241,17.924-3.752,8.384-6.242,17.472-9.118,26.225l-9.32,28.387c-3.029,9.239-6.73,18.445-8.412,28.069-3.55,18.83,4.088,36.721,5.165,55.334,1.918,33.535-20.188,61.906-32.822,91.2a151.547,151.547,0,0,0-12.281,51.174,216.884,216.884,0,0,0,4.172,53.959,417.84,417.84,0,0,0,14.586,53.656c2.792,8.384,5.619,16.768,8.849,24.917a96.475,96.475,0,0,0,11.086,21.513,57.45,57.45,0,0,0,7.638,8.635c1.985,1.828,5.047-1.14,2.961-2.968Z" fill="#fff"/>
        <path id="Path_283" data-name="Path 283" d="M587.393,710.73a423.016,423.016,0,0,0,28.061,57.865q8.093,13.884,17.244,27.1c2.977,4.309,5.938,8.719,9.252,12.793A20.186,20.186,0,0,0,652.3,815.8c3.246.738,8.848-.419,8.26-4.678a16.986,16.986,0,0,0-5.249-9.826,27.716,27.716,0,0,0-22.526-6.707c-15.343,2.012-27.994,14.822-31.83,29.461-2.187,8.383-1.564,18.444,3.55,25.637,2.608,3.706,6.595,6.624,11.339,6.288a9.618,9.618,0,0,0,9-6.807,2.058,2.058,0,0,0-.538-2.029c-20.861-17.74-49.914-16.936-75.1-10.9-8.126,1.945-16.134,4.393-24.142,6.841a2.11,2.11,0,0,0-.5,3.823c10.952,7.394,25.066,8.2,37.549,4.712,13.458-3.723,24.9-12.358,34.891-21.8s19.666-19.585,26.278-31.591a57.94,57.94,0,0,0,6.729-18.36,55.331,55.331,0,0,0-1.026-21.345c-1.683-7.764-4.189-15.393-6.393-23.039l-6.729-23.558q-6.729-23.576-13.56-47.134c-3.482-11.972-7.94-25.588-19.195-32.529-9.539-5.886-23.317-6.188-30.281,3.655s-2.255,23.19,3.364,32.345c6.729,10.865,17.95,19.366,21.315,32.177a21.276,21.276,0,0,1,.353,9.49l1.464-1.459c-34.387,11.117-57.72,40.595-75.586,70.424-4.559,7.613-8.631,15.494-13.021,23.207-1.969,3.454-4.526,7.579-8.412,8.92a7.16,7.16,0,0,1-8.411-3.1c-4.745-6.925-3.651-16.684-3.819-24.581q-.371-17.119-1.683-34.24a616.418,616.418,0,0,0-10.834-76.477c-.555-2.632-4.609-1.526-4.054,1.107a607.906,607.906,0,0,1,10.279,70.424q1.5,17.857,1.9,35.631c.252,8.92-.74,18.646,2.792,27.1,2.86,6.841,9.825,11.267,17.025,7.344a23.976,23.976,0,0,0,8.412-9.373c2.3-3.957,4.374-8.066,6.612-12.073,8.916-16,18.656-31.724,30.7-45.608,13.29-15.326,29.558-28.22,49.073-34.541a2.117,2.117,0,0,0,1.48-1.459c5.047-25.587-27.354-38.348-28.381-62.627a15.257,15.257,0,0,1,6.141-13.6,17.9,17.9,0,0,1,14.855-1.76c12.3,3.353,18.169,15.426,21.87,26.61,4.559,14.051,8.26,28.4,12.348,42.59l12.735,44.3c2.052,7.143,4.357,14.353,4.929,21.8a45.618,45.618,0,0,1-2.54,18.763c-4.239,12.072-12.617,22.368-21.382,31.489-16.958,17.69-41.015,37.543-67.293,28.74a33.87,33.87,0,0,1-8.277-4.142l-.5,3.84c24.814-7.579,51.731-15.611,77.386-6.942a54.451,54.451,0,0,1,17.765,9.91l-.538-2.029c-.858,3.27-4.946,4.443-7.907,3.354-3.768-1.359-6.056-5.349-7.318-8.921a30.518,30.518,0,0,1,.505-20.674c4.761-13.062,17.714-24.028,32.149-23.324,7.721.386,17.428,5.03,18.253,13.682l.622-1.492c-2.557,2.415-6.157.319-8.411-1.476a40.79,40.79,0,0,1-7.3-8.6q-7.419-10.263-14.2-20.96a418.662,418.662,0,0,1-24.142-43.6c-4.172-8.685-8.007-17.539-11.557-26.493-.976-2.481-5.047-1.408-4.054,1.107Z" fill="#fff"/>
        <path id="Path_284" data-name="Path 284" d="M492.342,603.954c.942-9.138,10.565-13.414,18.5-14.89,4.223-.771,8.883-.5,12.937-2,3.786-1.392,6.174-4.544,8.008-7.981,3.8-7.127,7.47-14.186,12.836-20.306a48.375,48.375,0,0,1,9.085-8.183,42.9,42.9,0,0,1,5.047-2.867c1.547-.738,4.357-2.28,6.005-1.056,2.255,1.677.2,6.254-.723,8.132-1.682,3.521-3.651,6.925-5.2,10.547a110.085,110.085,0,0,0-6.73,22.167,118.678,118.678,0,0,0,.371,46.949,112.177,112.177,0,0,0,22.139,47.385c1.682,2.1,4.66-.888,2.977-2.967-20.927-25.873-28.212-61.689-20.827-93.95a104.662,104.662,0,0,1,8.277-23.206c2.406-4.829,8.412-14.152,1.986-18.528-3.483-2.364-7.705-.486-11.053,1.19a45.176,45.176,0,0,0-10.3,7.278,75.594,75.594,0,0,0-14.8,20.205c-2.036,3.789-3.785,9.389-8.126,11.15a28.678,28.678,0,0,1-7.638,1.241,65.047,65.047,0,0,0-7.822,1.291c-9.236,2.2-18.035,8.384-19.078,18.444-.286,2.683,3.937,2.65,4.206,0Z" fill="#fff"/>
        <path id="Path_285" data-name="Path 285" d="M581.942,568.641l.135,66.215a2.1,2.1,0,0,0,4.2,0l-.134-66.215a2.1,2.1,0,0,0-4.206,0" fill="#fff"/>
        <path id="Path_286" data-name="Path 286" d="M586.838,611.466l3.7-13.531-3.1,1.24a19.24,19.24,0,0,1,8.547,20.658,2.108,2.108,0,0,0,.958,2.364c5.872,2.8,11.641-2.3,12.55-8.031.64-3.941-.37-7.8-.756-11.738a49.273,49.273,0,0,1,.084-10.345,48.491,48.491,0,0,1,7.2-20.289c1.076-1.677,4.037-7.043,6.729-5.148,2.287,1.677,2.186,6.07,2.255,8.484a48.629,48.629,0,0,1-6.174,25.035h3.633c-6.545-14.991-.117-34.055,13.9-42.355L633.2,556c3.263,26.928-10.65,51.979-12.281,78.522-1.683,28.338,9.907,55.434,19.75,81.39l15.864,41.92c5.047,13.1,10.094,26.308,12.415,40.242,2.052,12.056,1.682,24.531-3.045,35.916-4,9.591-10.952,18.344-20.474,22.938-4.307,2.079-11.776,4.863-15.914,1.241a24.192,24.192,0,0,1-4.846-7.21,47.484,47.484,0,0,1-3.179-8.132,50.256,50.256,0,0,1,2.119-33.871,49.581,49.581,0,0,1,4.224-7.562c1.513-2.23-2.12-4.343-3.635-2.113a53.223,53.223,0,0,0-8.7,34.307,54.046,54.046,0,0,0,4.389,17.136c2.239,5.03,5.552,11.737,11.507,12.995,5.367,1.14,11.576-.989,16.352-3.354a41.128,41.128,0,0,0,12.551-9.708,56.5,56.5,0,0,0,13.459-29.9c1.9-14.168-1.078-28.5-5.333-42.053-4.594-14.521-10.414-28.672-15.815-42.908s-11.052-28.757-16.284-43.244c-5.047-13.833-9.505-28.086-10.919-42.791s1.078-28.505,4.661-42.523c3.365-13.414,7.453-26.962,7.789-40.912a72.485,72.485,0,0,0-.487-10.279,2.14,2.14,0,0,0-3.164-1.811c-16.149,9.558-22.862,31-15.409,48.09a2.122,2.122,0,0,0,3.633,0,53.259,53.259,0,0,0,6.729-22.737c.3-5.282.724-15.577-6.073-17.3-3.364-.855-6.224,1.426-8.143,3.891a46.872,46.872,0,0,0-5.836,9.708,53.01,53.01,0,0,0-4.8,21.8c0,4.477,1.111,8.8,1.2,13.246a8.663,8.663,0,0,1-1.683,6.054,4.279,4.279,0,0,1-4.794,1.676l.976,2.364a23.525,23.525,0,0,0-10.481-25.386,2.116,2.116,0,0,0-3.078,1.258l-3.7,13.548a2.1,2.1,0,0,0,4.053,1.107Z" fill="#fff"/>
        <path id="Path_287" data-name="Path 287" d="M605.612,545.7a42.769,42.769,0,0,0-10.094,30.4c.37,4.795,2.254,10.06,7.486,11.351,5.485,1.325,8.412-3.47,9.59-7.981,2.557-9.205,3.734-24.665,16.3-25.353,4.324-.234,9.017.755,13.1-1.14,4.946-2.28,4.728-7.26,6.561-11.637a19.96,19.96,0,0,1,24.5-10.563c2.54.939,3.634-3.119,1.11-4.041a23.93,23.93,0,0,0-23,4.46,22.071,22.071,0,0,0-6.948,9.792c-.74,2.08-.807,4.528-1.985,6.422a6.27,6.27,0,0,1-5.333,2.5c-4.172.268-8.412-.554-12.516.754a18.871,18.871,0,0,0-10.2,9.038c-2.591,4.628-3.567,9.876-4.728,14.99a22.119,22.119,0,0,1-2.321,7.311c-1.43,2.079-3.937,1.677-5.518,0-1.968-2.213-2-5.785-2-8.568a36.915,36.915,0,0,1,.959-8.384,38.961,38.961,0,0,1,8.092-16.3c1.682-2.063-1.228-5.031-2.978-2.968Z" fill="#fff"/>
        <path id="Path_288" data-name="Path 288" d="M1415.629,408.036h-59a139.118,139.118,0,0,0-6-83l96-10-31,93" fill="#664d3c"/>
        <g id="Group_638" data-name="Group 638" style="isolation: isolate">
          <g id="Group_637" data-name="Group 637">
            <g id="Group_636" data-name="Group 636" clip-path="url(#clip-path-2)">
              <g id="Group_635" data-name="Group 635" style="isolation: isolate">
                <g id="Group_634" data-name="Group 634">
                  <g id="Group_633" data-name="Group 633" clip-path="url(#clip-path-2)">
                    <text id="Eyeopener" transform="translate(610.483 202.201)" fill="#fff" font-size="106.729" font-family="Termina-Thin, Termina" font-weight="200"><tspan x="0" y="0" letter-spacing="-0.051em">E</tspan><tspan y="0" letter-spacing="-0.018em">y</tspan><tspan y="0">eopener</tspan></text>
                  </g>
                </g>
              </g>
            </g>
          </g>
        </g>
        <path id="Path_289" data-name="Path 289" d="M594.535,329.036c-2.092-21.231-.162-43.43,12.312-61.388,6.669-9.6,14.082-17.789,18.337-28.909a84.622,84.622,0,0,0,4.922-35.935c-.163-2.434-3.976-2.453-3.812,0,.9,13.522-.934,27.193-6.754,39.535C614.8,252.4,606.795,260.081,601.093,269.5c-10.769,17.8-12.367,39.264-10.37,59.532.239,2.419,4.053,2.443,3.812,0" fill="#fff"/>
        <path id="Path_290" data-name="Path 290" d="M1538.748,437.83q-.484,12.9-.97,25.806c-.15,3.97-.329,7.939-.448,11.91-.072,2.394-.38,5.021,1.392,6.946,1.808,1.963,4.433,1.9,6.906,2.094,3.825.3,7.669.467,11.5.64q12.469.563,24.953.573a3.024,3.024,0,0,0,2.893-2.2,258.8,258.8,0,0,0,2.527-45.426,3.05,3.05,0,0,0-3-3l-37.629.034c-3.861,0-3.868,6,0,6l37.629-.034-3-3A250,250,0,0,1,1579.189,482l2.893-2.2c-6.4-.015-12.8-.118-19.2-.342q-4.8-.168-9.59-.418c-2.068-.108-8.639.443-9.81-1.045-1.187-1.509.035-7.474.107-9.395q.186-4.963.373-9.926.393-10.42.784-20.843c.145-3.862-5.855-3.855-6,0" fill="#664d3c"/>
        <path id="Path_291" data-name="Path 291" d="M1373.653,437.83q-.484,12.9-.97,25.806c-.15,3.97-.329,7.939-.448,11.91-.072,2.394-.38,5.021,1.392,6.946,1.808,1.963,4.433,1.9,6.906,2.094,3.825.3,7.669.467,11.5.64q12.469.563,24.953.573a3.024,3.024,0,0,0,2.893-2.2,258.8,258.8,0,0,0,2.527-45.426,3.05,3.05,0,0,0-3-3l-37.629.034c-3.861,0-3.868,6,0,6l37.629-.034-3-3A250,250,0,0,1,1414.094,482l2.893-2.2c-6.4-.015-12.8-.118-19.2-.342q-4.8-.168-9.591-.418c-2.068-.108-8.639.443-9.81-1.045-1.187-1.509.035-7.474.107-9.395q.188-4.963.373-9.926.393-10.42.784-20.843c.145-3.862-5.855-3.855-6,0" fill="#664d3c"/>
        <path id="Path_292" data-name="Path 292" d="M1538.2,524.579c-1.687,12.962-.237,26.349.278,39.363.147,3.714-.157,7.647,4.328,8.358,6.089.964,13.3-.254,19.468-.393,6.825-.154,13.852.166,20.648-.466,3.505-.326,5.537-1.883,5.816-5.532.506-6.619-.438-13.677-.666-20.318q-.374-10.9-.746-21.8c-.052-1.5-1.338-3.166-3-3a271.037,271.037,0,0,1-40.593.995c-3.86-.2-3.849,5.806,0,6a271.037,271.037,0,0,0,40.593-.995l-3-3q.56,16.352,1.119,32.7c.076,2.2.928,5.85.272,7.928-.738,2.337,1.317,0-.778,1.043-.847.42-2.971.067-3.933.089l-16.716.377c-5.008.113-10.821-.579-15.732.355-2.763.526-1.052-.516-.932,1.392-.078-1.242-.1-2.49-.148-3.734l-.3-7.467c-.42-10.6-1.358-21.332.017-31.9.5-3.818-5.508-3.781-6,0" fill="#664d3c"/>
        <path id="Path_293" data-name="Path 293" d="M1370.832,524.579c-1.687,12.962-.237,26.349.278,39.363.147,3.714-.157,7.647,4.328,8.358,6.089.964,13.3-.254,19.468-.393,6.825-.154,13.852.166,20.648-.466,3.505-.326,5.537-1.883,5.816-5.532.506-6.619-.438-13.677-.666-20.318q-.374-10.9-.746-21.8c-.052-1.5-1.338-3.166-3-3a271.039,271.039,0,0,1-40.593.995c-3.86-.2-3.849,5.806,0,6a271.039,271.039,0,0,0,40.593-.995l-3-3q.56,16.352,1.12,32.7c.075,2.2.927,5.85.271,7.928-.738,2.337,1.317,0-.778,1.043-.847.42-2.971.067-3.933.089l-16.716.377c-5.008.113-10.821-.579-15.732.355-2.763.526-1.052-.516-.932,1.392-.078-1.242-.1-2.49-.148-3.734l-.3-7.467c-.42-10.6-1.358-21.332.017-31.9.5-3.818-5.508-3.781-6,0" fill="#664d3c"/>
        <path id="Path_294" data-name="Path 294" d="M1538.293,611.512q-.006,13.5-.012,27c0,4.388-.529,9.157-.005,13.5.283,2.337.792,3.671,3.025,4.77,6.181,3.041,15.181,3.283,21.916,3.212,4.391-.047,8.785-.288,13.173-.455,2.287-.087,6.464.613,8.363-1.244,2.07-2.026,1.449-6.416,1.585-8.92q.345-6.342.544-12.689t.25-12.7c.031-3.885.808-8.723-.138-12.521a3.976,3.976,0,0,0-3.611-3.357c-3.735-.674-8.451.081-12.237.139l-27.151.418c-3.856.059-3.868,6.059,0,6l20.364-.314,9.7-.149,4.848-.075,2.909-.044q2.286-.072-.69.134c-.7,2.838.032,6.826.008,9.769q-.039,4.885-.166,9.768-.139,5.371-.384,10.74c-.151,3.307.324,7.774-.843,10.88l2.094-2.1c-2.809.659-6.3.292-9.167.4-3.148.119-6.3.276-9.449.313a61.127,61.127,0,0,1-10.55-.62c-1.83-.3-3.625-.875-5.451-1.158l-1.8-.453q-1.608.934-1.137-.715c-1.021-2.064,0-7.313.005-9.642q0-4.822,0-9.643,0-10.125.008-20.249c0-3.861-6-3.867-6,0" fill="#664d3c"/>
        <path id="Path_295" data-name="Path 295" d="M1375.475,611.512q-.006,13.5-.011,27c0,4.388-.53,9.157-.005,13.5.282,2.337.791,3.671,3.024,4.77,6.181,3.041,15.181,3.283,21.916,3.212,4.391-.047,8.785-.288,13.173-.455,2.287-.087,6.465.613,8.363-1.244,2.071-2.026,1.449-6.416,1.585-8.92q.345-6.342.544-12.689t.25-12.7c.031-3.885.808-8.723-.138-12.521a3.976,3.976,0,0,0-3.611-3.357c-3.735-.674-8.45.081-12.235.139l-27.152.418c-3.857.059-3.869,6.059,0,6l20.364-.314,9.7-.149,4.848-.075,2.909-.044q2.286-.072-.69.134c-.7,2.838.032,6.826.008,9.769q-.039,4.885-.166,9.768-.139,5.371-.384,10.74c-.151,3.307.325,7.774-.843,10.88l2.095-2.1c-2.81.659-6.3.292-9.168.4-3.148.119-6.3.276-9.449.313a61.127,61.127,0,0,1-10.55-.62c-1.83-.3-3.625-.875-5.451-1.158l-1.8-.453q-1.608.934-1.136-.715c-1.021-2.064,0-7.313,0-9.642q0-4.822,0-9.643,0-10.125.008-20.249c0-3.861-6-3.867-6,0" fill="#664d3c"/>
        <path id="Path_296" data-name="Path 296" d="M1537.432,705.231c-.147,8.961-.3,17.934.191,26.888.26,4.738-1.05,14.848,5.009,16.468,3.346.9,7.563.21,11,.211l12.647.006c4.54,0,9.082.048,13.621.007,2.249-.02,5.2.246,6.858-1.7,1.965-2.3,1.211-6.456,1.24-9.181q.066-6.21.131-12.42l.131-12.421c.033-3.074.911-7.226-.387-10.122-1.072-2.392-3.256-2.941-5.658-3.17-4.453-.424-9.026-.41-13.495-.476-9.006-.131-18.005.123-26.993.7-3.834.244-3.862,6.246,0,6,12.906-.821,25.661-.324,38.562-.32,2.618,0,2.013-.8,2.032,1.661.01,1.273-.027,2.548-.041,3.822q-.049,4.776-.1,9.554c-.071,6.677.058,13.392-.212,20.063-.09,2.224.384,1.666-2.068,2.014a35.725,35.725,0,0,1-4.864,0l-9.729-.005-9.73-.005c-2.674,0-7.267.916-9.729,0-1.724-.645-1.308-.654-1.64-3.016-.221-1.58-.293-3.2-.4-4.785-.226-3.193-.361-6.391-.436-9.591-.159-6.723-.047-13.449.063-20.172.063-3.862-5.937-3.863-6,0" fill="#664d3c"/>
        <path id="Path_297" data-name="Path 297" d="M1370.06,705.231c-.147,8.961-.3,17.934.191,26.888.26,4.738-1.05,14.848,5.009,16.468,3.346.9,7.563.21,11,.211l12.647.006c4.54,0,9.082.048,13.621.007,2.249-.02,5.2.246,6.858-1.7,1.965-2.3,1.211-6.456,1.24-9.181q.066-6.21.131-12.42l.131-12.421c.033-3.074.911-7.226-.387-10.122-1.072-2.392-3.256-2.941-5.658-3.17-4.453-.424-9.026-.41-13.495-.476-9.006-.131-18.005.123-26.993.7-3.834.244-3.862,6.246,0,6,12.906-.821,25.661-.324,38.562-.32,2.618,0,2.013-.8,2.032,1.661.01,1.273-.027,2.548-.041,3.822q-.05,4.776-.1,9.554c-.071,6.677.058,13.392-.212,20.063-.09,2.224.384,1.666-2.068,2.014a35.725,35.725,0,0,1-4.864,0l-9.729-.005-9.73-.005c-2.674,0-7.267.916-9.729,0-1.724-.645-1.308-.654-1.64-3.016-.221-1.58-.293-3.2-.405-4.785-.226-3.193-.361-6.391-.436-9.591-.159-6.723-.047-13.449.063-20.172.063-3.862-5.937-3.863-6,0" fill="#664d3c"/>
        <path id="Path_298" data-name="Path 298" d="M1886.629,273.036a504.292,504.292,0,0,0,50-18c15.379-6.471,29.388-13.264,42-20v63l-92-25" fill="#fff"/>
        <g id="Group_647" data-name="Group 647" opacity="0.44">
          <g id="Group_646" data-name="Group 646">
            <g id="Group_645" data-name="Group 645" clip-path="url(#clip-path-4)">
              <path id="Path_299" data-name="Path 299" d="M58.629,135.684c3.314,87.312,0,334.174,0,334.174s-.939,58.006,0,87.116c1.16,35.969-.6,107.281-.6,107.281s-5.1,46.819-1.628,64c9.917,49.122,44.879,63.87,87.59,94.279,44.716,31.835,96.746,54.162,148.671,71.219,46.183,15.17,93.973,24.981,141.967,32.342,109.149,16.741,222.725,26.9,330.529-4.285a426.25,426.25,0,0,0,93.764-39.455c28.321-16.327,56.514-36.685,77.779-61.679,13.181-15.493,26.364-31.85,35.1-50.38,13.016-27.6,19.326-49.677,21.561-80.347,3.3-45.259-18.085-84.792-35.372-124.8q4.837,11.466,9.677,22.932a217.137,217.137,0,0,1-14.7-52.719L956.4,560.88a245.569,245.569,0,0,1,.3-65.3l-3.429,25.52a303.583,303.583,0,0,1,20.228-72.453l-9.678,22.932a348.57,348.57,0,0,1,43.987-75.467l-15.011,19.429c28.041-36.111,61.625-67.121,97.667-95.091q-9.714,7.506-19.428,15.011c26.886-20.7,54.948-39.77,83.378-58.272,28.363-18.46,56.6-37.746,87.853-51.046l-22.933,9.677c13.175-5.39,26.618-9.555,40.745-11.513l-25.521,3.429a107.052,107.052,0,0,1,25.811.063l-25.521-3.43a90.753,90.753,0,0,1,19.353,5.36l-22.932-9.678a90.675,90.675,0,0,1,17.543,10.269l-19.428-15.011a124.65,124.65,0,0,1,19.98,20.441q-7.506-9.714-15.01-19.429a431.7,431.7,0,0,1,51.542,87.837q-4.839-11.467-9.677-22.933c6.1,14.5,10.7,29.312,12.848,44.925q-1.716-12.76-3.429-25.52a139.153,139.153,0,0,1,.778,21.81c-.994,22.918,11.188,52.341,28.118,67.883,15.857,14.556,33.694,23.523,55.122,26.4,20.464,2.75,43.334.134,61.214-11.392,20.15-12.992,39.281-33.014,44.117-57.373A211.126,211.126,0,0,1,1487,308.351q-4.841,11.466-9.677,22.932a218.138,218.138,0,0,1,26.3-45.332q-7.506,9.714-15.01,19.429a216.07,216.07,0,0,1,36.8-37.292L1505.989,283.1a205.955,205.955,0,0,1,44.422-26.106l-22.932,9.678a216.1,216.1,0,0,1,52.007-14.175l-25.521,3.43a217.9,217.9,0,0,1,56.9.105l-25.52-3.43a219.5,219.5,0,0,1,52.686,14.973L1615.1,257.9c29.035,12.471,57.03,27.518,87.039,37.672,33.528,11.344,68.826,12.929,103.54,8.265,15.358-2.064,30.241-4.348,45.047-9,18.651-5.865,36.743-13.853,54.495-21.949,22.815-10.4,44.41-23.254,65.781-36.31,13.521-8.26,7.8-41.348,7.8-41.348V78.924c-13.487-17.458-30.727-17.817-30.727-17.817l-180.672.929H905.21l-360.527,1.41s-453.12-15.382-468.1.938c-15.264-.727-17.952,50.745-17.952,50.745s-4.486,39.948,7.04,57.827c13.045,20.233,32.984,39.109,57.373,44.118C345.9,262.842,569.72,308.043,796.913,325.735c61.613,4.8,123.389,7.36,185.191,7.24v-192q-318.525,30.589-638.928,32.2-90.389.426-180.768-1.48c-24.291-.506-50.829,11.064-67.882,28.118-16.651,16.65-29.189,43.968-28.118,67.882,1.112,24.828,9.267,50.578,28.118,67.882l19.429,15.011a95.557,95.557,0,0,0,48.453,13.107q15.99,2.145,31.981,4.293l-25.521-3.429c144.491,19.421,288.992,39.3,432.4,65.7q61.691,11.361,123.038,24.466V269.584q-18.674,3.534-37.5,6.1l25.52-3.43c-71.9,9.6-144.52,9.378-216.909,10.242-78.542.938-157.218,4.29-234.488,19.631-46.7,9.271-90.85,25.211-134.054,45.16L107.452,362.3A71.952,71.952,0,0,0,87.6,393.2c-8.05,19.075-11.395,42.25-4.839,62.507a114.242,114.242,0,0,0,24.689,42.362,71.961,71.961,0,0,0,30.895,19.85,72.313,72.313,0,0,0,36.987,8.268q49.844,5.815,99.581,12.482l-25.52-3.429Q437.67,560.6,623.976,598.416q52.688,10.715,105.164,22.428l25.521-188.571-470.8,19.849-134,5.65c-24.141,1.017-51,9.731-67.882,28.117-14.557,15.858-20.471,34.192-23.35,55.62-2.75,20.465-3.188,42.837,8.339,60.716,13.014,20.185,33,39.208,57.373,44.117l487.278,98.149,137.438,27.683L774.578,583.6l-425.852-13.9-120.112-3.92c-24.1-.787-51.028,11.263-67.882,28.117-16.651,16.651-29.189,43.969-28.118,67.883,2.393,53.415,42.173,94.243,96,96l425.852,13.9L774.578,775.6c23.073.753,52.177-11.01,67.882-28.118,14.557-15.857,23.524-33.694,26.4-55.122,2.75-20.465.135-43.334-11.392-61.213-13.014-20.185-33-39.209-57.373-44.118L312.82,488.884,175.382,461.2,149.861,649.772l470.8-19.85,134-5.649c24.141-1.018,51-9.732,67.882-28.118,14.557-15.857,23.524-33.694,26.4-55.122,2.75-20.465.135-43.334-11.392-61.213-13.179-20.441-32.912-38.666-57.373-44.118q-224.787-50.1-453.11-81.963c-50.512-7.031-101.082-13.645-151.737-19.555l48.453,178.893q7.159-3.306,14.408-6.4l-22.932,9.678c44.2-18.473,90.81-29.484,138.193-35.925l-25.521,3.429c110.2-14.51,221.669-5.74,332.263-14.172A1048.762,1048.762,0,0,0,775.35,454.725l22.933-9.677a72.553,72.553,0,0,0,26.934-24.726c12.51-16.192,21.555-37.139,20.613-58.167A113.875,113.875,0,0,0,832.723,313.7c-10.361-19.61-35.571-39.445-57.373-44.118-151.936-32.569-305.628-55.923-459.5-77.143q-76.693-10.576-153.441-20.75v192q319.92,6.666,639.545-15.712,90.168-6.34,180.151-15a72.313,72.313,0,0,0,36.987-8.268,71.954,71.954,0,0,0,30.894-19.85c16.651-16.65,29.19-43.969,28.119-67.882-1.113-24.828-9.269-50.578-28.119-67.883-18.761-17.222-41.887-28.168-67.881-28.117-117.716.23-235.161-9.535-351.781-25.118l25.521,3.43c-125.8-16.938-376.469-55.841-376.469-55.841S157.07,157.646,148.563,220.5a3177.051,3177.051,0,0,0,324.828,9.268C581.814,227.4,689.721,218.509,797.7,208.94c106.943-9.477,213.774-17.078,321.192-17.212,108.815-.136,217.555,4.9,326.252,9.369l181.291,7.455c57.711,2.374,115.56,4.157,172.887,11.694l-25.52-3.429c41.99,5.7,83.434,14.673,123.224,29.432L1874.094,70.785c-24.167,14.763-48.625,29.1-74.715,40.231l22.933-9.677c-17.712,7.334-35.9,12.98-54.916,15.638l25.52-3.43a155.551,155.551,0,0,1-37.577.1l25.521,3.429c-15.818-2.307-30.693-7.292-45.382-13.486l22.933,9.677c-34.356-14.866-67.649-33.877-104.326-42.491-44.725-10.5-86.652-9.933-131.582-2.521a204.619,204.619,0,0,0-41.894,11.58c-19.946,7.887-40.021,16.055-58.046,27.829-35.912,23.46-63.067,51.3-88.022,85.827a211.444,211.444,0,0,0-21.912,38.35c-9.406,21.25-18.258,42.259-22.789,65.083l188.571,25.52c2.132-49.2-15.621-96.973-38.635-139.565-8.166-15.11-17.151-29.828-26.372-44.313-12.046-18.921-25.281-38.165-41.748-53.486-21.868-20.348-49.1-15.615-78.3-23.04-31.383-7.98-136.581-7.318-158.051,2.8a397.977,397.977,0,0,0-43.662,24.6C1029.125,129.17,966.528,170.439,911.8,220.65c-59,54.128-104.606,120.222-130.733,196.053a291.869,291.869,0,0,0-12.528,50.514c-3.774,24.435-7.222,49.112-6,73.894,1.231,24.884,4.541,50.486,11.525,74.477,7.325,25.165,19.433,48.671,29.8,72.667q-4.838-11.468-9.677-22.933c4.5,10.727,8.239,21.523,10.049,33.047l-3.429-25.521a92.81,92.81,0,0,1-.033,22.592l3.43-25.52a105.181,105.181,0,0,1-6.744,23.852l9.677-22.932A137.689,137.689,0,0,1,791.351,697.6l15.011-19.429a190.205,190.205,0,0,1-32.651,32.614l19.429-15.011A297.268,297.268,0,0,1,728.8,733.054l22.933-9.677c-31,12.947-63.574,21-96.8,25.59l25.521-3.429c-64.488,8.494-129.825,4.342-194.072-4.232l25.521,3.429c-72.347-9.82-144.776-24.2-212.335-52.629l22.932,9.678c-33.163-14.182-64.669-31.756-93.318-53.732L248.6,663.063c-18.1-14.116-35.17-29.632-49.388-47.714l15.011,19.429a153.833,153.833,0,0,1-18.52-30.989q4.838,11.466,9.677,22.933a150.03,150.03,0,0,1-9.317-35l3.429,25.521c-4.274-31.944-3.832-64.72-4.73-96.895q-1.422-50.949-2.115-101.917-1.36-100.11.089-200.231.831-57.336,2.583-114.652c.732-24.142-39.516-40.1-39.516-40.1H58.629s.181,22.216,0,28.19" fill="#c69c6d"/>
            </g>
          </g>
        </g>
        <g id="Group_650" data-name="Group 650" opacity="0.44">
          <g id="Group_649" data-name="Group 649">
            <g id="Group_648" data-name="Group 648" clip-path="url(#clip-path-5)">
              <path id="Path_300" data-name="Path 300" d="M1614.9,409.016V835.828c0,15.443,24,15.468,24,0V409.016c0-15.443-24-15.468-24,0" fill="#c69c6d"/>
            </g>
          </g>
        </g>
        <g id="Group_653" data-name="Group 653" opacity="0.44">
          <g id="Group_652" data-name="Group 652">
            <g id="Group_651" data-name="Group 651" clip-path="url(#clip-path-6)">
              <path id="Path_301" data-name="Path 301" d="M1655.148,863.52h138.086c15.443,0,15.469-24,0-24H1655.148c-15.443,0-15.469,24,0,24" fill="#c69c6d"/>
            </g>
          </g>
        </g>
        <g id="Group_656" data-name="Group 656" opacity="0.44">
          <g id="Group_655" data-name="Group 655">
            <g id="Group_654" data-name="Group 654" clip-path="url(#clip-path-7)">
              <path id="Path_302" data-name="Path 302" d="M1407.221,860.382h109.841c15.443,0,15.469-24,0-24H1407.221c-15.444,0-15.468,24,0,24" fill="#c69c6d"/>
            </g>
          </g>
        </g>
        <g id="Group_659" data-name="Group 659" opacity="0.44">
          <g id="Group_658" data-name="Group 658">
            <g id="Group_657" data-name="Group 657" clip-path="url(#clip-path-8)">
              <path id="Path_303" data-name="Path 303" d="M1331.243,419.731H1621.3c15.443,0,15.469-24,0-24H1331.243c-15.444,0-15.468,24,0,24" fill="#c69c6d"/>
            </g>
          </g>
        </g>
        <g id="Group_662" data-name="Group 662" opacity="0.44">
          <g id="Group_661" data-name="Group 661">
            <g id="Group_660" data-name="Group 660" clip-path="url(#clip-path-9)">
              <path id="Path_304" data-name="Path 304" d="M1397.709,647.925c-.459-6.49-.531-13.331,1.345-19.625l-3.086,5.295.76-.962-5.3,3.086,1-.291h-6.381l.984.326q-2.648-1.544-5.3-3.086-.511-.528-.128-.673.709,1.718,1.42,3.436,1.063,2.577,2.129,5.154l4.968,12.027c2.057,4.978,5.82,8.81,11.572,8.81a12.3,12.3,0,0,0,11.571-8.81q4.548-14.974,9.1-29.948h-23.143a56.514,56.514,0,0,1,1.323,22.211c-.81,6.442,6.1,12,12,12,7.158,0,11.188-5.539,12-12a74.327,74.327,0,0,0-2.18-28.591c-3.138-11.668-19.755-11.154-23.143,0q-4.548,14.975-9.1,29.948h23.143l-7.808-18.9c-2.88-6.974-6.095-14.25-14.626-15.262-18.1-2.147-17.981,23.81-17.129,35.854.457,6.466,5.188,12,12,12,6.14,0,12.46-5.5,12-12" fill="#c69c6d"/>
            </g>
          </g>
        </g>
      </g>
    </g>
  </g>
</svg>
