<svg xmlns="http://www.w3.org/2000/svg" width="14.214" height="29" viewBox="0 0 14.214 29">
  <path id="Icon_open-info" data-name="Icon open-info" d="M10.66,0A3.6,3.6,0,0,0,7.107,3.625a3.554,3.554,0,1,0,7.107,0A3.6,3.6,0,0,0,10.66,0ZM5.33,9.063A5.377,5.377,0,0,0,0,14.5H3.553a1.777,1.777,0,1,1,3.553,0c0,1.015-3.553,5.945-3.553,9.063A5.31,5.31,0,0,0,8.884,29a5.377,5.377,0,0,0,5.33-5.437H10.66a1.777,1.777,0,1,1-3.553,0c0-1.305,3.553-6.67,3.553-9.062A5.424,5.424,0,0,0,5.33,9.063Z" fill="#4b4b4b"/>
</svg>
