<svg xmlns="http://www.w3.org/2000/svg" xmlns:xlink="http://www.w3.org/1999/xlink" width="190.183" height="1253.03" viewBox="0 0 190.183 1253.03">
  <defs>
    <clipPath id="clip-path">
      <rect id="Rectangle_269" data-name="Rectangle 269" width="190.183" height="1253.03" fill="none"/>
    </clipPath>
  </defs>
  <g id="kader-left" opacity="0.44">
    <g id="Group_615" data-name="Group 615">
      <g id="Group_614" data-name="Group 614" clip-path="url(#clip-path)">
        <path id="Path_249" data-name="Path 249" d="M0,95.155v1062.72c0,24.382,10.608,50,27.852,67.24,16.492,16.493,43.552,28.912,67.239,27.851,24.594-1.1,50.1-9.179,67.24-27.851,17.079-18.6,27.852-41.476,27.852-67.24V1130c0-24.382-10.608-50-27.852-67.24-16.493-16.493-43.552-28.914-67.24-27.852-24.593,1.1-50.1,9.18-67.239,27.852C10.773,1081.367,0,1104.236,0,1130v27.873c0,24.382,10.608,50,27.852,67.24,16.492,16.493,43.552,28.912,67.239,27.851,24.594-1.1,50.1-9.179,67.24-27.851,17.079-18.6,27.852-41.476,27.852-67.24V95.155c0-24.382-10.608-50-27.852-67.24C145.838,11.422,118.779-1,95.091.064c-24.593,1.1-50.1,9.179-67.239,27.851C10.773,46.52,0,69.391,0,95.155" transform="translate(0 0)" fill="#c69c6d"/>
      </g>
    </g>
  </g>
</svg>
