<svg xmlns="http://www.w3.org/2000/svg" xmlns:xlink="http://www.w3.org/1999/xlink" width="296.525" height="136.217" viewBox="0 0 296.525 136.217">
  <defs>
    <clipPath id="clip-path">
      <rect id="Rectangle_237" data-name="Rectangle 237" width="22.861" height="110.414" fill="none"/>
    </clipPath>
    <clipPath id="clip-path-2">
      <rect id="Rectangle_238" data-name="Rectangle 238" width="296.135" height="22.861" fill="none"/>
    </clipPath>
    <clipPath id="clip-path-3">
      <rect id="Rectangle_239" data-name="Rectangle 239" width="22.861" height="128.533" fill="none"/>
    </clipPath>
    <clipPath id="clip-path-5">
      <rect id="Rectangle_250" data-name="Rectangle 250" width="20.834" height="92.921" fill="none"/>
    </clipPath>
    <clipPath id="clip-path-6">
      <rect id="Rectangle_251" data-name="Rectangle 251" width="18.682" height="65.625" fill="none"/>
    </clipPath>
    <clipPath id="clip-path-7">
      <rect id="Rectangle_252" data-name="Rectangle 252" width="92.618" height="25.586" fill="none"/>
    </clipPath>
    <clipPath id="clip-path-8">
      <rect id="Rectangle_253" data-name="Rectangle 253" width="117.174" height="22.524" fill="none"/>
    </clipPath>
    <clipPath id="clip-path-9">
      <rect id="Rectangle_254" data-name="Rectangle 254" width="16.388" height="92.313" fill="none"/>
    </clipPath>
    <clipPath id="clip-path-10">
      <rect id="Rectangle_255" data-name="Rectangle 255" width="78.607" height="16.388" fill="none"/>
    </clipPath>
    <clipPath id="clip-path-11">
      <rect id="Rectangle_256" data-name="Rectangle 256" width="24.206" height="45.752" fill="none"/>
    </clipPath>
  </defs>
  <g id="keuze_2" data-name="keuze 2" transform="translate(-827.564 -452.783)">
    <g id="Group_532" data-name="Group 532" transform="translate(829.439 469.026)" opacity="0.44">
      <g id="Group_531" data-name="Group 531">
        <g id="Group_530" data-name="Group 530" clip-path="url(#clip-path)">
          <path id="Path_209" data-name="Path 209" d="M267.374,22.935v88.332c0,14.711,22.861,14.735,22.861,0V22.935c0-14.708-22.861-14.732-22.861,0" transform="translate(-267.374 -11.894)" fill="#4d4d4d"/>
        </g>
      </g>
    </g>
    <g id="Group_535" data-name="Group 535" transform="translate(827.564 559.233)" opacity="0.44">
      <g id="Group_534" data-name="Group 534">
        <g id="Group_533" data-name="Group 533" clip-path="url(#clip-path-2)">
          <path id="Path_210" data-name="Path 210" d="M277.041,100.811H551.094c14.709,0,14.734-22.861,0-22.861H277.041c-14.709,0-14.734,22.861,0,22.861" transform="translate(-266 -77.949)" fill="#4d4d4d"/>
        </g>
      </g>
    </g>
    <g id="Group_538" data-name="Group 538" transform="translate(1101.229 460.467)" opacity="0.44">
      <g id="Group_537" data-name="Group 537">
        <g id="Group_536" data-name="Group 536" clip-path="url(#clip-path-3)">
          <path id="Path_211" data-name="Path 211" d="M489.255,123.118V16.667c0-14.709-22.861-14.734-22.861,0V123.118c0,14.709,22.861,14.734,22.861,0" transform="translate(-466.394 -5.626)" fill="#4d4d4d"/>
        </g>
      </g>
    </g>
    <g id="Group_541" data-name="Group 541" transform="translate(827.564 452.783)" opacity="0.44">
      <g id="Group_540" data-name="Group 540">
        <g id="Group_539" data-name="Group 539" clip-path="url(#clip-path-2)">
          <path id="Path_212" data-name="Path 212" d="M551.094,0H277.041c-14.709,0-14.734,22.861,0,22.861H551.094c14.709,0,14.734-22.861,0-22.861" transform="translate(-266)" fill="#4d4d4d"/>
        </g>
      </g>
    </g>
    <g id="Group_571" data-name="Group 571" transform="translate(844.994 463.038)" opacity="0.44">
      <g id="Group_570" data-name="Group 570">
        <g id="Group_569" data-name="Group 569" clip-path="url(#clip-path-5)">
          <path id="Path_222" data-name="Path 222" d="M278.78,15.4q2.206,38.572,4.414,77.143c.6,10.484,16.991,10.554,16.388,0q-2.206-38.572-4.414-77.143c-.6-10.484-16.991-10.554-16.388,0" transform="translate(-278.764 -7.509)" fill="#c69c6d"/>
        </g>
      </g>
    </g>
    <g id="Group_574" data-name="Group 574" transform="translate(850.771 497.065)" opacity="0.44">
      <g id="Group_573" data-name="Group 573">
        <g id="Group_572" data-name="Group 572" clip-path="url(#clip-path-6)">
          <path id="Path_223" data-name="Path 223" d="M283,40.325q1.137,24.913,2.272,49.828c.479,10.5,16.87,10.56,16.388,0q-1.135-24.913-2.272-49.828c-.479-10.5-16.87-10.56-16.388,0" transform="translate(-282.994 -32.426)" fill="#c69c6d"/>
        </g>
      </g>
    </g>
    <g id="Group_577" data-name="Group 577" transform="translate(896.074 551.085)" opacity="0.44">
      <g id="Group_576" data-name="Group 576">
        <g id="Group_575" data-name="Group 575" clip-path="url(#clip-path-7)">
          <path id="Path_224" data-name="Path 224" d="M323.973,88.436,400.978,97.5c10.454,1.23,10.365-15.168,0-16.388l-77.005-9.066c-10.454-1.23-10.365,15.167,0,16.388" transform="translate(-316.167 -71.982)" fill="#c69c6d"/>
        </g>
      </g>
    </g>
    <g id="Group_580" data-name="Group 580" transform="translate(923.494 555.311)" opacity="0.44">
      <g id="Group_579" data-name="Group 579">
        <g id="Group_578" data-name="Group 578" clip-path="url(#clip-path-8)">
          <path id="Path_225" data-name="Path 225" d="M361.916,77.468l-15.426-2.1-2.18,16.1q50.777.508,101.29,6.077c10.468,1.155,10.386-15.242,0-16.388q-50.472-5.566-101.29-6.077c-8.935-.089-11.535,14.823-2.178,16.1l15.427,2.1c4.418.6,8.743-1.067,10.08-5.722,1.094-3.813-1.344-9.484-5.723-10.08" transform="translate(-336.246 -75.076)" fill="#c69c6d"/>
        </g>
      </g>
    </g>
    <g id="Group_583" data-name="Group 583" transform="translate(1088.203 469.889)" opacity="0.44">
      <g id="Group_582" data-name="Group 582">
        <g id="Group_581" data-name="Group 581" clip-path="url(#clip-path-9)">
          <path id="Path_226" data-name="Path 226" d="M456.856,20.44V96.923c0,10.544,16.388,10.562,16.388,0V36.3c0-10.545-16.388-10.563-16.388,0V96.923c0,10.544,16.388,10.562,16.388,0V20.44c0-10.544-16.388-10.562-16.388,0" transform="translate(-456.856 -12.525)" fill="#c69c6d"/>
        </g>
      </g>
    </g>
    <g id="Group_586" data-name="Group 586" transform="translate(1025.064 471.874)" opacity="0.44">
      <g id="Group_585" data-name="Group 585">
        <g id="Group_584" data-name="Group 584" clip-path="url(#clip-path-10)">
          <path id="Path_227" data-name="Path 227" d="M418.537,30.367h62.777c10.545,0,10.562-16.388,0-16.388H437.357V30.367h17.419c10.544,0,10.562-16.388,0-16.388H437.357c-10.544,0-10.562,16.388,0,16.388h43.957c10.545,0,10.562-16.388,0-16.388H418.537c-10.544,0-10.562,16.388,0,16.388" transform="translate(-410.622 -13.98)" fill="#c69c6d"/>
        </g>
      </g>
    </g>
    <g id="Group_589" data-name="Group 589" transform="translate(1081.805 471.902)" opacity="0.44">
      <g id="Group_588" data-name="Group 588">
        <g id="Group_587" data-name="Group 587" clip-path="url(#clip-path-11)">
          <path id="Path_228" data-name="Path 228" d="M452.289,24.316a131,131,0,0,0,7.7,29.925c3.768,9.731,19.619,5.5,15.8-4.356a130.974,130.974,0,0,1-7.7-29.925c-.6-4.419-6.216-6.741-10.078-5.723-4.748,1.252-6.312,5.715-5.723,10.08" transform="translate(-452.171 -14)" fill="#c69c6d"/>
        </g>
      </g>
    </g>
    <path id="Path_239" data-name="Path 239" d="M269.959,11.709V112.3c0,2.636,4.1,2.64,4.1,0V11.709c0-2.636-4.1-2.641-4.1,0" transform="translate(563.012 456.341)"/>
    <path id="Path_240" data-name="Path 240" d="M273.98,89.428H543.134c2.637,0,2.641-4.1,0-4.1H273.98c-2.636,0-2.641,4.1,0,4.1" transform="translate(563.758 483.983)"/>
    <path id="Path_241" data-name="Path 241" d="M477.121,119.195V7.727c0-2.636-4.1-2.641-4.1,0V119.195c0,2.636,4.1,2.641,4.1,0" transform="translate(637.258 454.886)"/>
    <path id="Path_242" data-name="Path 242" d="M547.309,7.688H270c-2.636,0-2.64,4.1,0,4.1H547.309c2.636,0,2.641-4.1,0-4.1" transform="translate(562.303 455.595)"/>
  </g>
</svg>
