<svg xmlns="http://www.w3.org/2000/svg" xmlns:xlink="http://www.w3.org/1999/xlink" width="106.27" height="105.488" viewBox="0 0 106.27 105.488">
  <defs>
    <filter id="Rectangle_392" x="0" y="0" width="106.27" height="105.488" filterUnits="userSpaceOnUse">
      <feOffset dy="3" input="SourceAlpha"/>
      <feGaussianBlur stdDeviation="3" result="blur"/>
      <feFlood flood-opacity="0.161"/>
      <feComposite operator="in" in2="blur"/>
      <feComposite in="SourceGraphic"/>
    </filter>
    <clipPath id="clip-path">
      <rect id="Rectangle_393" data-name="Rectangle 393" width="74.975" height="51.61" fill="none"/>
    </clipPath>
  </defs>
  <g id="terug-btn" transform="translate(9 27.67)">
    <g transform="matrix(1, 0, 0, 1, -9, -27.67)" filter="url(#Rectangle_392)">
      <rect id="Rectangle_392-2" data-name="Rectangle 392" width="88.27" height="87.488" rx="27" transform="translate(9 6)" fill="#fdfdfd"/>
    </g>
    <g id="Group_955" data-name="Group 955" transform="translate(6.647 -3.731)" clip-path="url(#clip-path)">
      <path id="Path_516" data-name="Path 516" d="M2.944,24.423a341.724,341.724,0,0,1,53.4-18.8q7.652-2,15.39-3.644L70.455,1q2.091,19.237,2.436,38.61.095,5.5.048,11.009l1.521-.873A418.768,418.768,0,0,0,17.749,27.443q-8.2-2.551-16.5-4.761a1.011,1.011,0,0,0-.538,1.949,415.114,415.114,0,0,1,57.1,19.753q7.886,3.393,15.627,7.111a1.023,1.023,0,0,0,1.52-.872q.16-19.351-1.432-38.661Q73.073,6.476,72.476,1A1.029,1.029,0,0,0,71.2.028,343.205,343.205,0,0,0,16.739,16.434Q9.26,19.383,1.924,22.679c-1.185.531-.158,2.273,1.02,1.745" transform="translate(0 0)"/>
    </g>
  </g>
</svg>
